<?xml version="1.0" standalone="no"?>
<!DOCTYPE svg PUBLIC "-//W3C//DTD SVG 1.1//EN" "http://www.w3.org/Graphics/SVG/1.1/DTD/svg11.dtd" >
<svg xmlns="http://www.w3.org/2000/svg" xmlns:xlink="http://www.w3.org/1999/xlink" version="1.1">
<metadata>
Created by FontForge 20170731 at Wed May 20 11:12:29 2015
 By Aleksey,,,
Copyright (c) 2014 adidas. All rights reserved.
</metadata>
<defs>
<font id="adineuePROCyr-LightWeb" horiz-adv-x="490" >
  <font-face 
    font-family="adineue PRO Cyr Light Web"
    font-weight="300"
    font-stretch="normal"
    units-per-em="1000"
    panose-1="2 0 0 0 0 0 0 0 0 0"
    ascent="750"
    descent="-250"
    x-height="500"
    cap-height="685"
    bbox="-156 -209 4968 915"
    underline-thickness="50"
    underline-position="-200"
    unicode-range="U+000D-FB02"
  />
<missing-glyph horiz-adv-x="420" 
 />
    <glyph glyph-name=".notdef" horiz-adv-x="420" 
 />
    <glyph glyph-name=".null" horiz-adv-x="0" 
 />
    <glyph glyph-name="nonmarkingreturn" unicode="&#xd;" horiz-adv-x="235" 
 />
    <glyph glyph-name="NULL" horiz-adv-x="0" 
 />
    <glyph glyph-name="NULL" horiz-adv-x="0" 
 />
    <glyph glyph-name="space" unicode=" " horiz-adv-x="200" 
 />
    <glyph glyph-name="exclam" unicode="!" horiz-adv-x="138" 
d="M93 173h-48v512h48v-512zM45 0v58h48v-58h-48z" />
    <glyph glyph-name="quotedbl" unicode="&#x22;" horiz-adv-x="218" 
d="M47 552l-7 133h50l-7 -133h-36zM135 552l-7 133h50l-7 -133h-36z" />
    <glyph glyph-name="numbersign" unicode="#" horiz-adv-x="585" 
d="M387 452h-176l-19 -223h176zM364 181h-176l-16 -181h-51l16 181h-104v48h108l19 223h-127v48h131l16 185h51l-16 -185h176l16 185h51l-16 -185h111v-48h-115l-19 -223h134v-48h-138l-16 -181h-51z" />
    <glyph glyph-name="dollar" unicode="$" horiz-adv-x="486" 
d="M225 630q-53 -5 -84.5 -38t-31.5 -87q0 -30 9 -51t25 -36t37 -24.5t45 -16.5v253zM272 36q63 5 99 39.5t36 93.5q0 34 -11 57.5t-29.5 39.5t-43 26t-51.5 18v-274zM272 363q34 -9 67.5 -21t60 -32.5t43 -53.5t16.5 -85q0 -38 -13 -70t-37.5 -56t-59 -38t-77.5 -17v-81
h-47v81q-88 7 -138.5 53.5t-59.5 131.5h54q7 -60 43.5 -95.5t100.5 -43.5v287q-32 9 -62.5 21t-54.5 32t-38.5 50.5t-14.5 77.5q0 37 12.5 67t35 52.5t53.5 36t69 16.5v94h47v-94q80 -6 126.5 -52t51.5 -119h-53q-2 22 -10 43t-23.5 38t-38 28.5t-53.5 15.5v-267z" />
    <glyph glyph-name="percent" unicode="%" horiz-adv-x="794" 
d="M20 560q0 28 10.5 51.5t29.5 41t45 27t56 9.5t55 -9.5t43.5 -27t29 -41t10.5 -51.5v-124q0 -28 -10.5 -52t-29 -41t-43.5 -27t-55 -10t-56 10t-45 27t-29.5 41t-10.5 52v124zM254 560q0 38 -26.5 62.5t-66.5 24.5q-42 0 -68 -24.5t-26 -62.5v-124q0 -38 26 -63t68 -25
q40 0 66.5 25t26.5 63v124zM495 248q0 28 10.5 51.5t29.5 41t45 27t56 9.5t55 -9.5t43.5 -27t29 -41t10.5 -51.5v-124q0 -28 -10.5 -52t-29 -41t-43.5 -27t-55 -10t-56 10t-45 27t-29.5 41t-10.5 52v124zM729 248q0 38 -26.5 62.5t-66.5 24.5q-42 0 -68 -24.5t-26 -62.5
v-124q0 -38 26 -63t68 -25q40 0 66.5 25t26.5 63v124zM219 0l303 685h53l-303 -685h-53z" />
    <glyph glyph-name="ampersand" unicode="&#x26;" horiz-adv-x="672" 
d="M178 527q0 -45 17.5 -80.5t55.5 -71.5q32 12 61.5 24.5t52.5 30.5t37 43t14 62q0 52 -33 81t-87 29t-86 -33t-32 -85zM236 324q-29 -12 -54.5 -25t-45 -30.5t-30.5 -41t-11 -56.5q0 -63 42.5 -101.5t119.5 -38.5q62 0 110.5 22.5t86.5 60.5zM485 85q-43 -44 -100 -70
t-129 -26q-50 0 -89 13.5t-66 37.5t-41.5 57.5t-14.5 73.5q0 42 13 72t34.5 51.5t49.5 36t59 26.5q-35 36 -55.5 79.5t-20.5 84.5q0 37 13 68.5t36 54.5t55 36t70 13q36 0 66.5 -11t53 -31t35 -49.5t12.5 -65.5q0 -45 -15.5 -76t-40.5 -52.5t-58 -36.5t-67 -28l202 -189
q22 29 39 63t29 70t18.5 72.5t8.5 71.5h46q-3 -38 -10.5 -78t-21 -79.5t-33 -78t-44.5 -71.5l131 -124h-76z" />
    <glyph glyph-name="quotesingle" unicode="'" horiz-adv-x="130" 
d="M47 552l-7 133h50l-7 -133h-36z" />
    <glyph glyph-name="parenleft" unicode="(" horiz-adv-x="243" 
d="M208 669q-35 -39 -60.5 -86.5t-42 -100t-24.5 -108t-8 -109.5t8 -109.5t24.5 -108t42 -100t60.5 -86.5l-35 -25q-35 39 -62.5 87.5t-46.5 104t-29 115.5t-10 122t10 122t29 115.5t46.5 104t62.5 87.5z" />
    <glyph glyph-name="parenright" unicode=")" horiz-adv-x="243" 
d="M35 -139q35 39 60.5 86.5t42 100t24.5 108t8 109.5t-8 109.5t-24.5 108t-42 100t-60.5 86.5l35 25q35 -39 62.5 -87.5t46.5 -104t29 -115.5t10 -122t-10 -122t-29 -115.5t-46.5 -104t-62.5 -87.5z" />
    <glyph glyph-name="asterisk" unicode="*" horiz-adv-x="355" 
d="M297 633l21 -35l-101 -64l101 -64l-21 -35l-99 62v-113h-41v112l-99 -61l-21 35l101 64l-101 64l21 35l99 -61v113h41v-114z" />
    <glyph glyph-name="plus" unicode="+" horiz-adv-x="440" 
d="M410 309v-46h-168v-173h-48v173h-164v46h164v167h48v-167h168z" />
    <glyph glyph-name="comma" unicode="," horiz-adv-x="130" 
d="M71 -72h-27l17 72h-21v58h50v-54z" />
    <glyph glyph-name="hyphen" unicode="-" horiz-adv-x="349" 
d="M40 263v46h269v-46h-269z" />
    <glyph glyph-name="period" unicode="." horiz-adv-x="130" 
d="M40 0v58h50v-58h-50z" />
    <glyph glyph-name="slash" unicode="/" horiz-adv-x="265" 
d="M18 0l180 684h49l-180 -684h-49z" />
    <glyph glyph-name="zero" unicode="0" horiz-adv-x="540" 
d="M38 460q0 50 18 92.5t49 73.5t73.5 48.5t92.5 17.5q49 0 91 -17.5t73 -48.5t49 -73.5t18 -92.5v-238q0 -50 -18 -93t-49 -74t-73 -48.5t-91 -17.5q-50 0 -92.5 17.5t-73.5 48.5t-49 74t-18 93v238zM450 460q0 40 -13.5 74t-37.5 58.5t-56.5 38t-71.5 13.5t-72.5 -13.5
t-57.5 -38t-37.5 -58.5t-13.5 -74v-238q0 -40 13.5 -74t37.5 -58.5t57.5 -38.5t72.5 -14t71.5 14t56.5 38.5t37.5 58.5t13.5 74v238z" />
    <glyph glyph-name="one" unicode="1" horiz-adv-x="208" 
d="M114 0v638h-81v47h131v-685h-50z" />
    <glyph glyph-name="two" unicode="2" horiz-adv-x="508" 
d="M34 0v46l271 253q25 23 45 44t34 43.5t21.5 49t7.5 60.5q0 31 -11 58t-31.5 47t-49 31t-64.5 11q-69 0 -110 -29t-72 -80l-42 25q35 60 88 96.5t136 36.5q47 0 86 -15.5t66.5 -42t43 -62t15.5 -76.5q0 -39 -9.5 -70.5t-26.5 -58t-40.5 -51t-51.5 -50.5l-235 -220h370v-46
h-441z" />
    <glyph glyph-name="three" unicode="3" horiz-adv-x="519" 
d="M251 -6q-84 0 -139 36.5t-90 96.5l43 26q30 -52 73 -81t113 -29q42 0 76 13t58 37t36.5 57t12.5 73q0 83 -46.5 127t-133.5 44q-34 0 -59.5 -9.5t-39.5 -20.5l-22 32l256 244h-329v46h396v-47l-204 -197q55 0 98.5 -16t73.5 -44.5t46 -68.5t16 -89t-17 -91t-47.5 -73
t-74 -48.5t-96.5 -17.5z" />
    <glyph glyph-name="four" unicode="4" horiz-adv-x="523" 
d="M497 211v-48h-91v-163h-50v163h-331v48l331 476h50v-476h91zM356 211v395l-272 -395h272z" />
    <glyph glyph-name="five" unicode="5" horiz-adv-x="519" 
d="M251 -6q-84 0 -139 36.5t-90 96.5l41 25q31 -52 74.5 -80.5t113.5 -28.5q42 0 76 13.5t58 37.5t36.5 57.5t12.5 73.5q0 83 -46 127.5t-131 44.5q-56 0 -95 -25t-63 -58l-49 17l69 355h327v-49h-287l-50 -247q26 24 65 40t87 16q54 0 95.5 -16t70.5 -44.5t44 -69.5t15 -90
t-17 -91.5t-47.5 -73.5t-74 -49t-96.5 -18z" />
    <glyph glyph-name="six" unicode="6" horiz-adv-x="542" 
d="M271 -9q-51 0 -94.5 18t-75.5 50t-50 75.5t-18 93.5q0 42 12.5 80t30.5 67l195 311h57l-154 -239q17 8 40.5 14.5t60.5 6.5q51 0 93.5 -18.5t74 -50.5t49 -76t17.5 -95q0 -50 -18.5 -93.5t-50.5 -75.5t-75.5 -50t-93.5 -18zM271 40q40 0 74.5 14.5t59.5 39.5t39 59.5
t14 74.5q0 41 -14 76t-39 60.5t-59.5 40t-74.5 14.5q-41 0 -75 -14.5t-59 -40t-39 -60.5t-14 -76q0 -40 14 -74.5t39 -59.5t59 -39.5t75 -14.5z" />
    <glyph glyph-name="seven" unicode="7" horiz-adv-x="466" 
d="M162 0h-57l283 637h-366v48h423v-46z" />
    <glyph glyph-name="eight" unicode="8" horiz-adv-x="503" 
d="M251 -11q-45 0 -84.5 16t-69.5 43.5t-47 65.5t-17 83q0 62 34.5 110.5t92.5 74.5q-42 23 -65 60t-23 81q0 37 14 68t38.5 53.5t57 35t69.5 12.5t70 -12.5t57.5 -35t38.5 -53.5t14 -68q0 -43 -22 -79.5t-67 -61.5q59 -25 93.5 -75t34.5 -110q0 -45 -17 -83t-47 -66
t-70 -43.5t-85 -15.5zM251 402q27 0 50.5 9.5t40.5 26t26.5 38.5t9.5 47q0 27 -10 49.5t-27.5 39t-40.5 25.5t-49 9t-49 -9t-40 -25.5t-27 -39t-10 -49.5q0 -25 10 -47t27 -38.5t40 -26t49 -9.5zM251 37q35 0 65 12t52.5 33.5t35.5 51t13 64.5q0 33 -13 62t-35.5 50.5
t-52.5 33.5t-65 12t-65 -12t-52.5 -33.5t-35.5 -50.5t-13 -62q0 -35 13 -64.5t35.5 -51t52.5 -33.5t65 -12z" />
    <glyph glyph-name="nine" unicode="9" horiz-adv-x="542" 
d="M214 0l154 239q-17 -8 -40.5 -14.5t-60.5 -6.5q-51 0 -94 18.5t-74 50.5t-48.5 76t-17.5 95q0 50 18.5 93.5t50.5 75t75.5 49.5t93.5 18q51 0 94.5 -18t75.5 -49.5t50 -75t18 -93.5q0 -42 -12.5 -80.5t-30.5 -67.5l-195 -310h-57zM271 266q40 0 74.5 14.5t59 40
t38.5 60.5t14 76q0 40 -14 74.5t-38.5 60t-59 40t-74.5 14.5q-41 0 -75 -14.5t-59.5 -40t-39.5 -60t-14 -74.5q0 -41 14 -76t39.5 -60.5t59.5 -40t75 -14.5z" />
    <glyph glyph-name="colon" unicode=":" horiz-adv-x="130" 
d="M40 0v58h50v-58h-50zM40 442v58h50v-58h-50z" />
    <glyph glyph-name="semicolon" unicode=";" horiz-adv-x="130" 
d="M40 442v58h50v-58h-50zM71 -72h-27l17 72h-21v58h50v-54z" />
    <glyph glyph-name="less" unicode="&#x3c;" horiz-adv-x="440" 
d="M76 286l334 -137v-52l-380 163v52l380 163v-52z" />
    <glyph glyph-name="equal" unicode="=" horiz-adv-x="440" 
d="M30 335v46h380v-46h-380zM30 186v46h380v-46h-380z" />
    <glyph glyph-name="greater" unicode="&#x3e;" horiz-adv-x="440" 
d="M410 260l-380 -163v52l334 137l-334 137v52l380 -163v-52z" />
    <glyph glyph-name="question" unicode="?" horiz-adv-x="468" 
d="M20 512q5 38 21.5 71t44 57t64.5 38t84 14q46 0 84 -14.5t64.5 -41t41 -62.5t14.5 -79q0 -50 -17.5 -86.5t-46.5 -61.5t-65.5 -38.5t-74.5 -16.5v-119h-48v161q43 0 80.5 9t65 28.5t43 50t15.5 73.5q0 67 -42 109t-114 42t-112 -38.5t-50 -95.5h-52zM186 0v58h48v-58h-48
z" />
    <glyph glyph-name="at" unicode="@" horiz-adv-x="757" 
d="M382 -69q-74 0 -138 27.5t-111.5 74t-75 109t-27.5 132.5q0 76 26.5 141.5t73.5 113.5t113 75.5t146 27.5q86 0 149.5 -28.5t105.5 -74.5t63 -104t21 -118q0 -98 -39.5 -152.5t-102.5 -54.5q-27 0 -49 15t-30 40q-23 -32 -60 -50t-82 -18q-40 0 -74 14t-59 38.5t-39 58.5
t-14 75q0 40 14 74t39 59t59 39t74 14q48 0 86 -21t58 -50v64h45v-271q0 -19 10 -30.5t29 -11.5q39 0 66 42.5t27 124.5q0 50 -18 101t-54.5 92.5t-92.5 67.5t-132 26q-70 0 -128.5 -25t-100.5 -68t-65 -101.5t-23 -124.5q0 -62 24 -117.5t65.5 -97t98.5 -65.5t123 -24
q112 0 192 59l22 -33q-44 -33 -99.5 -49t-115.5 -16zM509 273q0 30 -11.5 55.5t-31 45t-45.5 30.5t-55 11q-30 0 -56 -10.5t-44.5 -29.5t-29 -45t-10.5 -57t10.5 -57.5t29 -45.5t44.5 -29.5t56 -10.5q29 0 55 11t45.5 30t31 45.5t11.5 56.5z" />
    <glyph glyph-name="A" unicode="A" horiz-adv-x="616" 
d="M307 616l-152 -385h303zM478 181h-343l-71 -181h-54l271 685h53l272 -685h-57z" />
    <glyph glyph-name="B" unicode="B" horiz-adv-x="559" 
d="M50 685h236q49 0 86.5 -14t63 -38t39 -56t13.5 -69q0 -45 -24 -86.5t-68 -63.5q34 -6 60 -20.5t43.5 -36t26.5 -48.5t9 -56q0 -42 -14.5 -78t-41 -62.5t-63 -41.5t-79.5 -15h-287v685zM103 636v-262h182q38 0 66.5 10.5t47 28.5t27.5 41.5t9 50.5t-9.5 50.5t-27.5 41.5
t-45.5 28.5t-63.5 10.5h-186zM103 325v-276h227q39 0 68 11.5t47.5 31.5t27.5 46t9 55q0 27 -9 51t-27.5 42t-46.5 28.5t-65 10.5h-231z" />
    <glyph glyph-name="C" unicode="C" horiz-adv-x="708" 
d="M384 642q-63 0 -118 -22.5t-95.5 -62.5t-64 -95t-23.5 -119q0 -65 23.5 -120t64 -95t95.5 -63t118 -23q91 0 152.5 38.5t102.5 106.5l41 -27q-46 -78 -118.5 -123t-177.5 -45q-73 0 -137.5 26.5t-112.5 73t-76 111t-28 140.5t28 140.5t76 111t112.5 72.5t137.5 26
q105 0 179 -45.5t119 -123.5l-43 -28q-41 69 -104 107.5t-151 38.5z" />
    <glyph glyph-name="D" unicode="D" horiz-adv-x="638" 
d="M50 685h211q72 0 135 -25.5t110 -71t74.5 -108.5t27.5 -137t-27.5 -137t-74.5 -109t-110 -71.5t-135 -25.5h-211v685zM103 636v-587h156q62 0 116 22t94 61.5t63 93.5t23 117t-23 117t-63 93t-94 61t-116 22h-156z" />
    <glyph glyph-name="E" unicode="E" horiz-adv-x="498" 
d="M50 685h411v-49h-358v-265h333v-49h-333v-273h378v-49h-431v685z" />
    <glyph glyph-name="F" unicode="F" horiz-adv-x="483" 
d="M103 310v-310h-53v685h406v-49h-353v-277h328v-49h-328z" />
    <glyph glyph-name="G" unicode="G" horiz-adv-x="737" 
d="M708 313q0 -62 -22.5 -119.5t-64.5 -102.5t-101.5 -72t-132.5 -27q-77 0 -142 26.5t-113 73t-75 111t-27 140.5t28 140.5t76 111t112.5 73t137.5 26.5q86 0 154 -31t116 -89l-39 -33q-42 50 -101 75.5t-130 25.5q-63 0 -118 -22.5t-95.5 -62.5t-64 -95t-23.5 -119
q0 -65 22.5 -120t63 -95t96 -63t122.5 -23q57 0 105.5 20t83.5 54.5t56 80.5t24 98h-260v49h312v-31v0z" />
    <glyph glyph-name="H" unicode="H" horiz-adv-x="607" 
d="M504 317h-401v-317h-53v685h53v-319h401v319h53v-685h-53v317z" />
    <glyph glyph-name="I" unicode="I" horiz-adv-x="153" 
d="M50 0v685h53v-685h-53z" />
    <glyph glyph-name="J" unicode="J" 
d="M71 215q0 -82 42 -128t118 -46t118 52t42 146v446h53v-451q0 -56 -15 -101.5t-43 -77t-67 -48.5t-88 -17t-88.5 16t-67 45.5t-42.5 71t-15 92.5h53z" />
    <glyph glyph-name="K" unicode="K" horiz-adv-x="527" 
d="M441 685h67l-348 -341l360 -344h-74l-343 328v-328h-53v685h53v-333z" />
    <glyph glyph-name="L" unicode="L" horiz-adv-x="483" 
d="M50 685h53v-636h353v-49h-406v685z" />
    <glyph glyph-name="M" unicode="M" horiz-adv-x="743" 
d="M100 579v-579h-50v685h60l262 -604l261 604h60v-685h-51v581l-256 -581h-30z" />
    <glyph glyph-name="N" unicode="N" horiz-adv-x="601" 
d="M101 603v-603h-51v685h56l394 -603v603h51v-685h-56z" />
    <glyph glyph-name="O" unicode="O" horiz-adv-x="758" 
d="M379 -8q-72 0 -135.5 26.5t-111 73t-75 111t-27.5 140.5t27.5 140.5t75 111t111 72.5t135.5 26t135.5 -26t111 -72.5t75 -111t27.5 -140.5t-27.5 -140.5t-75 -111t-111 -73t-135.5 -26.5zM379 42q62 0 116 23t94 63t63 95t23 120q0 64 -23 119t-63 95t-94 62.5t-116 22.5
t-116 -22.5t-94 -62.5t-63 -95t-23 -119q0 -65 23 -120t63 -95t94 -63t116 -23z" />
    <glyph glyph-name="P" unicode="P" horiz-adv-x="565" 
d="M103 240v-240h-53v685h236q52 0 95.5 -17.5t74.5 -47.5t48 -70.5t17 -86.5q0 -48 -17 -89t-48.5 -70.5t-77.5 -46.5t-103 -17h-172zM103 636v-347h178q44 0 78.5 13.5t58.5 37t37 55.5t13 69q0 36 -13 67t-37.5 54.5t-61.5 37t-85 13.5h-168z" />
    <glyph glyph-name="Q" unicode="Q" horiz-adv-x="758" 
d="M585 57q-44 -31 -96 -48t-110 -17q-72 0 -135.5 26.5t-111 73t-75 111t-27.5 140.5t27.5 140.5t75 111t111 72.5t135.5 26t135.5 -26t111 -72.5t75 -111t27.5 -140.5q0 -78 -28 -142t-77 -112l91 -89l-54 -17zM379 42q48 0 90.5 13.5t78.5 37.5l-168 166l54 17l153 -151
q41 41 64.5 96.5t23.5 121.5q0 64 -23 119t-63 95t-94 62.5t-116 22.5t-116 -22.5t-94 -62.5t-63 -95t-23 -119q0 -65 23 -120t63 -95t94 -63t116 -23z" />
    <glyph glyph-name="R" unicode="R" horiz-adv-x="520" 
d="M103 636v-318h155q49 0 85.5 12.5t61 33.5t36.5 50t12 62q0 34 -12 63t-36 50.5t-59.5 34t-82.5 12.5h-160zM103 0h-53v685h225q54 0 97 -16t72.5 -43.5t45.5 -65.5t16 -83q0 -43 -16.5 -80.5t-46.5 -65.5t-72 -44t-93 -16h-100l340 -271h-79l-336 271v-271z" />
    <glyph glyph-name="S" unicode="S" horiz-adv-x="577" 
d="M294 -10q-121 0 -191.5 53t-83.5 162h53q10 -81 67.5 -124t154.5 -42q97 0 146.5 39t49.5 108q0 38 -17.5 62t-46.5 38.5t-66.5 22.5t-77.5 16q-43 8 -84.5 18t-74.5 29.5t-53.5 52t-20.5 84.5q0 41 16 74.5t46 57.5t72 37t93 13q55 0 99 -14t76 -39.5t50.5 -62
t21.5 -81.5h-52q-3 29 -16.5 55.5t-37.5 47t-60 33t-84 12.5q-83 0 -128 -37.5t-45 -96.5q0 -37 17 -59.5t44.5 -37t63.5 -22.5t75 -15q44 -8 87.5 -18.5t78 -30.5t56 -53.5t21.5 -87.5q0 -40 -15 -75.5t-45.5 -61.5t-77.5 -41.5t-111 -15.5z" />
    <glyph glyph-name="T" unicode="T" horiz-adv-x="529" 
d="M238 0v636h-223v49h499v-49h-223v-636h-53z" />
    <glyph glyph-name="U" unicode="U" horiz-adv-x="628" 
d="M314 -10q-60 0 -108.5 19t-83 55t-53 86.5t-18.5 113.5v421h53v-416q0 -109 55 -169t155 -60t155 60t55 169v416h53v-421q0 -63 -18.5 -113.5t-53 -86.5t-83 -55t-108.5 -19z" />
    <glyph glyph-name="V" unicode="V" horiz-adv-x="596" 
d="M272 0l-262 685h57l232 -614l233 614h54l-261 -685h-53z" />
    <glyph glyph-name="W" unicode="W" horiz-adv-x="894" 
d="M445 603l-175 -603h-57l-193 685h54l170 -611l176 611h55l176 -610l170 610h53l-196 -685h-57z" />
    <glyph glyph-name="X" unicode="X" horiz-adv-x="625" 
d="M312 312l-229 -312h-61l257 351l-237 334h63l211 -293l208 293h61l-237 -333l257 -352h-63z" />
    <glyph glyph-name="Y" unicode="Y" horiz-adv-x="583" 
d="M265 0v305l-245 380h63l209 -332l209 332h62l-245 -378v-307h-53z" />
    <glyph glyph-name="Z" unicode="Z" horiz-adv-x="580" 
d="M83 49h482v-49h-549v48l459 588h-439v49h505v-48z" />
    <glyph glyph-name="bracketleft" unicode="[" horiz-adv-x="224" 
d="M93 639v-753h111v-46h-159v845h159v-46h-111z" />
    <glyph glyph-name="backslash" unicode="\" horiz-adv-x="265" 
d="M198 0l-180 685h49l180 -685h-49z" />
    <glyph glyph-name="bracketright" unicode="]" horiz-adv-x="224" 
d="M131 -114v753h-111v46h159v-845h-159v46h111z" />
    <glyph glyph-name="asciicircum" unicode="^" horiz-adv-x="440" 
d="M358 96l-138 334l-138 -334h-52l164 380h52l164 -380h-52z" />
    <glyph glyph-name="underscore" unicode="_" horiz-adv-x="500" 
d="M-1 -126v46h502v-46h-502z" />
    <glyph glyph-name="grave" unicode="`" horiz-adv-x="400" 
d="M291 590l-192 59v50l192 -64v-45z" />
    <glyph glyph-name="a" unicode="a" horiz-adv-x="578" 
d="M283 461q-45 0 -83.5 -16t-66 -44.5t-43.5 -67t-16 -83.5q0 -44 16 -82.5t43.5 -67t66 -44.5t83.5 -16q44 0 82.5 16t66.5 44.5t44 66.5t16 83t-16 83.5t-44 67t-66.5 44.5t-82.5 16zM489 99q-31 -47 -84 -76.5t-125 -29.5q-54 0 -100.5 20t-81 54.5t-54 81.5t-19.5 102
q0 54 19.5 101t54 81.5t81 54.5t100.5 20q72 0 124.5 -29t84.5 -74v95h49v-500h-49v99z" />
    <glyph glyph-name="b" unicode="b" horiz-adv-x="578" 
d="M298 -7q-74 0 -126 29.5t-83 76.5v-98h-49v684h49v-283q31 47 84 76.5t125 29.5q54 0 100.5 -20t81 -54.5t54 -81.5t19.5 -102q0 -54 -19.5 -101t-54 -81.5t-81 -54.5t-100.5 -20zM295 40q45 0 83.5 16t66 44.5t43.5 67t16 83.5q0 44 -16 82.5t-43.5 67t-66 44.5
t-83.5 16q-44 0 -82.5 -16t-66.5 -44.5t-44 -66.5t-16 -83t16 -83.5t44 -67t66.5 -44.5t82.5 -16z" />
    <glyph glyph-name="c" unicode="c" horiz-adv-x="527" 
d="M507 118q-35 -57 -91 -91t-139 -34q-55 0 -101.5 20t-80 55t-52 82t-18.5 102q0 54 18.5 100.5t52 81t80 54.5t101.5 20q87 0 141.5 -34.5t88.5 -91.5l-38 -26q-29 48 -74 76t-118 28q-45 0 -82.5 -16t-64.5 -44t-41.5 -66.5t-14.5 -82.5t15 -82.5t42 -67t64.5 -44.5
t82.5 -16q73 0 117.5 27.5t73.5 75.5z" />
    <glyph glyph-name="d" unicode="d" horiz-adv-x="578" 
d="M283 40q44 0 82.5 16t66.5 44.5t44 67t16 83.5t-16 83t-44 66.5t-66.5 44.5t-82.5 16q-45 0 -83.5 -16t-66 -44.5t-43.5 -67t-16 -82.5q0 -45 16 -83.5t43.5 -67t66 -44.5t83.5 -16zM489 99q-31 -47 -83 -76.5t-126 -29.5q-54 0 -100.5 20t-81 54.5t-54 81.5t-19.5 101
q0 55 19.5 102t54 81.5t81 54.5t100.5 20q72 0 125 -29.5t84 -76.5v283h49v-684h-49v98z" />
    <glyph glyph-name="e" unicode="e" horiz-adv-x="559" 
d="M516 118q-35 -57 -90.5 -91t-140.5 -34q-57 0 -104.5 20t-82 54.5t-54 81.5t-19.5 102q0 54 19.5 101t54 81.5t81 54.5t101.5 20q56 0 102.5 -20t80 -53t52 -77t18.5 -92q0 -12 -0.5 -20t-1.5 -13h-455q3 -46 20.5 -81.5t46 -60t64.5 -37.5t77 -13q74 0 119 27.5t74 75.5
zM281 461q-38 0 -73 -13t-62.5 -36.5t-46 -57.5t-22.5 -76h406q-4 42 -21.5 76t-44.5 58t-62 36.5t-74 12.5z" />
    <glyph glyph-name="f" unicode="f" horiz-adv-x="292" 
d="M239 638q-17 0 -34 -4.5t-31 -16.5t-22.5 -32.5t-8.5 -51.5v-33h129v-44h-129v-456h-48v456h-75v44h75v33q0 43 13 72t33 47t45.5 25.5t51.5 7.5h33v-47h-32z" />
    <glyph glyph-name="g" unicode="g" horiz-adv-x="572" 
d="M280 461q-44 0 -82 -16t-65.5 -43.5t-43 -65.5t-15.5 -81t15.5 -80.5t43 -65t65.5 -43.5t82 -16q43 0 81 15.5t65.5 42.5t43.5 64.5t16 82.5t-16 83t-43.5 65t-65.5 42.5t-81 15.5zM285 -186q-85 0 -140.5 34t-90.5 91l38 26q29 -48 74 -75.5t119 -27.5q92 0 145 44.5
t53 132.5v70q-13 -20 -32.5 -39t-45 -34t-57.5 -24t-71 -9q-53 0 -99 19.5t-80 53.5t-53.5 80t-19.5 100q0 53 19.5 99t53.5 80t80 53.5t99 19.5q74 0 125.5 -30t80.5 -75v97h49v-461q0 -47 -16.5 -88t-48 -71.5t-77.5 -48t-105 -17.5z" />
    <glyph glyph-name="h" unicode="h" 
d="M89 424q22 34 62 59t105 25q44 0 79.5 -14.5t61 -40.5t39.5 -63.5t14 -83.5v-306h-49v300q0 76 -39.5 118.5t-110.5 42.5q-74 0 -118 -46.5t-44 -128.5v-286h-49v685h49v-261z" />
    <glyph glyph-name="i" unicode="i" horiz-adv-x="129" 
d="M40 632v53h49v-53h-49zM40 0v500h49v-500h-49z" />
    <glyph glyph-name="j" unicode="j" horiz-adv-x="129" 
d="M40 632v53h49v-53h-49zM89 -21q0 -43 -12.5 -72t-32.5 -47t-45 -25.5t-49 -7.5v47q16 0 32 4.5t29 16.5t21 32t8 52v521h49v-521z" />
    <glyph glyph-name="k" unicode="k" horiz-adv-x="438" 
d="M329 500h61l-249 -251l262 -249h-68l-246 234v-234h-49v685h49v-429z" />
    <glyph glyph-name="l" unicode="l" horiz-adv-x="129" 
d="M40 0v685h49v-685h-49z" />
    <glyph glyph-name="m" unicode="m" horiz-adv-x="807" 
d="M89 427q18 31 56.5 56t100.5 25q58 0 100.5 -26.5t63.5 -74.5q10 19 25.5 37t37 32.5t49.5 23t63 8.5q83 0 132.5 -52.5t49.5 -141.5v-314h-49v310q0 72 -36.5 111.5t-101.5 39.5q-68 0 -110 -41t-42 -116v-304h-49v310q0 72 -36.5 111.5t-101.5 39.5q-69 0 -110.5 -43
t-41.5 -121v-297h-49v500h49v-73z" />
    <glyph glyph-name="n" unicode="n" 
d="M256 508q44 0 79.5 -14.5t61 -40.5t39.5 -63.5t14 -83.5v-306h-49v300q0 76 -39.5 118.5t-110.5 42.5q-74 0 -118 -46.5t-44 -128.5v-286h-49v500h49v-76q22 34 62 59t105 25z" />
    <glyph glyph-name="o" unicode="o" horiz-adv-x="565" 
d="M283 508q54 0 101 -20t81.5 -54.5t54.5 -81.5t20 -101q0 -55 -20 -102t-54.5 -81.5t-81.5 -54.5t-101 -20q-55 0 -102 20t-81.5 54.5t-54.5 81.5t-20 102q0 54 20 101t54.5 81.5t81.5 54.5t102 20zM283 461q-45 0 -83.5 -16t-66 -44.5t-43.5 -67t-16 -83.5
q0 -44 16 -82.5t43.5 -67t66 -44.5t83.5 -16t83 16t65.5 44.5t43.5 67t16 82.5q0 45 -16 83.5t-43.5 67t-65.5 44.5t-83 16z" />
    <glyph glyph-name="p" unicode="p" horiz-adv-x="578" 
d="M295 461q-44 0 -82.5 -16t-66.5 -44.5t-44 -67t-16 -83.5t16 -83t44 -66.5t66.5 -44.5t82.5 -16q45 0 83.5 16t66 44.5t43.5 67t16 82.5q0 45 -16 83.5t-43.5 67t-66 44.5t-83.5 16zM298 -7q-72 0 -125 29.5t-84 76.5v-273h-49v674h49v-98q31 47 84 76.5t125 29.5
q54 0 100.5 -20t81 -54.5t54 -81.5t19.5 -101q0 -55 -19.5 -102t-54 -81.5t-81 -54.5t-100.5 -20z" />
    <glyph glyph-name="q" unicode="q" horiz-adv-x="578" 
d="M489 -174v273q-31 -47 -84 -76.5t-125 -29.5q-54 0 -100.5 20t-81 54.5t-54 81.5t-19.5 102q0 54 19.5 101t54 81.5t81 54.5t100.5 20q72 0 125 -29.5t84 -76.5v98h49v-674h-49zM283 461q-45 0 -83.5 -16t-66 -44.5t-43.5 -67t-16 -83.5q0 -44 16 -82.5t43.5 -67
t66 -44.5t83.5 -16q44 0 82.5 16t66.5 44.5t44 66.5t16 83t-16 83.5t-44 67t-66.5 44.5t-82.5 16z" />
    <glyph glyph-name="r" unicode="r" horiz-adv-x="281" 
d="M256 454q-36 0 -66.5 -13t-53 -37t-35 -57.5t-12.5 -74.5v-272h-49v500h49v-93q7 14 21 31.5t34.5 33t48.5 26t63 10.5v-54z" />
    <glyph glyph-name="s" unicode="s" horiz-adv-x="448" 
d="M75 152q7 -54 47 -83.5t112 -29.5q69 0 104.5 26.5t35.5 71.5q0 27 -13 43.5t-34 27t-48.5 16.5t-56.5 11q-33 6 -64.5 13t-57 21.5t-41 38t-15.5 62.5q0 62 47.5 100t128.5 38q84 0 133.5 -40t54.5 -108h-49q-2 19 -11 37.5t-26 33t-42.5 23t-60.5 8.5
q-60 0 -92.5 -24.5t-32.5 -65.5q0 -24 10.5 -39t28.5 -25t41.5 -16t49.5 -11q34 -6 69.5 -13.5t64.5 -21.5t47 -39.5t18 -67.5q0 -64 -49.5 -105.5t-140.5 -41.5t-145 40.5t-63 119.5h50z" />
    <glyph glyph-name="t" unicode="t" horiz-adv-x="307" 
d="M282 500v-44h-139v-304q0 -32 9.5 -52t24 -32t32 -16.5t34.5 -4.5h38v-47h-39q-26 0 -52 7.5t-47 25.5t-34.5 47t-13.5 72v304h-75v44h75v145h48v-145h139z" />
    <glyph glyph-name="u" unicode="u" 
d="M401 0v76q-9 -15 -23 -30t-35 -27t-48 -19.5t-61 -7.5q-44 0 -79.5 14.5t-61 40.5t-39.5 63.5t-14 83.5v306h49v-300q0 -76 39.5 -118.5t110.5 -42.5q74 0 118 46.5t44 128.5v286h49v-500h-49z" />
    <glyph glyph-name="v" unicode="v" horiz-adv-x="474" 
d="M206 0l-191 500h56l168 -445l167 445h53l-191 -500h-62z" />
    <glyph glyph-name="w" unicode="w" horiz-adv-x="749" 
d="M374 434l-149 -434h-62l-143 500h55l121 -439l149 439h62l134 -440l135 440h53l-160 -500h-62z" />
    <glyph glyph-name="x" unicode="x" horiz-adv-x="479" 
d="M464 0h-62l-163 222l-164 -222h-60l191 258l-176 242h62l148 -205l149 205h61l-178 -241z" />
    <glyph glyph-name="y" unicode="y" horiz-adv-x="473" 
d="M275 12q-35 -99 -85.5 -142.5t-128.5 -43.5h-19v47h18q57 0 95 31.5t67 107.5l-207 488h55l180 -424l155 424h53z" />
    <glyph glyph-name="z" unicode="z" horiz-adv-x="471" 
d="M94 44h347v-44h-411v44l332 412h-319v44h382v-44z" />
    <glyph glyph-name="braceleft" unicode="{" horiz-adv-x="265" 
d="M215 643q-63 0 -94 -26t-31 -73q0 -32 9.5 -58t21 -50.5t21 -49.5t9.5 -54q0 -27 -11.5 -44t-25.5 -25q16 -10 26.5 -26.5t10.5 -42.5q0 -29 -9.5 -54t-21 -49.5t-21 -51t-9.5 -57.5q0 -47 31 -73t94 -26h30v-42h-30q-81 0 -128 38.5t-47 104.5q0 33 10.5 61.5t23 54
t23 49.5t10.5 49q0 23 -12.5 34.5t-43.5 11.5h-21v37h21q31 0 43.5 12t12.5 35q0 24 -10.5 48t-23 50t-23 54.5t-10.5 61.5q0 66 47 105t128 39h30v-43h-30z" />
    <glyph glyph-name="bar" unicode="|" horiz-adv-x="132" 
d="M42 -143v828h48v-828h-48z" />
    <glyph glyph-name="braceright" unicode="}" horiz-adv-x="265" 
d="M50 -116q63 0 94 26t31 73q0 31 -9.5 57.5t-21 51t-21 49.5t-9.5 54q0 27 11.5 44t25.5 25q-16 10 -26.5 26.5t-10.5 42.5q0 29 9.5 54t21 49.5t21 50.5t9.5 58q0 47 -31 73t-94 26h-30v42h30q81 0 128 -38.5t47 -104.5q0 -33 -10.5 -61.5t-23 -54t-23 -49.5t-10.5 -49
q0 -23 12.5 -34.5t43.5 -11.5h21v-37h-21q-31 0 -43.5 -12t-12.5 -35q0 -24 10.5 -48t23 -50t23 -54.5t10.5 -61.5q0 -66 -47 -105t-128 -39h-30v43h30z" />
    <glyph glyph-name="asciitilde" unicode="~" horiz-adv-x="440" 
d="M136 333q27 0 49 -7t42 -15t40.5 -15t44.5 -7q18 0 33.5 5.5t28 13t22 16t14.5 14.5v-50q-5 -7 -14.5 -16t-23 -17t-30.5 -13.5t-37 -5.5q-27 0 -49 7t-42 15t-40.5 15t-44.5 7q-18 0 -33.5 -5.5t-28 -13t-22 -16t-14.5 -14.5v50q5 7 14.5 16t23 17t30.5 13.5t37 5.5z
" />
    <glyph glyph-name="nonbreakingspace" unicode="&#xa0;" horiz-adv-x="200" 
 />
    <glyph glyph-name="exclamdown" unicode="&#xa1;" horiz-adv-x="138" 
d="M93 685v-58h-48v58h48zM45 512h48v-512h-48v512z" />
    <glyph glyph-name="cent" unicode="&#xa2;" horiz-adv-x="558" 
d="M325 46q69 4 113 33.5t73 77.5l42 -28q-35 -59 -91 -95t-137 -41v-85h-48v85q-55 4 -101 27.5t-79 61t-51.5 87t-18.5 106.5q0 55 18.5 104t51.5 86t79 60t101 28v91h48v-91q85 -5 139 -41.5t89 -95.5l-42 -28q-29 48 -73 78t-113 34v-454zM277 500q-44 -5 -80.5 -24
t-62 -49t-39.5 -69t-14 -84t14 -84.5t39.5 -69.5t62 -49.5t80.5 -24.5v454z" />
    <glyph glyph-name="sterling" unicode="&#xa3;" horiz-adv-x="558" 
d="M194 106q30 -4 56 -14.5t50.5 -22t49.5 -20t54 -8.5t52.5 9t39.5 20q18 13 33 30v-52q-14 -17 -33 -30q-17 -11 -42 -20.5t-58 -9.5q-36 0 -65 10t-55.5 22.5t-53.5 22.5t-58 10q-29 0 -52 -8.5t-39 -19.5q-18 -12 -33 -28v52q11 12 26 23q13 9 31.5 18t42.5 14v189h-99
v50h99v145q0 42 13.5 79t40 65t65.5 44.5t89 16.5q61 0 106 -24t76 -66l-43 -30q-24 33 -58.5 51t-81.5 18q-36 0 -64.5 -11.5t-48 -32.5t-30 -50t-10.5 -63v-142h182v-50h-182v-187z" />
    <glyph glyph-name="yen" unicode="&#xa5;" horiz-adv-x="488" 
d="M448 355v-48h-174v-89h174v-48h-174v-170h-53v170h-180v48h180v89h-180v48h169l-193 330h61l169 -302l165 302h59l-187 -330h164z" />
    <glyph glyph-name="brokenbar" unicode="&#xa6;" horiz-adv-x="132" 
d="M42 361v324h48v-324h-48zM42 -143v323h48v-323h-48z" />
    <glyph glyph-name="section" unicode="&#xa7;" horiz-adv-x="482" 
d="M79 303q0 -35 24 -52.5t60.5 -27t79.5 -16t81 -18.5q39 10 59 33t20 55q0 34 -24 52t-60.5 27.5t-79.5 16t-81 18.5q-39 -10 -59 -33t-20 -55zM380 495q-4 37 -38 66t-104 29q-60 0 -93.5 -22.5t-33.5 -61.5q0 -26 14.5 -41.5t38.5 -25.5t55 -15.5t62.5 -11.5t62.5 -14.5
t55 -23t38.5 -37.5t14.5 -58q0 -39 -21.5 -67t-61.5 -43q24 -14 38.5 -36.5t14.5 -57.5q0 -58 -48.5 -94t-130.5 -36q-85 0 -135.5 38t-55.5 102h50q2 -18 11 -35.5t26.5 -30.5t43.5 -21t61 -8q60 0 93.5 22.5t33.5 61.5q0 26 -14.5 41.5t-38.5 25.5t-55 15.5t-62.5 11.5
t-62.5 14.5t-55 23t-38.5 37.5t-14.5 58q0 39 21.5 67t61.5 43q-24 14 -38.5 36.5t-14.5 57.5q0 58 48.5 94t130.5 36q85 0 135.5 -38t55.5 -102h-50z" />
    <glyph glyph-name="dieresis" unicode="&#xa8;" horiz-adv-x="400" 
d="M105 633v52h48v-52h-48zM247 633v52h48v-52h-48z" />
    <glyph glyph-name="copyright" unicode="&#xa9;" horiz-adv-x="627" 
d="M314 694q63 0 116.5 -22.5t92.5 -61.5t61.5 -92.5t22.5 -116.5t-22.5 -116.5t-61.5 -92.5t-92.5 -61t-116.5 -22t-116.5 22t-93 61t-62 92.5t-22.5 116.5t22.5 116.5t62 92.5t93 61.5t116.5 22.5zM314 659q-55 0 -102 -19.5t-81.5 -54t-54 -82t-19.5 -102.5t19.5 -102
t54 -81.5t81.5 -54t102 -19.5t102 19.5t81 54t53.5 81.5t19.5 102t-19.5 102.5t-53.5 82t-81 54t-102 19.5zM452 319q-47 -72 -134 -72q-34 0 -62.5 12t-49.5 32.5t-32.5 48.5t-11.5 61t11.5 61.5t32.5 49t49.5 32.5t62.5 12q87 0 134 -72l-37 -24q-15 25 -40.5 39.5
t-56.5 14.5q-50 0 -80.5 -31.5t-30.5 -81.5q0 -49 30.5 -80.5t80.5 -31.5q31 0 56 14.5t40 38.5z" />
    <glyph glyph-name="ordfeminine" unicode="&#xaa;" horiz-adv-x="398" 
d="M199 647q-26 0 -48 -9.5t-38.5 -26t-25.5 -39t-9 -49.5t9 -49t25.5 -38.5t38.5 -25.5t48 -9q54 0 88.5 34t34.5 88q0 27 -9 49.5t-25.5 39t-39 26t-49.5 9.5zM319 408q-22 -24 -52 -38t-68 -14q-36 0 -66.5 13t-53.5 35.5t-36 53t-13 65.5q0 36 13 66.5t36 53t53.5 35.5
t66.5 13q38 0 68 -14t52 -38v46h49v-323h-49v46z" />
    <glyph glyph-name="guillemotleft" unicode="&#xab;" horiz-adv-x="383" 
d="M214 82h-51l-123 204l123 204h51l-123 -204zM343 82h-51l-123 204l123 204h51l-123 -204z" />
    <glyph glyph-name="registered" unicode="&#xae;" horiz-adv-x="627" 
d="M314 694q63 0 116.5 -22.5t92.5 -61.5t61.5 -92.5t22.5 -116.5t-22.5 -116.5t-61.5 -92.5t-92.5 -61t-116.5 -22t-116.5 22t-93 61t-62 92.5t-22.5 116.5t22.5 116.5t62 92.5t93 61.5t116.5 22.5zM314 659q-55 0 -102 -19.5t-81.5 -54t-54 -82t-19.5 -102.5t19.5 -102
t54 -81.5t81.5 -54t102 -19.5t102 19.5t81 54t53.5 81.5t19.5 102t-19.5 102.5t-53.5 82t-81 54t-102 19.5zM401 494q-55 0 -78.5 -25t-23.5 -77v-152h-43v300h43v-46q12 17 36.5 32.5t65.5 16.5v-49z" />
    <glyph glyph-name="macron" unicode="&#xaf;" horiz-adv-x="400" 
d="M74 617v44h252v-44h-252z" />
    <glyph glyph-name="degree" unicode="&#xb0;" horiz-adv-x="362" 
d="M181 691q29 0 55 -11t45 -30t30 -45t11 -55t-11 -55t-30 -45t-45 -30t-55 -11t-55 11t-45 30t-30 45t-11 55t11 55t30 45t45 30t55 11zM181 646q-19 0 -36 -7.5t-29.5 -20t-20 -30t-7.5 -38.5t7.5 -38.5t20 -30t29.5 -20t36 -7.5t36 7.5t29.5 20t20 30t7.5 38.5
t-7.5 38.5t-20 30t-29.5 20t-36 7.5z" />
    <glyph glyph-name="plusminus" unicode="&#xb1;" horiz-adv-x="440" 
d="M410 380v-46h-168v-173h-48v173h-164v46h164v167h48v-167h168zM30 0v46h380v-46h-380z" />
    <glyph glyph-name="twosuperior" unicode="&#xb2;" horiz-adv-x="311" 
d="M20 609q23 37 56 58.5t84 21.5q28 0 52 -8.5t40.5 -23.5t26 -35.5t9.5 -43.5q0 -42 -22.5 -70.5t-53.5 -54.5l-118 -100h197v-41h-266v36l157 135q26 22 41.5 42.5t15.5 52.5q0 29 -21.5 49t-57.5 20q-38 0 -60.5 -15.5t-39.5 -43.5z" />
    <glyph glyph-name="threesuperior" unicode="&#xb3;" horiz-adv-x="322" 
d="M183 558q55 -6 87 -38t32 -83q0 -56 -38.5 -92.5t-102.5 -36.5q-50 0 -84 22t-57 59l38 22q18 -28 41.5 -44t61.5 -16q45 0 70 24t25 61q0 39 -24 60t-69 21q-17 0 -32 -6t-25 -12l-22 29l132 117h-172v41h242v-36z" />
    <glyph glyph-name="acute" unicode="&#xb4;" horiz-adv-x="400" 
d="M109 590v45l192 64v-50z" />
    <glyph glyph-name="paragraph" unicode="&#xb6;" horiz-adv-x="426" 
d="M244 0v247q-47 0 -88 16t-71 45t-47.5 69.5t-17.5 89.5q0 47 17.5 87t47.5 69t71 45.5t88 16.5h46v-685h-46zM347 0v685h44v-685h-44z" />
    <glyph glyph-name="periodcentered" unicode="&#xb7;" horiz-adv-x="130" 
d="M40 256v58h50v-58h-50z" />
    <glyph glyph-name="cedilla" unicode="&#xb8;" horiz-adv-x="400" 
d="M196 -48q36 0 60.5 -22t24.5 -57t-24.5 -58.5t-60.5 -23.5q-37 0 -61.5 20t-28.5 58h45q3 -20 15 -28.5t30 -8.5q19 0 31 11.5t12 29.5q0 17 -12.5 28t-33.5 11h-66l53 97h47z" />
    <glyph glyph-name="onesuperior" unicode="&#xb9;" horiz-adv-x="131" 
d="M66 312v332h-46v41h91v-373h-45z" />
    <glyph glyph-name="ordmasculine" unicode="&#xba;" horiz-adv-x="400" 
d="M199 691q36 0 67.5 -13t54.5 -35.5t36 -53t13 -66.5q0 -35 -13 -65.5t-36 -53t-54.5 -35.5t-67.5 -13t-66.5 13t-53.5 35.5t-36 53t-13 65.5q0 36 13 66.5t36 53t53.5 35.5t66.5 13zM199 646q-26 0 -48 -9.5t-38 -26t-25 -39t-9 -48.5t9 -48t25 -38.5t38 -25.5t48 -9
q27 0 49 9t38.5 25.5t25.5 38.5t9 48q0 53 -34 88t-88 35z" />
    <glyph glyph-name="guillemotright" unicode="&#xbb;" horiz-adv-x="383" 
d="M40 490h51l123 -204l-123 -204h-51l123 204zM169 490h51l123 -204l-123 -204h-51l123 204z" />
    <glyph glyph-name="onequarter" unicode="&#xbc;" horiz-adv-x="599" 
d="M66 312v332h-46v41h91v-373h-45zM579 126v-42h-51v-84h-45v84h-188v36l191 255h42v-249h51zM483 126v173l-131 -173h131zM74 0l303 685h53l-303 -685h-53z" />
    <glyph glyph-name="onehalf" unicode="&#xbd;" horiz-adv-x="636" 
d="M66 312v332h-46v41h91v-373h-45zM345 297q23 37 56 58.5t84 21.5q28 0 52 -8.5t40.5 -23.5t26 -35.5t9.5 -43.5q0 -42 -22.5 -70.5t-53.5 -54.5l-118 -100h197v-41h-266v36l157 135q26 22 41.5 42.5t15.5 52.5q0 29 -21.5 49t-57.5 20q-38 0 -60.5 -15.5t-39.5 -43.5z
M74 0l303 685h53l-303 -685h-53z" />
    <glyph glyph-name="threequarters" unicode="&#xbe;" horiz-adv-x="744" 
d="M183 558q55 -6 87 -38t32 -83q0 -56 -38.5 -92.5t-102.5 -36.5q-50 0 -84 22t-57 59l38 22q18 -28 41.5 -44t61.5 -16q45 0 70 24t25 61q0 39 -24 60t-69 21q-17 0 -32 -6t-25 -12l-22 29l132 117h-172v41h242v-36zM724 126v-42h-51v-84h-45v84h-188v36l191 255h42v-249
h51zM628 126v173l-131 -173h131zM219 0l303 685h53l-303 -685h-53z" />
    <glyph glyph-name="questiondown" unicode="&#xbf;" horiz-adv-x="443" 
d="M272 685v-58h-48v58h48zM438 173q-5 -38 -21.5 -71t-44 -57t-65 -38t-83.5 -14q-47 0 -84.5 14.5t-64 41t-41 62.5t-14.5 79q0 50 17.5 86.5t46.5 61.5t65.5 38.5t74.5 16.5v119h48v-161q-44 0 -81 -9t-64.5 -28.5t-43 -50t-15.5 -73.5q0 -67 42 -109t114 -42t112 38.5
t50 95.5h52z" />
    <glyph glyph-name="Agrave" unicode="&#xc0;" horiz-adv-x="616" 
d="M307 616l-152 -385h303zM478 181h-343l-71 -181h-54l271 685h53l272 -685h-57zM402 775l-192 59v50l192 -64v-45z" />
    <glyph glyph-name="Aacute" unicode="&#xc1;" horiz-adv-x="616" 
d="M307 616l-152 -385h303zM478 181h-343l-71 -181h-54l271 685h53l272 -685h-57zM209 775v45l192 64v-50z" />
    <glyph glyph-name="Acircumflex" unicode="&#xc2;" horiz-adv-x="616" 
d="M307 616l-152 -385h303zM478 181h-343l-71 -181h-54l271 685h53l272 -685h-57zM434 750l-126 77l-126 -77v50l126 80l126 -80v-50z" />
    <glyph glyph-name="Atilde" unicode="&#xc3;" horiz-adv-x="616" 
d="M307 616l-152 -385h303zM478 181h-343l-71 -181h-54l271 685h53l272 -685h-57zM246 849q20 0 36.5 -6t31.5 -12.5t30 -12.5t32 -6q21 0 39.5 10.5t32.5 27.5v-42q-11 -15 -30.5 -29.5t-47.5 -14.5q-20 0 -36.5 6t-31.5 13t-30 13t-32 6q-21 0 -39.5 -10.5t-32.5 -27.5v42
q11 15 30.5 29t47.5 14z" />
    <glyph glyph-name="Adieresis" unicode="&#xc4;" horiz-adv-x="616" 
d="M307 616l-152 -385h303zM478 181h-343l-71 -181h-54l271 685h53l272 -685h-57zM213 818v52h48v-52h-48zM355 818v52h48v-52h-48z" />
    <glyph glyph-name="Aring" unicode="&#xc5;" horiz-adv-x="616" 
d="M307 616l-152 -385h303zM478 181h-343l-71 -181h-54l271 685h53l272 -685h-57zM307 915q38 0 62.5 -24.5t24.5 -60.5t-24.5 -61t-62.5 -25t-62.5 25t-24.5 61t24.5 60.5t62.5 24.5zM307 879q-22 0 -35.5 -14t-13.5 -35t13.5 -35.5t35.5 -14.5t35.5 14.5t13.5 35.5
t-13.5 35t-35.5 14z" />
    <glyph glyph-name="AE" unicode="&#xc6;" horiz-adv-x="839" 
d="M307 616l-152 -385h303zM478 181h-343l-71 -181h-54l271 685h521v-49h-449l106 -265h318v-49h-299l109 -273h235v-49h-273z" />
    <glyph glyph-name="Ccedilla" unicode="&#xc7;" horiz-adv-x="708" 
d="M386 -209q-37 0 -61.5 20t-28.5 58h45q3 -20 15 -28.5t30 -8.5q19 0 31 11.5t12 29.5q0 17 -12.5 28t-33.5 11h-66l44 81q-69 4 -129.5 32t-105 74t-70.5 108.5t-26 135.5q0 76 28 140.5t76 111t112.5 72.5t137.5 26q105 0 179 -45.5t119 -123.5l-43 -28
q-41 69 -104 107.5t-151 38.5q-63 0 -118 -22.5t-95.5 -62.5t-64 -95t-23.5 -119q0 -65 23.5 -120t64 -95t95.5 -63t118 -23q91 0 152.5 38.5t102.5 106.5l41 -27q-43 -73 -110 -117.5t-162 -49.5l-22 -41q36 0 60.5 -22t24.5 -57t-24.5 -58.5t-60.5 -23.5z" />
    <glyph glyph-name="Egrave" unicode="&#xc8;" horiz-adv-x="498" 
d="M50 685h411v-49h-358v-265h333v-49h-333v-273h378v-49h-431v685zM361 775l-192 59v50l192 -64v-45z" />
    <glyph glyph-name="Eacute" unicode="&#xc9;" horiz-adv-x="498" 
d="M50 685h411v-49h-358v-265h333v-49h-333v-273h378v-49h-431v685zM168 775v45l192 64v-50z" />
    <glyph glyph-name="Ecircumflex" unicode="&#xca;" horiz-adv-x="498" 
d="M50 685h411v-49h-358v-265h333v-49h-333v-273h378v-49h-431v685zM393 750l-126 77l-126 -77v50l126 80l126 -80v-50z" />
    <glyph glyph-name="Edieresis" unicode="&#xcb;" horiz-adv-x="498" 
d="M50 685h411v-49h-358v-265h333v-49h-333v-273h378v-49h-431v685zM172 818v52h48v-52h-48zM314 818v52h48v-52h-48z" />
    <glyph glyph-name="Igrave" unicode="&#xcc;" horiz-adv-x="153" 
d="M50 0v685h53v-685h-53zM172 775l-192 59v50l192 -64v-45z" />
    <glyph glyph-name="Iacute" unicode="&#xcd;" horiz-adv-x="153" 
d="M50 0v685h53v-685h-53zM-21 775v45l192 64v-50z" />
    <glyph glyph-name="Icircumflex" unicode="&#xce;" horiz-adv-x="153" 
d="M50 0v685h53v-685h-53zM204 750l-126 77l-126 -77v50l126 80l126 -80v-50z" />
    <glyph glyph-name="Idieresis" unicode="&#xcf;" horiz-adv-x="153" 
d="M50 0v685h53v-685h-53zM-17 818v52h48v-52h-48zM125 818v52h48v-52h-48z" />
    <glyph glyph-name="Eth" unicode="&#xd0;" horiz-adv-x="648" 
d="M60 0v313h-55v46h55v326h211q72 0 135 -25.5t110 -71t74.5 -108.5t27.5 -137t-27.5 -137t-74.5 -109t-110 -71.5t-135 -25.5h-211zM269 49q62 0 116 22t94 61.5t63 93.5t23 117t-23 117t-63 93t-94 61t-116 22h-156v-277h171v-46h-171v-264h156z" />
    <glyph glyph-name="Ntilde" unicode="&#xd1;" horiz-adv-x="601" 
d="M101 603v-603h-51v685h56l394 -603v603h51v-685h-56zM240 849q20 0 36.5 -6t31.5 -12.5t30 -12.5t32 -6q21 0 39.5 10.5t32.5 27.5v-42q-11 -15 -30.5 -29.5t-47.5 -14.5q-20 0 -36.5 6t-31.5 13t-30 13t-32 6q-21 0 -39.5 -10.5t-32.5 -27.5v42q11 15 30.5 29t47.5 14z
" />
    <glyph glyph-name="Ograve" unicode="&#xd2;" horiz-adv-x="758" 
d="M379 -8q-72 0 -135.5 26.5t-111 73t-75 111t-27.5 140.5t27.5 140.5t75 111t111 72.5t135.5 26t135.5 -26t111 -72.5t75 -111t27.5 -140.5t-27.5 -140.5t-75 -111t-111 -73t-135.5 -26.5zM379 42q62 0 116 23t94 63t63 95t23 120q0 64 -23 119t-63 95t-94 62.5t-116 22.5
t-116 -22.5t-94 -62.5t-63 -95t-23 -119q0 -65 23 -120t63 -95t94 -63t116 -23zM473 775l-192 59v50l192 -64v-45z" />
    <glyph glyph-name="Oacute" unicode="&#xd3;" horiz-adv-x="758" 
d="M379 -8q-72 0 -135.5 26.5t-111 73t-75 111t-27.5 140.5t27.5 140.5t75 111t111 72.5t135.5 26t135.5 -26t111 -72.5t75 -111t27.5 -140.5t-27.5 -140.5t-75 -111t-111 -73t-135.5 -26.5zM379 42q62 0 116 23t94 63t63 95t23 120q0 64 -23 119t-63 95t-94 62.5t-116 22.5
t-116 -22.5t-94 -62.5t-63 -95t-23 -119q0 -65 23 -120t63 -95t94 -63t116 -23zM280 775v45l192 64v-50z" />
    <glyph glyph-name="Ocircumflex" unicode="&#xd4;" horiz-adv-x="758" 
d="M379 -8q-72 0 -135.5 26.5t-111 73t-75 111t-27.5 140.5t27.5 140.5t75 111t111 72.5t135.5 26t135.5 -26t111 -72.5t75 -111t27.5 -140.5t-27.5 -140.5t-75 -111t-111 -73t-135.5 -26.5zM379 42q62 0 116 23t94 63t63 95t23 120q0 64 -23 119t-63 95t-94 62.5t-116 22.5
t-116 -22.5t-94 -62.5t-63 -95t-23 -119q0 -65 23 -120t63 -95t94 -63t116 -23zM505 750l-126 77l-126 -77v50l126 80l126 -80v-50z" />
    <glyph glyph-name="Otilde" unicode="&#xd5;" horiz-adv-x="758" 
d="M379 -8q-72 0 -135.5 26.5t-111 73t-75 111t-27.5 140.5t27.5 140.5t75 111t111 72.5t135.5 26t135.5 -26t111 -72.5t75 -111t27.5 -140.5t-27.5 -140.5t-75 -111t-111 -73t-135.5 -26.5zM379 42q62 0 116 23t94 63t63 95t23 120q0 64 -23 119t-63 95t-94 62.5t-116 22.5
t-116 -22.5t-94 -62.5t-63 -95t-23 -119q0 -65 23 -120t63 -95t94 -63t116 -23zM317 849q20 0 36.5 -6t31.5 -12.5t30 -12.5t32 -6q21 0 39.5 10.5t32.5 27.5v-42q-11 -15 -30.5 -29.5t-47.5 -14.5q-20 0 -36.5 6t-31.5 13t-30 13t-32 6q-21 0 -39.5 -10.5t-32.5 -27.5v42
q11 15 30.5 29t47.5 14z" />
    <glyph glyph-name="Odieresis" unicode="&#xd6;" horiz-adv-x="758" 
d="M379 -8q-72 0 -135.5 26.5t-111 73t-75 111t-27.5 140.5t27.5 140.5t75 111t111 72.5t135.5 26t135.5 -26t111 -72.5t75 -111t27.5 -140.5t-27.5 -140.5t-75 -111t-111 -73t-135.5 -26.5zM379 42q62 0 116 23t94 63t63 95t23 120q0 64 -23 119t-63 95t-94 62.5t-116 22.5
t-116 -22.5t-94 -62.5t-63 -95t-23 -119q0 -65 23 -120t63 -95t94 -63t116 -23zM284 818v52h48v-52h-48zM426 818v52h48v-52h-48z" />
    <glyph glyph-name="multiply" unicode="&#xd7;" horiz-adv-x="440" 
d="M253 286l134 -136l-31 -33l-135 136l-136 -136l-32 32l136 137l-135 135l31 33l136 -136l133 136l33 -32z" />
    <glyph glyph-name="Oslash" unicode="&#xd8;" horiz-adv-x="758" 
d="M83 343q0 -76 31 -138t84 -103l336 498q-34 20 -73 31t-82 11q-62 0 -116 -22.5t-94 -62.5t-63 -95t-23 -119zM379 42q62 0 116 23t94 63t63 95t23 120q0 70 -26.5 127.5t-72.5 98.5l-334 -495q31 -15 65 -23.5t72 -8.5zM379 -8q-90 0 -165 40l-49 -72h-63l67 100
q-63 47 -101 119.5t-38 163.5q0 76 27.5 140.5t75 111t111 72.5t135.5 26q51 0 97 -13t86 -37l55 81h64l-75 -112q56 -47 89 -115.5t33 -153.5q0 -76 -27.5 -140.5t-75 -111t-111 -73t-135.5 -26.5z" />
    <glyph glyph-name="Ugrave" unicode="&#xd9;" horiz-adv-x="628" 
d="M314 -10q-60 0 -108.5 19t-83 55t-53 86.5t-18.5 113.5v421h53v-416q0 -109 55 -169t155 -60t155 60t55 169v416h53v-421q0 -63 -18.5 -113.5t-53 -86.5t-83 -55t-108.5 -19zM408 775l-192 59v50l192 -64v-45z" />
    <glyph glyph-name="Uacute" unicode="&#xda;" horiz-adv-x="628" 
d="M314 -10q-60 0 -108.5 19t-83 55t-53 86.5t-18.5 113.5v421h53v-416q0 -109 55 -169t155 -60t155 60t55 169v416h53v-421q0 -63 -18.5 -113.5t-53 -86.5t-83 -55t-108.5 -19zM215 775v45l192 64v-50z" />
    <glyph glyph-name="Ucircumflex" unicode="&#xdb;" horiz-adv-x="628" 
d="M314 -10q-60 0 -108.5 19t-83 55t-53 86.5t-18.5 113.5v421h53v-416q0 -109 55 -169t155 -60t155 60t55 169v416h53v-421q0 -63 -18.5 -113.5t-53 -86.5t-83 -55t-108.5 -19zM440 750l-126 77l-126 -77v50l126 80l126 -80v-50z" />
    <glyph glyph-name="Udieresis" unicode="&#xdc;" horiz-adv-x="628" 
d="M314 -10q-60 0 -108.5 19t-83 55t-53 86.5t-18.5 113.5v421h53v-416q0 -109 55 -169t155 -60t155 60t55 169v416h53v-421q0 -63 -18.5 -113.5t-53 -86.5t-83 -55t-108.5 -19zM219 818v52h48v-52h-48zM361 818v52h48v-52h-48z" />
    <glyph glyph-name="Yacute" unicode="&#xdd;" horiz-adv-x="583" 
d="M265 0v305l-245 380h63l209 -332l209 332h62l-245 -378v-307h-53zM193 775v45l192 64v-50z" />
    <glyph glyph-name="Thorn" unicode="&#xde;" horiz-adv-x="565" 
d="M103 119v-119h-53v685h53v-121h183q52 0 95.5 -17.5t74.5 -47.5t48 -70.5t17 -86.5q0 -48 -17 -89t-48.5 -70.5t-77.5 -46.5t-103 -17h-172zM103 515v-347h178q44 0 78.5 13.5t58.5 37t37 55.5t13 69q0 36 -13 67t-37.5 54.5t-61.5 37t-85 13.5h-168z" />
    <glyph glyph-name="germandbls" unicode="&#xdf;" horiz-adv-x="463" 
d="M40 501q0 39 14 73t38 58.5t57 38.5t71 14t70 -12.5t55.5 -35t37 -54t13.5 -69.5q0 -51 -26 -90t-61 -59q25 -9 48.5 -24.5t41.5 -37t28.5 -50t10.5 -62.5q0 -42 -15.5 -77t-43 -60.5t-64.5 -39.5t-80 -14h-54v44h54q33 0 61 10.5t49 30t32.5 46.5t11.5 60t-11.5 59.5
t-32.5 45.5t-49 29t-61 10h-54v45h36q27 0 51 11t42 29.5t28.5 42.5t10.5 51q0 28 -10 51.5t-27.5 40t-41 25.5t-50.5 9t-51 -10t-42 -28.5t-28.5 -44t-10.5 -56.5v-501h-48v501z" />
    <glyph glyph-name="agrave" unicode="&#xe0;" horiz-adv-x="578" 
d="M283 461q-45 0 -83.5 -16t-66 -44.5t-43.5 -67t-16 -83.5q0 -44 16 -82.5t43.5 -67t66 -44.5t83.5 -16q44 0 82.5 16t66.5 44.5t44 66.5t16 83t-16 83.5t-44 67t-66.5 44.5t-82.5 16zM489 99q-31 -47 -84 -76.5t-125 -29.5q-54 0 -100.5 20t-81 54.5t-54 81.5t-19.5 102
q0 54 19.5 101t54 81.5t81 54.5t100.5 20q72 0 124.5 -29t84.5 -74v95h49v-500h-49v99zM383 590l-192 59v50l192 -64v-45z" />
    <glyph glyph-name="aacute" unicode="&#xe1;" horiz-adv-x="578" 
d="M283 461q-45 0 -83.5 -16t-66 -44.5t-43.5 -67t-16 -83.5q0 -44 16 -82.5t43.5 -67t66 -44.5t83.5 -16q44 0 82.5 16t66.5 44.5t44 66.5t16 83t-16 83.5t-44 67t-66.5 44.5t-82.5 16zM489 99q-31 -47 -84 -76.5t-125 -29.5q-54 0 -100.5 20t-81 54.5t-54 81.5t-19.5 102
q0 54 19.5 101t54 81.5t81 54.5t100.5 20q72 0 124.5 -29t84.5 -74v95h49v-500h-49v99zM190 590v45l192 64v-50z" />
    <glyph glyph-name="acircumflex" unicode="&#xe2;" horiz-adv-x="578" 
d="M283 461q-45 0 -83.5 -16t-66 -44.5t-43.5 -67t-16 -83.5q0 -44 16 -82.5t43.5 -67t66 -44.5t83.5 -16q44 0 82.5 16t66.5 44.5t44 66.5t16 83t-16 83.5t-44 67t-66.5 44.5t-82.5 16zM489 99q-31 -47 -84 -76.5t-125 -29.5q-54 0 -100.5 20t-81 54.5t-54 81.5t-19.5 102
q0 54 19.5 101t54 81.5t81 54.5t100.5 20q72 0 124.5 -29t84.5 -74v95h49v-500h-49v99zM415 565l-126 77l-126 -77v50l126 80l126 -80v-50z" />
    <glyph glyph-name="atilde" unicode="&#xe3;" horiz-adv-x="578" 
d="M283 461q-45 0 -83.5 -16t-66 -44.5t-43.5 -67t-16 -83.5q0 -44 16 -82.5t43.5 -67t66 -44.5t83.5 -16q44 0 82.5 16t66.5 44.5t44 66.5t16 83t-16 83.5t-44 67t-66.5 44.5t-82.5 16zM489 99q-31 -47 -84 -76.5t-125 -29.5q-54 0 -100.5 20t-81 54.5t-54 81.5t-19.5 102
q0 54 19.5 101t54 81.5t81 54.5t100.5 20q72 0 124.5 -29t84.5 -74v95h49v-500h-49v99zM227 664q20 0 36.5 -6t31.5 -12.5t30 -12.5t32 -6q21 0 39.5 10.5t32.5 27.5v-42q-11 -15 -30.5 -29.5t-47.5 -14.5q-20 0 -36.5 6t-31.5 13t-30 13t-32 6q-21 0 -39.5 -10.5
t-32.5 -27.5v42q11 15 30.5 29t47.5 14z" />
    <glyph glyph-name="adieresis" unicode="&#xe4;" horiz-adv-x="578" 
d="M283 461q-45 0 -83.5 -16t-66 -44.5t-43.5 -67t-16 -83.5q0 -44 16 -82.5t43.5 -67t66 -44.5t83.5 -16q44 0 82.5 16t66.5 44.5t44 66.5t16 83t-16 83.5t-44 67t-66.5 44.5t-82.5 16zM489 99q-31 -47 -84 -76.5t-125 -29.5q-54 0 -100.5 20t-81 54.5t-54 81.5t-19.5 102
q0 54 19.5 101t54 81.5t81 54.5t100.5 20q72 0 124.5 -29t84.5 -74v95h49v-500h-49v99zM194 633v52h48v-52h-48zM336 633v52h48v-52h-48z" />
    <glyph glyph-name="aring" unicode="&#xe5;" horiz-adv-x="578" 
d="M283 461q-45 0 -83.5 -16t-66 -44.5t-43.5 -67t-16 -83.5q0 -44 16 -82.5t43.5 -67t66 -44.5t83.5 -16q44 0 82.5 16t66.5 44.5t44 66.5t16 83t-16 83.5t-44 67t-66.5 44.5t-82.5 16zM489 99q-31 -47 -84 -76.5t-125 -29.5q-54 0 -100.5 20t-81 54.5t-54 81.5t-19.5 102
q0 54 19.5 101t54 81.5t81 54.5t100.5 20q72 0 124.5 -29t84.5 -74v95h49v-500h-49v99zM288 730q38 0 62.5 -24.5t24.5 -60.5t-24.5 -61t-62.5 -25t-62.5 25t-24.5 61t24.5 60.5t62.5 24.5zM288 694q-22 0 -35.5 -14t-13.5 -35t13.5 -35.5t35.5 -14.5t35.5 14.5t13.5 35.5
t-13.5 35t-35.5 14z" />
    <glyph glyph-name="ae" unicode="&#xe6;" horiz-adv-x="1022" 
d="M538 403q33 48 86.5 76.5t119.5 28.5q56 0 102.5 -20t80 -53t52 -77t18.5 -92q0 -6 -0.5 -12t-0.5 -11q-1 -5 -1 -10h-455q3 -41 19 -76.5t43 -61t64 -40t82 -14.5q74 0 119 27.5t74 75.5l38 -26q-35 -57 -90.5 -91t-140.5 -34q-69 0 -123 28t-87 76v-97h-49v100
q-19 -30 -48 -54q-26 -20 -65 -36.5t-96 -16.5q-54 0 -100.5 20t-81 54.5t-54 81.5t-19.5 102q0 54 19.5 101t54 81.5t81 54.5t100.5 20q57 0 96 -16t65 -36q29 -23 48 -52v96h49v-97zM946 278q-3 38 -19 71.5t-43 58t-62.5 39t-77.5 14.5q-41 0 -76.5 -14t-62 -38.5
t-43.5 -58t-21 -72.5h405zM283 40q44 0 82.5 16t66.5 44.5t44 66.5t16 83t-16 83.5t-44 67t-66.5 44.5t-82.5 16q-45 0 -83.5 -16t-66 -44.5t-43.5 -67t-16 -83.5q0 -44 16 -82.5t43.5 -67t66 -44.5t83.5 -16z" />
    <glyph glyph-name="ccedilla" unicode="&#xe7;" horiz-adv-x="527" 
d="M282 -209q-37 0 -61.5 20t-28.5 58h45q3 -20 15 -28.5t30 -8.5q19 0 31 11.5t12 29.5q0 17 -12.5 28t-33.5 11h-66l45 82q-51 3 -94 24t-74 55.5t-48 80t-17 98.5q0 54 18.5 100.5t52 81t80 54.5t101.5 20q87 0 141.5 -34.5t88.5 -91.5l-38 -26q-29 48 -74 76t-118 28
q-45 0 -82.5 -16t-64.5 -44t-41.5 -66.5t-14.5 -82.5t15 -82.5t42 -67t64.5 -44.5t82.5 -16q73 0 117.5 27.5t73.5 75.5l38 -26q-32 -52 -81 -85t-121 -39l-23 -42q36 0 60.5 -22t24.5 -57t-24.5 -58.5t-60.5 -23.5z" />
    <glyph glyph-name="egrave" unicode="&#xe8;" horiz-adv-x="559" 
d="M516 118q-35 -57 -90.5 -91t-140.5 -34q-57 0 -104.5 20t-82 54.5t-54 81.5t-19.5 102q0 54 19.5 101t54 81.5t81 54.5t101.5 20q56 0 102.5 -20t80 -53t52 -77t18.5 -92q0 -12 -0.5 -20t-1.5 -13h-455q3 -46 20.5 -81.5t46 -60t64.5 -37.5t77 -13q74 0 119 27.5t74 75.5
zM281 461q-38 0 -73 -13t-62.5 -36.5t-46 -57.5t-22.5 -76h406q-4 42 -21.5 76t-44.5 58t-62 36.5t-74 12.5zM374 590l-192 59v50l192 -64v-45z" />
    <glyph glyph-name="eacute" unicode="&#xe9;" horiz-adv-x="559" 
d="M516 118q-35 -57 -90.5 -91t-140.5 -34q-57 0 -104.5 20t-82 54.5t-54 81.5t-19.5 102q0 54 19.5 101t54 81.5t81 54.5t101.5 20q56 0 102.5 -20t80 -53t52 -77t18.5 -92q0 -12 -0.5 -20t-1.5 -13h-455q3 -46 20.5 -81.5t46 -60t64.5 -37.5t77 -13q74 0 119 27.5t74 75.5
zM281 461q-38 0 -73 -13t-62.5 -36.5t-46 -57.5t-22.5 -76h406q-4 42 -21.5 76t-44.5 58t-62 36.5t-74 12.5zM181 590v45l192 64v-50z" />
    <glyph glyph-name="ecircumflex" unicode="&#xea;" horiz-adv-x="559" 
d="M516 118q-35 -57 -90.5 -91t-140.5 -34q-57 0 -104.5 20t-82 54.5t-54 81.5t-19.5 102q0 54 19.5 101t54 81.5t81 54.5t101.5 20q56 0 102.5 -20t80 -53t52 -77t18.5 -92q0 -12 -0.5 -20t-1.5 -13h-455q3 -46 20.5 -81.5t46 -60t64.5 -37.5t77 -13q74 0 119 27.5t74 75.5
zM281 461q-38 0 -73 -13t-62.5 -36.5t-46 -57.5t-22.5 -76h406q-4 42 -21.5 76t-44.5 58t-62 36.5t-74 12.5zM406 565l-126 77l-126 -77v50l126 80l126 -80v-50z" />
    <glyph glyph-name="edieresis" unicode="&#xeb;" horiz-adv-x="559" 
d="M516 118q-35 -57 -90.5 -91t-140.5 -34q-57 0 -104.5 20t-82 54.5t-54 81.5t-19.5 102q0 54 19.5 101t54 81.5t81 54.5t101.5 20q56 0 102.5 -20t80 -53t52 -77t18.5 -92q0 -12 -0.5 -20t-1.5 -13h-455q3 -46 20.5 -81.5t46 -60t64.5 -37.5t77 -13q74 0 119 27.5t74 75.5
zM281 461q-38 0 -73 -13t-62.5 -36.5t-46 -57.5t-22.5 -76h406q-4 42 -21.5 76t-44.5 58t-62 36.5t-74 12.5zM185 633v52h48v-52h-48zM327 633v52h48v-52h-48z" />
    <glyph glyph-name="igrave" unicode="&#xec;" horiz-adv-x="129" 
d="M40 0v500h49v-500h-49zM160 590l-192 59v50l192 -64v-45z" />
    <glyph glyph-name="iacute" unicode="&#xed;" horiz-adv-x="129" 
d="M40 0v500h49v-500h-49zM-33 590v45l192 64v-50z" />
    <glyph glyph-name="icircumflex" unicode="&#xee;" horiz-adv-x="129" 
d="M40 0v500h49v-500h-49zM192 565l-126 77l-126 -77v50l126 80l126 -80v-50z" />
    <glyph glyph-name="idieresis" unicode="&#xef;" horiz-adv-x="129" 
d="M40 0v500h49v-500h-49zM-29 633v52h48v-52h-48zM113 633v52h48v-52h-48z" />
    <glyph glyph-name="eth" unicode="&#xf0;" horiz-adv-x="560" 
d="M494 389q20 -32 30.5 -67t10.5 -74q0 -54 -19.5 -100.5t-54 -81t-81 -54.5t-100.5 -20t-100.5 20t-81 54.5t-54 81t-19.5 100.5t19.5 100.5t54 81t81 54.5t100.5 20q23 0 42.5 -3.5t33.5 -8.5q16 -5 28 -12l-57 93l-106 -24v43l83 19l-46 74h54l39 -63l119 27v-43
l-96 -22zM280 38q43 0 81 16t66 44.5t44 67t16 82.5t-16.5 82.5t-44.5 67t-65.5 44.5t-80.5 16q-44 0 -81.5 -16t-65.5 -44.5t-44 -67t-16 -82.5t16 -82.5t44 -67t65.5 -44.5t81.5 -16z" />
    <glyph glyph-name="ntilde" unicode="&#xf1;" 
d="M256 508q44 0 79.5 -14.5t61 -40.5t39.5 -63.5t14 -83.5v-306h-49v300q0 76 -39.5 118.5t-110.5 42.5q-74 0 -118 -46.5t-44 -128.5v-286h-49v500h49v-76q22 34 62 59t105 25zM183 664q20 0 36.5 -6t31.5 -12.5t30 -12.5t32 -6q21 0 39.5 10.5t32.5 27.5v-42
q-11 -15 -30.5 -29.5t-47.5 -14.5q-20 0 -36.5 6t-31.5 13t-30 13t-32 6q-21 0 -39.5 -10.5t-32.5 -27.5v42q11 15 30.5 29t47.5 14z" />
    <glyph glyph-name="ograve" unicode="&#xf2;" horiz-adv-x="565" 
d="M283 508q54 0 101 -20t81.5 -54.5t54.5 -81.5t20 -101q0 -55 -20 -102t-54.5 -81.5t-81.5 -54.5t-101 -20q-55 0 -102 20t-81.5 54.5t-54.5 81.5t-20 102q0 54 20 101t54.5 81.5t81.5 54.5t102 20zM283 461q-45 0 -83.5 -16t-66 -44.5t-43.5 -67t-16 -83.5
q0 -44 16 -82.5t43.5 -67t66 -44.5t83.5 -16t83 16t65.5 44.5t43.5 67t16 82.5q0 45 -16 83.5t-43.5 67t-65.5 44.5t-83 16zM377 590l-192 59v50l192 -64v-45z" />
    <glyph glyph-name="oacute" unicode="&#xf3;" horiz-adv-x="565" 
d="M283 508q54 0 101 -20t81.5 -54.5t54.5 -81.5t20 -101q0 -55 -20 -102t-54.5 -81.5t-81.5 -54.5t-101 -20q-55 0 -102 20t-81.5 54.5t-54.5 81.5t-20 102q0 54 20 101t54.5 81.5t81.5 54.5t102 20zM283 461q-45 0 -83.5 -16t-66 -44.5t-43.5 -67t-16 -83.5
q0 -44 16 -82.5t43.5 -67t66 -44.5t83.5 -16t83 16t65.5 44.5t43.5 67t16 82.5q0 45 -16 83.5t-43.5 67t-65.5 44.5t-83 16zM184 590v45l192 64v-50z" />
    <glyph glyph-name="ocircumflex" unicode="&#xf4;" horiz-adv-x="565" 
d="M283 508q54 0 101 -20t81.5 -54.5t54.5 -81.5t20 -101q0 -55 -20 -102t-54.5 -81.5t-81.5 -54.5t-101 -20q-55 0 -102 20t-81.5 54.5t-54.5 81.5t-20 102q0 54 20 101t54.5 81.5t81.5 54.5t102 20zM283 461q-45 0 -83.5 -16t-66 -44.5t-43.5 -67t-16 -83.5
q0 -44 16 -82.5t43.5 -67t66 -44.5t83.5 -16t83 16t65.5 44.5t43.5 67t16 82.5q0 45 -16 83.5t-43.5 67t-65.5 44.5t-83 16zM409 565l-126 77l-126 -77v50l126 80l126 -80v-50z" />
    <glyph glyph-name="otilde" unicode="&#xf5;" horiz-adv-x="565" 
d="M283 508q54 0 101 -20t81.5 -54.5t54.5 -81.5t20 -101q0 -55 -20 -102t-54.5 -81.5t-81.5 -54.5t-101 -20q-55 0 -102 20t-81.5 54.5t-54.5 81.5t-20 102q0 54 20 101t54.5 81.5t81.5 54.5t102 20zM283 461q-45 0 -83.5 -16t-66 -44.5t-43.5 -67t-16 -83.5
q0 -44 16 -82.5t43.5 -67t66 -44.5t83.5 -16t83 16t65.5 44.5t43.5 67t16 82.5q0 45 -16 83.5t-43.5 67t-65.5 44.5t-83 16zM221 664q20 0 36.5 -6t31.5 -12.5t30 -12.5t32 -6q21 0 39.5 10.5t32.5 27.5v-42q-11 -15 -30.5 -29.5t-47.5 -14.5q-20 0 -36.5 6t-31.5 13t-30 13
t-32 6q-21 0 -39.5 -10.5t-32.5 -27.5v42q11 15 30.5 29t47.5 14z" />
    <glyph glyph-name="odieresis" unicode="&#xf6;" horiz-adv-x="565" 
d="M283 508q54 0 101 -20t81.5 -54.5t54.5 -81.5t20 -101q0 -55 -20 -102t-54.5 -81.5t-81.5 -54.5t-101 -20q-55 0 -102 20t-81.5 54.5t-54.5 81.5t-20 102q0 54 20 101t54.5 81.5t81.5 54.5t102 20zM283 461q-45 0 -83.5 -16t-66 -44.5t-43.5 -67t-16 -83.5
q0 -44 16 -82.5t43.5 -67t66 -44.5t83.5 -16t83 16t65.5 44.5t43.5 67t16 82.5q0 45 -16 83.5t-43.5 67t-65.5 44.5t-83 16zM188 633v52h48v-52h-48zM330 633v52h48v-52h-48z" />
    <glyph glyph-name="divide" unicode="&#xf7;" horiz-adv-x="440" 
d="M194 418v58h48v-58h-48zM30 263v46h380v-46h-380zM194 90v58h48v-58h-48z" />
    <glyph glyph-name="oslash" unicode="&#xf8;" horiz-adv-x="565" 
d="M387 434q-23 13 -49 20t-55 7q-45 0 -83.5 -16t-66 -44.5t-43.5 -67t-16 -83.5q0 -51 20.5 -93.5t56.5 -71.5zM191 60q42 -20 92 -20q45 0 83 16t65.5 44.5t43.5 67t16 82.5q0 48 -17.5 88t-48.5 69zM452 447q41 -35 64.5 -85.5t23.5 -110.5q0 -55 -20 -102t-54.5 -81.5
t-81.5 -54.5t-101 -20q-65 0 -119 28l-41 -61h-57l58 86q-46 35 -72.5 88t-26.5 117q0 54 20 101t54.5 81.5t81.5 54.5t102 20q72 0 131 -34l45 67h57z" />
    <glyph glyph-name="ugrave" unicode="&#xf9;" 
d="M401 0v76q-9 -15 -23 -30t-35 -27t-48 -19.5t-61 -7.5q-44 0 -79.5 14.5t-61 40.5t-39.5 63.5t-14 83.5v306h49v-300q0 -76 39.5 -118.5t110.5 -42.5q74 0 118 46.5t44 128.5v286h49v-500h-49zM339 590l-192 59v50l192 -64v-45z" />
    <glyph glyph-name="uacute" unicode="&#xfa;" 
d="M401 0v76q-9 -15 -23 -30t-35 -27t-48 -19.5t-61 -7.5q-44 0 -79.5 14.5t-61 40.5t-39.5 63.5t-14 83.5v306h49v-300q0 -76 39.5 -118.5t110.5 -42.5q74 0 118 46.5t44 128.5v286h49v-500h-49zM146 590v45l192 64v-50z" />
    <glyph glyph-name="ucircumflex" unicode="&#xfb;" 
d="M401 0v76q-9 -15 -23 -30t-35 -27t-48 -19.5t-61 -7.5q-44 0 -79.5 14.5t-61 40.5t-39.5 63.5t-14 83.5v306h49v-300q0 -76 39.5 -118.5t110.5 -42.5q74 0 118 46.5t44 128.5v286h49v-500h-49zM371 565l-126 77l-126 -77v50l126 80l126 -80v-50z" />
    <glyph glyph-name="udieresis" unicode="&#xfc;" 
d="M401 0v76q-9 -15 -23 -30t-35 -27t-48 -19.5t-61 -7.5q-44 0 -79.5 14.5t-61 40.5t-39.5 63.5t-14 83.5v306h49v-300q0 -76 39.5 -118.5t110.5 -42.5q74 0 118 46.5t44 128.5v286h49v-500h-49zM150 633v52h48v-52h-48zM292 633v52h48v-52h-48z" />
    <glyph glyph-name="yacute" unicode="&#xfd;" horiz-adv-x="473" 
d="M275 12q-35 -99 -85.5 -142.5t-128.5 -43.5h-19v47h18q57 0 95 31.5t67 107.5l-207 488h55l180 -424l155 424h53zM145 590v45l192 64v-50z" />
    <glyph glyph-name="thorn" unicode="&#xfe;" horiz-adv-x="578" 
d="M295 461q-44 0 -82.5 -16t-66.5 -44.5t-44 -67t-16 -83.5t16 -83t44 -66.5t66.5 -44.5t82.5 -16q45 0 83.5 16t66 44.5t43.5 67t16 82.5q0 45 -16 83.5t-43.5 67t-66 44.5t-83.5 16zM298 -7q-72 0 -125 29.5t-84 76.5v-273h-49v859h49v-283q31 47 84 76.5t125 29.5
q54 0 100.5 -20t81 -54.5t54 -81.5t19.5 -101q0 -55 -19.5 -102t-54 -81.5t-81 -54.5t-100.5 -20z" />
    <glyph glyph-name="ydieresis" unicode="&#xff;" horiz-adv-x="473" 
d="M275 12q-35 -99 -85.5 -142.5t-128.5 -43.5h-19v47h18q57 0 95 31.5t67 107.5l-207 488h55l180 -424l155 424h53zM149 633v52h48v-52h-48zM291 633v52h48v-52h-48z" />
    <glyph glyph-name="Amacron" unicode="&#x100;" horiz-adv-x="616" 
d="M307 616l-152 -385h303zM478 181h-343l-71 -181h-54l271 685h53l272 -685h-57zM182 802v44h252v-44h-252z" />
    <glyph glyph-name="amacron" unicode="&#x101;" horiz-adv-x="578" 
d="M283 461q-45 0 -83.5 -16t-66 -44.5t-43.5 -67t-16 -83.5q0 -44 16 -82.5t43.5 -67t66 -44.5t83.5 -16q44 0 82.5 16t66.5 44.5t44 66.5t16 83t-16 83.5t-44 67t-66.5 44.5t-82.5 16zM489 99q-31 -47 -84 -76.5t-125 -29.5q-54 0 -100.5 20t-81 54.5t-54 81.5t-19.5 102
q0 54 19.5 101t54 81.5t81 54.5t100.5 20q72 0 124.5 -29t84.5 -74v95h49v-500h-49v99zM163 617v44h252v-44h-252z" />
    <glyph glyph-name="Abreve" unicode="&#x102;" horiz-adv-x="616" 
d="M307 616l-152 -385h303zM478 181h-343l-71 -181h-54l271 685h53l272 -685h-57zM308 810q45 0 78 18.5t55 41.5v-46q-7 -9 -18.5 -19.5t-28 -19.5t-38 -15t-48.5 -6t-48.5 6t-38 15t-28 19.5t-18.5 19.5v46q22 -23 55 -41.5t78 -18.5z" />
    <glyph glyph-name="abreve" unicode="&#x103;" horiz-adv-x="578" 
d="M283 461q-45 0 -83.5 -16t-66 -44.5t-43.5 -67t-16 -83.5q0 -44 16 -82.5t43.5 -67t66 -44.5t83.5 -16q44 0 82.5 16t66.5 44.5t44 66.5t16 83t-16 83.5t-44 67t-66.5 44.5t-82.5 16zM489 99q-31 -47 -84 -76.5t-125 -29.5q-54 0 -100.5 20t-81 54.5t-54 81.5t-19.5 102
q0 54 19.5 101t54 81.5t81 54.5t100.5 20q72 0 124.5 -29t84.5 -74v95h49v-500h-49v99zM289 625q45 0 78 18.5t55 41.5v-46q-7 -9 -18.5 -19.5t-28 -19.5t-38 -15t-48.5 -6t-48.5 6t-38 15t-28 19.5t-18.5 19.5v46q22 -23 55 -41.5t78 -18.5z" />
    <glyph glyph-name="Aogonek" unicode="&#x104;" horiz-adv-x="616" 
d="M307 616l-152 -385h303zM613 -157q-7 -6 -18 -10q-9 -4 -22 -6.5t-30 -2.5q-44 0 -71.5 21t-27.5 59q0 36 23.5 62t55.5 35l23 7l-68 173h-343l-71 -181h-54l271 685h53l272 -685h-31q-39 -14 -59 -38t-20 -52q0 -20 14.5 -31.5t39.5 -11.5q14 0 26 2.5t20 5.5q10 4 17 8
v-40z" />
    <glyph glyph-name="aogonek" unicode="&#x105;" horiz-adv-x="578" 
d="M283 461q-45 0 -83.5 -16t-66 -44.5t-43.5 -67t-16 -83.5q0 -44 16 -82.5t43.5 -67t66 -44.5t83.5 -16q44 0 82.5 16t66.5 44.5t44 66.5t16 83t-16 83.5t-44 67t-66.5 44.5t-82.5 16zM552 -157q-7 -6 -17 -10q-8 -4 -20 -6.5t-28 -2.5q-42 0 -68 21t-26 59q0 39 24 70
t72 45v80q-31 -47 -84 -76.5t-125 -29.5q-54 0 -100.5 20t-81 54.5t-54 81.5t-19.5 102q0 54 19.5 101t54 81.5t81 54.5t100.5 20q72 0 124.5 -29t84.5 -74v95h49v-500h-24q-35 -13 -52 -37.5t-17 -52.5q0 -20 13 -31.5t36 -11.5q13 0 23.5 2.5t18.5 5.5q9 4 16 8v-40z" />
    <glyph glyph-name="Cacute" unicode="&#x106;" horiz-adv-x="708" 
d="M384 642q-63 0 -118 -22.5t-95.5 -62.5t-64 -95t-23.5 -119q0 -65 23.5 -120t64 -95t95.5 -63t118 -23q91 0 152.5 38.5t102.5 106.5l41 -27q-46 -78 -118.5 -123t-177.5 -45q-73 0 -137.5 26.5t-112.5 73t-76 111t-28 140.5t28 140.5t76 111t112.5 72.5t137.5 26
q105 0 179 -45.5t119 -123.5l-43 -28q-41 69 -104 107.5t-151 38.5zM284 775v45l192 64v-50z" />
    <glyph glyph-name="cacute" unicode="&#x107;" horiz-adv-x="527" 
d="M507 118q-35 -57 -91 -91t-139 -34q-55 0 -101.5 20t-80 55t-52 82t-18.5 102q0 54 18.5 100.5t52 81t80 54.5t101.5 20q87 0 141.5 -34.5t88.5 -91.5l-38 -26q-29 48 -74 76t-118 28q-45 0 -82.5 -16t-64.5 -44t-41.5 -66.5t-14.5 -82.5t15 -82.5t42 -67t64.5 -44.5
t82.5 -16q73 0 117.5 27.5t73.5 75.5zM178 590v45l192 64v-50z" />
    <glyph glyph-name="Ccircumflex" unicode="&#x108;" horiz-adv-x="708" 
d="M384 642q-63 0 -118 -22.5t-95.5 -62.5t-64 -95t-23.5 -119q0 -65 23.5 -120t64 -95t95.5 -63t118 -23q91 0 152.5 38.5t102.5 106.5l41 -27q-46 -78 -118.5 -123t-177.5 -45q-73 0 -137.5 26.5t-112.5 73t-76 111t-28 140.5t28 140.5t76 111t112.5 72.5t137.5 26
q105 0 179 -45.5t119 -123.5l-43 -28q-41 69 -104 107.5t-151 38.5zM509 750l-126 77l-126 -77v50l126 80l126 -80v-50z" />
    <glyph glyph-name="ccircumflex" unicode="&#x109;" horiz-adv-x="527" 
d="M507 118q-35 -57 -91 -91t-139 -34q-55 0 -101.5 20t-80 55t-52 82t-18.5 102q0 54 18.5 100.5t52 81t80 54.5t101.5 20q87 0 141.5 -34.5t88.5 -91.5l-38 -26q-29 48 -74 76t-118 28q-45 0 -82.5 -16t-64.5 -44t-41.5 -66.5t-14.5 -82.5t15 -82.5t42 -67t64.5 -44.5
t82.5 -16q73 0 117.5 27.5t73.5 75.5zM403 565l-126 77l-126 -77v50l126 80l126 -80v-50z" />
    <glyph glyph-name="Cdotaccent" unicode="&#x10a;" horiz-adv-x="708" 
d="M384 642q-63 0 -118 -22.5t-95.5 -62.5t-64 -95t-23.5 -119q0 -65 23.5 -120t64 -95t95.5 -63t118 -23q91 0 152.5 38.5t102.5 106.5l41 -27q-46 -78 -118.5 -123t-177.5 -45q-73 0 -137.5 26.5t-112.5 73t-76 111t-28 140.5t28 140.5t76 111t112.5 72.5t137.5 26
q105 0 179 -45.5t119 -123.5l-43 -28q-41 69 -104 107.5t-151 38.5zM359 818v52h48v-52h-48z" />
    <glyph glyph-name="cdotaccent" unicode="&#x10b;" horiz-adv-x="527" 
d="M507 118q-35 -57 -91 -91t-139 -34q-55 0 -101.5 20t-80 55t-52 82t-18.5 102q0 54 18.5 100.5t52 81t80 54.5t101.5 20q87 0 141.5 -34.5t88.5 -91.5l-38 -26q-29 48 -74 76t-118 28q-45 0 -82.5 -16t-64.5 -44t-41.5 -66.5t-14.5 -82.5t15 -82.5t42 -67t64.5 -44.5
t82.5 -16q73 0 117.5 27.5t73.5 75.5zM253 633v52h48v-52h-48z" />
    <glyph glyph-name="Ccaron" unicode="&#x10c;" horiz-adv-x="708" 
d="M384 642q-63 0 -118 -22.5t-95.5 -62.5t-64 -95t-23.5 -119q0 -65 23.5 -120t64 -95t95.5 -63t118 -23q91 0 152.5 38.5t102.5 106.5l41 -27q-46 -78 -118.5 -123t-177.5 -45q-73 0 -137.5 26.5t-112.5 73t-76 111t-28 140.5t28 140.5t76 111t112.5 72.5t137.5 26
q105 0 179 -45.5t119 -123.5l-43 -28q-41 69 -104 107.5t-151 38.5zM383 744l-126 80v50l126 -77l126 77v-50z" />
    <glyph glyph-name="ccaron" unicode="&#x10d;" horiz-adv-x="527" 
d="M507 118q-35 -57 -91 -91t-139 -34q-55 0 -101.5 20t-80 55t-52 82t-18.5 102q0 54 18.5 100.5t52 81t80 54.5t101.5 20q87 0 141.5 -34.5t88.5 -91.5l-38 -26q-29 48 -74 76t-118 28q-45 0 -82.5 -16t-64.5 -44t-41.5 -66.5t-14.5 -82.5t15 -82.5t42 -67t64.5 -44.5
t82.5 -16q73 0 117.5 27.5t73.5 75.5zM277 559l-126 80v50l126 -77l126 77v-50z" />
    <glyph glyph-name="Dcaron" unicode="&#x10e;" horiz-adv-x="638" 
d="M50 685h211q72 0 135 -25.5t110 -71t74.5 -108.5t27.5 -137t-27.5 -137t-74.5 -109t-110 -71.5t-135 -25.5h-211v685zM103 636v-587h156q62 0 116 22t94 61.5t63 93.5t23 117t-23 117t-63 93t-94 61t-116 22h-156zM316 744l-126 80v50l126 -77l126 77v-50z" />
    <glyph glyph-name="dcaron" unicode="&#x10f;" horiz-adv-x="675" 
d="M636 555h-27l17 72h-21v58h50v-54zM283 40q44 0 82.5 16t66.5 44.5t44 67t16 83.5t-16 83t-44 66.5t-66.5 44.5t-82.5 16q-45 0 -83.5 -16t-66 -44.5t-43.5 -67t-16 -82.5q0 -45 16 -83.5t43.5 -67t66 -44.5t83.5 -16zM489 99q-31 -47 -83 -76.5t-126 -29.5
q-54 0 -100.5 20t-81 54.5t-54 81.5t-19.5 101q0 55 19.5 102t54 81.5t81 54.5t100.5 20q72 0 125 -29.5t84 -76.5v283h49v-684h-49v98z" />
    <glyph glyph-name="Dcroat" unicode="&#x110;" horiz-adv-x="648" 
d="M60 0v313h-55v46h55v326h211q72 0 135 -25.5t110 -71t74.5 -108.5t27.5 -137t-27.5 -137t-74.5 -109t-110 -71.5t-135 -25.5h-211zM269 49q62 0 116 22t94 61.5t63 93.5t23 117t-23 117t-63 93t-94 61t-116 22h-156v-277h171v-46h-171v-264h156z" />
    <glyph glyph-name="dcroat" unicode="&#x111;" horiz-adv-x="578" 
d="M283 40q44 0 82.5 16t66.5 44.5t44 66.5t16 83t-16 83.5t-44 67t-66.5 44.5t-82.5 16q-45 0 -83.5 -16t-66 -44.5t-43.5 -67t-16 -83.5q0 -44 16 -82.5t43.5 -67t66 -44.5t83.5 -16zM538 554v-554h-49v100q-19 -30 -48 -54q-26 -20 -65 -36.5t-96 -16.5q-54 0 -100.5 20
t-81 54.5t-54 81.5t-19.5 102q0 54 19.5 101t54 81.5t81 54.5t100.5 20q57 0 96 -17t65 -37q29 -24 48 -53v153h-170v46h170v85h49v-85h53v-46h-53z" />
    <glyph glyph-name="Emacron" unicode="&#x112;" horiz-adv-x="498" 
d="M50 685h411v-49h-358v-265h333v-49h-333v-273h378v-49h-431v685zM141 802v44h252v-44h-252z" />
    <glyph glyph-name="emacron" unicode="&#x113;" horiz-adv-x="559" 
d="M516 118q-35 -57 -90.5 -91t-140.5 -34q-57 0 -104.5 20t-82 54.5t-54 81.5t-19.5 102q0 54 19.5 101t54 81.5t81 54.5t101.5 20q56 0 102.5 -20t80 -53t52 -77t18.5 -92q0 -12 -0.5 -20t-1.5 -13h-455q3 -46 20.5 -81.5t46 -60t64.5 -37.5t77 -13q74 0 119 27.5t74 75.5
zM281 461q-38 0 -73 -13t-62.5 -36.5t-46 -57.5t-22.5 -76h406q-4 42 -21.5 76t-44.5 58t-62 36.5t-74 12.5zM154 617v44h252v-44h-252z" />
    <glyph glyph-name="Ebreve" unicode="&#x114;" horiz-adv-x="498" 
d="M50 685h411v-49h-358v-265h333v-49h-333v-273h378v-49h-431v685zM267 810q45 0 78 18.5t55 41.5v-46q-7 -9 -18.5 -19.5t-28 -19.5t-38 -15t-48.5 -6t-48.5 6t-38 15t-28 19.5t-18.5 19.5v46q22 -23 55 -41.5t78 -18.5z" />
    <glyph glyph-name="ebreve" unicode="&#x115;" horiz-adv-x="559" 
d="M516 118q-35 -57 -90.5 -91t-140.5 -34q-57 0 -104.5 20t-82 54.5t-54 81.5t-19.5 102q0 54 19.5 101t54 81.5t81 54.5t101.5 20q56 0 102.5 -20t80 -53t52 -77t18.5 -92q0 -12 -0.5 -20t-1.5 -13h-455q3 -46 20.5 -81.5t46 -60t64.5 -37.5t77 -13q74 0 119 27.5t74 75.5
zM281 461q-38 0 -73 -13t-62.5 -36.5t-46 -57.5t-22.5 -76h406q-4 42 -21.5 76t-44.5 58t-62 36.5t-74 12.5zM280 625q45 0 78 18.5t55 41.5v-46q-7 -9 -18.5 -19.5t-28 -19.5t-38 -15t-48.5 -6t-48.5 6t-38 15t-28 19.5t-18.5 19.5v46q22 -23 55 -41.5t78 -18.5z" />
    <glyph glyph-name="Edotaccent" unicode="&#x116;" horiz-adv-x="498" 
d="M50 685h411v-49h-358v-265h333v-49h-333v-273h378v-49h-431v685zM243 818v52h48v-52h-48z" />
    <glyph glyph-name="edotaccent" unicode="&#x117;" horiz-adv-x="559" 
d="M516 118q-35 -57 -90.5 -91t-140.5 -34q-57 0 -104.5 20t-82 54.5t-54 81.5t-19.5 102q0 54 19.5 101t54 81.5t81 54.5t101.5 20q56 0 102.5 -20t80 -53t52 -77t18.5 -92q0 -12 -0.5 -20t-1.5 -13h-455q3 -46 20.5 -81.5t46 -60t64.5 -37.5t77 -13q74 0 119 27.5t74 75.5
zM281 461q-38 0 -73 -13t-62.5 -36.5t-46 -57.5t-22.5 -76h406q-4 42 -21.5 76t-44.5 58t-62 36.5t-74 12.5zM256 633v52h48v-52h-48z" />
    <glyph glyph-name="Eogonek" unicode="&#x118;" horiz-adv-x="498" 
d="M480 -157q-7 -6 -18 -10q-9 -4 -22 -6.5t-30 -2.5q-44 0 -71.5 21t-27.5 59q0 18 6.5 33.5t17 28t24 21.5t28.5 13h-337v685h411v-49h-358v-265h333v-49h-333v-273h378v-49h-39q-39 -14 -59 -38t-20 -52q0 -20 14.5 -31.5t39.5 -11.5q14 0 26 2.5t20 5.5q10 4 17 8v-40v0
z" />
    <glyph glyph-name="eogonek" unicode="&#x119;" horiz-adv-x="559" 
d="M323 -176q-44 0 -71.5 21t-27.5 59q0 30 17 53t42 36q-56 0 -103.5 20t-82 55t-53.5 82t-19 101t19.5 101t54 81.5t81 54.5t101.5 20q56 0 102.5 -20t80 -53t52 -77t18.5 -92q0 -6 -0.5 -12t-0.5 -11q-1 -5 -1 -10h-455q3 -46 20.5 -81.5t46 -60t64.5 -37.5t77 -13
q74 0 119 27.5t74 75.5l38 -26q-27 -45 -66 -75.5t-95 -42.5q-39 -14 -59 -38t-20 -52q0 -20 14.5 -31.5t39.5 -11.5q14 0 26 2.5t20 5.5q10 4 17 8v-40q-7 -6 -18 -10q-9 -4 -22 -6.5t-30 -2.5zM281 461q-38 0 -73 -13t-62.5 -36.5t-46 -57.5t-22.5 -76h406q-4 42 -21.5 76
t-44.5 58t-62 36.5t-74 12.5z" />
    <glyph glyph-name="Ecaron" unicode="&#x11a;" horiz-adv-x="498" 
d="M50 685h411v-49h-358v-265h333v-49h-333v-273h378v-49h-431v685zM267 744l-126 80v50l126 -77l126 77v-50z" />
    <glyph glyph-name="ecaron" unicode="&#x11b;" horiz-adv-x="559" 
d="M516 118q-35 -57 -90.5 -91t-140.5 -34q-57 0 -104.5 20t-82 54.5t-54 81.5t-19.5 102q0 54 19.5 101t54 81.5t81 54.5t101.5 20q56 0 102.5 -20t80 -53t52 -77t18.5 -92q0 -12 -0.5 -20t-1.5 -13h-455q3 -46 20.5 -81.5t46 -60t64.5 -37.5t77 -13q74 0 119 27.5t74 75.5
zM281 461q-38 0 -73 -13t-62.5 -36.5t-46 -57.5t-22.5 -76h406q-4 42 -21.5 76t-44.5 58t-62 36.5t-74 12.5zM280 559l-126 80v50l126 -77l126 77v-50z" />
    <glyph glyph-name="Gcircumflex" unicode="&#x11c;" horiz-adv-x="737" 
d="M708 313q0 -62 -22.5 -119.5t-64.5 -102.5t-101.5 -72t-132.5 -27q-77 0 -142 26.5t-113 73t-75 111t-27 140.5t28 140.5t76 111t112.5 73t137.5 26.5q86 0 154 -31t116 -89l-39 -33q-42 50 -101 75.5t-130 25.5q-63 0 -118 -22.5t-95.5 -62.5t-64 -95t-23.5 -119
q0 -65 22.5 -120t63 -95t96 -63t122.5 -23q57 0 105.5 20t83.5 54.5t56 80.5t24 98h-260v49h312v-31v0zM507 750l-126 77l-126 -77v50l126 80l126 -80v-50z" />
    <glyph glyph-name="gcircumflex" unicode="&#x11d;" horiz-adv-x="572" 
d="M280 461q-44 0 -82 -16t-65.5 -43.5t-43 -65.5t-15.5 -81t15.5 -80.5t43 -65t65.5 -43.5t82 -16q43 0 81 15.5t65.5 42.5t43.5 64.5t16 82.5t-16 83t-43.5 65t-65.5 42.5t-81 15.5zM285 -186q-85 0 -140.5 34t-90.5 91l38 26q29 -48 74 -75.5t119 -27.5q92 0 145 44.5
t53 132.5v70q-13 -20 -32.5 -39t-45 -34t-57.5 -24t-71 -9q-53 0 -99 19.5t-80 53.5t-53.5 80t-19.5 100q0 53 19.5 99t53.5 80t80 53.5t99 19.5q74 0 125.5 -30t80.5 -75v97h49v-461q0 -47 -16.5 -88t-48 -71.5t-77.5 -48t-105 -17.5zM403 565l-126 77l-126 -77v50l126 80
l126 -80v-50z" />
    <glyph glyph-name="Gbreve" unicode="&#x11e;" horiz-adv-x="737" 
d="M708 313q0 -62 -22.5 -119.5t-64.5 -102.5t-101.5 -72t-132.5 -27q-77 0 -142 26.5t-113 73t-75 111t-27 140.5t28 140.5t76 111t112.5 73t137.5 26.5q86 0 154 -31t116 -89l-39 -33q-42 50 -101 75.5t-130 25.5q-63 0 -118 -22.5t-95.5 -62.5t-64 -95t-23.5 -119
q0 -65 22.5 -120t63 -95t96 -63t122.5 -23q57 0 105.5 20t83.5 54.5t56 80.5t24 98h-260v49h312v-31v0zM381 810q45 0 78 18.5t55 41.5v-46q-7 -9 -18.5 -19.5t-28 -19.5t-38 -15t-48.5 -6t-48.5 6t-38 15t-28 19.5t-18.5 19.5v46q22 -23 55 -41.5t78 -18.5z" />
    <glyph glyph-name="gbreve" unicode="&#x11f;" horiz-adv-x="572" 
d="M280 461q-44 0 -82 -16t-65.5 -43.5t-43 -65.5t-15.5 -81t15.5 -80.5t43 -65t65.5 -43.5t82 -16q43 0 81 15.5t65.5 42.5t43.5 64.5t16 82.5t-16 83t-43.5 65t-65.5 42.5t-81 15.5zM285 -186q-85 0 -140.5 34t-90.5 91l38 26q29 -48 74 -75.5t119 -27.5q92 0 145 44.5
t53 132.5v70q-13 -20 -32.5 -39t-45 -34t-57.5 -24t-71 -9q-53 0 -99 19.5t-80 53.5t-53.5 80t-19.5 100q0 53 19.5 99t53.5 80t80 53.5t99 19.5q74 0 125.5 -30t80.5 -75v97h49v-461q0 -47 -16.5 -88t-48 -71.5t-77.5 -48t-105 -17.5zM277 625q45 0 78 18.5t55 41.5v-46
q-7 -9 -18.5 -19.5t-28 -19.5t-38 -15t-48.5 -6t-48.5 6t-38 15t-28 19.5t-18.5 19.5v46q22 -23 55 -41.5t78 -18.5z" />
    <glyph glyph-name="Gdotaccent" unicode="&#x120;" horiz-adv-x="737" 
d="M708 313q0 -62 -22.5 -119.5t-64.5 -102.5t-101.5 -72t-132.5 -27q-77 0 -142 26.5t-113 73t-75 111t-27 140.5t28 140.5t76 111t112.5 73t137.5 26.5q86 0 154 -31t116 -89l-39 -33q-42 50 -101 75.5t-130 25.5q-63 0 -118 -22.5t-95.5 -62.5t-64 -95t-23.5 -119
q0 -65 22.5 -120t63 -95t96 -63t122.5 -23q57 0 105.5 20t83.5 54.5t56 80.5t24 98h-260v49h312v-31v0zM357 818v52h48v-52h-48z" />
    <glyph glyph-name="gdotaccent" unicode="&#x121;" horiz-adv-x="572" 
d="M280 461q-44 0 -82 -16t-65.5 -43.5t-43 -65.5t-15.5 -81t15.5 -80.5t43 -65t65.5 -43.5t82 -16q43 0 81 15.5t65.5 42.5t43.5 64.5t16 82.5t-16 83t-43.5 65t-65.5 42.5t-81 15.5zM285 -186q-85 0 -140.5 34t-90.5 91l38 26q29 -48 74 -75.5t119 -27.5q92 0 145 44.5
t53 132.5v70q-13 -20 -32.5 -39t-45 -34t-57.5 -24t-71 -9q-53 0 -99 19.5t-80 53.5t-53.5 80t-19.5 100q0 53 19.5 99t53.5 80t80 53.5t99 19.5q74 0 125.5 -30t80.5 -75v97h49v-461q0 -47 -16.5 -88t-48 -71.5t-77.5 -48t-105 -17.5zM253 633v52h48v-52h-48z" />
    <glyph glyph-name="Gcommaaccent" unicode="&#x122;" horiz-adv-x="737" 
d="M708 313q0 -62 -22.5 -119.5t-64.5 -102.5t-101.5 -72t-132.5 -27q-77 0 -142 26.5t-113 73t-75 111t-27 140.5t28 140.5t76 111t112.5 73t137.5 26.5q86 0 154 -31t116 -89l-39 -33q-42 50 -101 75.5t-130 25.5q-63 0 -118 -22.5t-95.5 -62.5t-64 -95t-23.5 -119
q0 -65 22.5 -120t63 -95t96 -63t122.5 -23q57 0 105.5 20t83.5 54.5t56 80.5t24 98h-260v49h312v-31v0zM390 -193h-27l17 72h-21v58h50v-54z" />
    <glyph glyph-name="gcommaaccent" unicode="&#x123;" horiz-adv-x="572" 
d="M271 763h27l-17 -72h21v-58h-50v54zM280 461q-44 0 -82 -16t-65.5 -43.5t-43 -65.5t-15.5 -81t15.5 -80.5t43 -65t65.5 -43.5t82 -16q43 0 81 15.5t65.5 42.5t43.5 64.5t16 82.5t-16 83t-43.5 65t-65.5 42.5t-81 15.5zM285 -186q-85 0 -140.5 34t-90.5 91l38 26
q29 -48 74 -75.5t119 -27.5q92 0 145 44.5t53 132.5v70q-13 -20 -32.5 -39t-45 -34t-57.5 -24t-71 -9q-53 0 -99 19.5t-80 53.5t-53.5 80t-19.5 100q0 53 19.5 99t53.5 80t80 53.5t99 19.5q74 0 125.5 -30t80.5 -75v97h49v-461q0 -47 -16.5 -88t-48 -71.5t-77.5 -48
t-105 -17.5z" />
    <glyph glyph-name="Hcircumflex" unicode="&#x124;" horiz-adv-x="607" 
d="M504 317h-401v-317h-53v685h53v-319h401v319h53v-685h-53v317zM430 750l-126 77l-126 -77v50l126 80l126 -80v-50z" />
    <glyph glyph-name="hcircumflex" unicode="&#x125;" 
d="M89 424q22 34 62 59t105 25q44 0 79.5 -14.5t61 -40.5t39.5 -63.5t14 -83.5v-306h-49v300q0 76 -39.5 118.5t-110.5 42.5q-74 0 -118 -46.5t-44 -128.5v-286h-49v685h49v-261zM192 750l-126 77l-126 -77v50l126 80l126 -80v-50z" />
    <glyph glyph-name="Hbar" unicode="&#x126;" horiz-adv-x="607" 
d="M504 366v152h-401v-152h401zM103 0h-53v518h-55v46h55v121h53v-121h401v121h53v-121h55v-46h-55v-518h-53v317h-401v-317z" />
    <glyph glyph-name="hbar" unicode="&#x127;" 
d="M89 424q14 24 37 42q20 16 51.5 29t78.5 13q44 0 79.5 -14.5t61 -40.5t39.5 -63.5t14 -83.5v-306h-49v300q0 76 -39.5 118.5t-110.5 42.5q-74 0 -118 -46.5t-44 -128.5v-286h-49v554h-40v46h40v85h49v-85h183v-46h-183v-130z" />
    <glyph glyph-name="Itilde" unicode="&#x128;" horiz-adv-x="153" 
d="M50 0v685h53v-685h-53zM16 849q20 0 36.5 -6t31.5 -12.5t30 -12.5t32 -6q21 0 39.5 10.5t32.5 27.5v-42q-11 -15 -30.5 -29.5t-47.5 -14.5q-20 0 -36.5 6t-31.5 13t-30 13t-32 6q-21 0 -39.5 -10.5t-32.5 -27.5v42q11 15 30.5 29t47.5 14z" />
    <glyph glyph-name="itilde" unicode="&#x129;" horiz-adv-x="129" 
d="M40 0v500h49v-500h-49zM4 664q20 0 36.5 -6t31.5 -12.5t30 -12.5t32 -6q21 0 39.5 10.5t32.5 27.5v-42q-11 -15 -30.5 -29.5t-47.5 -14.5q-20 0 -36.5 6t-31.5 13t-30 13t-32 6q-21 0 -39.5 -10.5t-32.5 -27.5v42q11 15 30.5 29t47.5 14z" />
    <glyph glyph-name="Imacron" unicode="&#x12a;" horiz-adv-x="153" 
d="M50 0v685h53v-685h-53zM-48 802v44h252v-44h-252z" />
    <glyph glyph-name="imacron" unicode="&#x12b;" horiz-adv-x="129" 
d="M40 0v500h49v-500h-49zM-60 617v44h252v-44h-252z" />
    <glyph glyph-name="Ibreve" unicode="&#x12c;" horiz-adv-x="153" 
d="M50 0v685h53v-685h-53zM78 810q45 0 78 18.5t55 41.5v-46q-7 -9 -18.5 -19.5t-28 -19.5t-38 -15t-48.5 -6t-48.5 6t-38 15t-28 19.5t-18.5 19.5v46q22 -23 55 -41.5t78 -18.5z" />
    <glyph glyph-name="ibreve" unicode="&#x12d;" horiz-adv-x="129" 
d="M40 0v500h49v-500h-49zM66 625q45 0 78 18.5t55 41.5v-46q-7 -9 -18.5 -19.5t-28 -19.5t-38 -15t-48.5 -6t-48.5 6t-38 15t-28 19.5t-18.5 19.5v46q22 -23 55 -41.5t78 -18.5z" />
    <glyph glyph-name="Iogonek" unicode="&#x12e;" horiz-adv-x="153" 
d="M140 -157q-7 -6 -18 -10q-9 -4 -22 -6.5t-30 -2.5q-44 0 -71.5 21t-27.5 59q0 36 23.5 62t55.5 35v684h53v-685h-1q-39 -14 -59 -38t-20 -52q0 -20 14.5 -31.5t39.5 -11.5q14 0 26 2.5t20 5.5q10 4 17 8v-40v0z" />
    <glyph glyph-name="iogonek" unicode="&#x12f;" horiz-adv-x="129" 
d="M40 632v53h49v-53h-49zM123 -157q-7 -6 -18 -10q-9 -4 -22 -6.5t-30 -2.5q-44 0 -71.5 21t-27.5 59q0 36 23.5 62t55.5 35l7 2v497h49v-500h-4q-39 -14 -59 -38t-20 -52q0 -20 14.5 -31.5t39.5 -11.5q14 0 26 2.5t20 5.5q10 4 17 8v-40z" />
    <glyph glyph-name="Idotaccent" unicode="&#x130;" horiz-adv-x="153" 
d="M50 0v685h53v-685h-53zM54 818v52h48v-52h-48z" />
    <glyph glyph-name="dotlessi" unicode="&#x131;" horiz-adv-x="129" 
d="M40 0v500h49v-500h-49z" />
    <glyph glyph-name="IJ" unicode="&#x132;" horiz-adv-x="643" 
d="M50 0v685h53v-685h-53zM224 215q0 -82 42 -128t118 -46t118 52t42 146v446h53v-451q0 -56 -15 -101.5t-43 -77t-67 -48.5t-88 -17t-88.5 16t-67 45.5t-42.5 71t-15 92.5h53z" />
    <glyph glyph-name="ij" unicode="&#x133;" horiz-adv-x="258" 
d="M40 632v53h49v-53h-49zM40 0v500h49v-500h-49zM169 632v53h49v-53h-49zM218 -21q0 -43 -12.5 -72t-32.5 -47t-45 -25.5t-49 -7.5v47q16 0 32 4.5t29 16.5t21 32t8 52v521h49v-521z" />
    <glyph glyph-name="Jcircumflex" unicode="&#x134;" 
d="M71 215q0 -82 42 -128t118 -46t118 52t42 146v446h53v-451q0 -56 -15 -101.5t-43 -77t-67 -48.5t-88 -17t-88.5 16t-67 45.5t-42.5 71t-15 92.5h53zM536 750l-126 77l-126 -77v50l126 80l126 -80v-50z" />
    <glyph glyph-name="jcircumflex" unicode="&#x135;" horiz-adv-x="129" 
d="M89 -21q0 -43 -12.5 -72t-32.5 -47t-45 -25.5t-49 -7.5v47q16 0 32 4.5t29 16.5t21 32t8 52v521h49v-521zM192 565l-126 77l-126 -77v50l126 80l126 -80v-50z" />
    <glyph glyph-name="Kcommaaccent" unicode="&#x136;" horiz-adv-x="527" 
d="M441 685h67l-348 -341l360 -344h-74l-343 328v-328h-53v685h53v-333zM267 -193h-27l17 72h-21v58h50v-54z" />
    <glyph glyph-name="kcommaaccent" unicode="&#x137;" horiz-adv-x="438" 
d="M329 500h61l-249 -251l262 -249h-68l-246 234v-234h-49v685h49v-429zM225 -193h-27l17 72h-21v58h50v-54z" />
    <glyph glyph-name="kgreenlandic" unicode="&#x138;" horiz-adv-x="438" 
d="M329 500h61l-249 -251l262 -249h-68l-246 234v-234h-49v500h49v-244z" />
    <glyph glyph-name="Lacute" unicode="&#x139;" horiz-adv-x="483" 
d="M50 685h53v-636h353v-49h-406v685zM-17 775v45l192 64v-50z" />
    <glyph glyph-name="lacute" unicode="&#x13a;" horiz-adv-x="129" 
d="M40 0v685h49v-685h-49zM-33 775v45l192 64v-50z" />
    <glyph glyph-name="Lcommaaccent" unicode="&#x13b;" horiz-adv-x="483" 
d="M50 685h53v-636h353v-49h-406v685zM262 -193h-27l17 72h-21v58h50v-54z" />
    <glyph glyph-name="lcommaaccent" unicode="&#x13c;" horiz-adv-x="129" 
d="M40 0v685h49v-685h-49zM72 -193h-27l17 72h-21v58h50v-54z" />
    <glyph glyph-name="Lcaron" unicode="&#x13d;" horiz-adv-x="483" 
d="M354 631l-19 -76h-27l17 72h-21v58h50v-54v0zM50 685h53v-636h353v-49h-406v685z" />
    <glyph glyph-name="lcaron" unicode="&#x13e;" horiz-adv-x="236" 
d="M206 631l-19 -76h-27l17 72h-21v58h50v-54v0zM40 0v685h49v-685h-49z" />
    <glyph glyph-name="Ldot" unicode="&#x13f;" horiz-adv-x="483" 
d="M50 685h53v-636h353v-49h-406v685zM302 326v52h48v-52h-48z" />
    <glyph glyph-name="ldot" unicode="&#x140;" horiz-adv-x="204" 
d="M40 0v685h49v-685h-49zM137 264v52h48v-52h-48z" />
    <glyph glyph-name="Lslash" unicode="&#x141;" horiz-adv-x="493" 
d="M60 0v316l-60 -32v50l60 32v319h53v-290l163 87v-50l-163 -87v-296h353v-49h-406z" />
    <glyph glyph-name="lslash" unicode="&#x142;" horiz-adv-x="129" 
d="M89 390v-390h-49v355l-36 -25v50l36 25v280h49v-245l36 25v-50z" />
    <glyph glyph-name="Nacute" unicode="&#x143;" horiz-adv-x="601" 
d="M101 603v-603h-51v685h56l394 -603v603h51v-685h-56zM203 775v45l192 64v-50z" />
    <glyph glyph-name="nacute" unicode="&#x144;" 
d="M256 508q44 0 79.5 -14.5t61 -40.5t39.5 -63.5t14 -83.5v-306h-49v300q0 76 -39.5 118.5t-110.5 42.5q-74 0 -118 -46.5t-44 -128.5v-286h-49v500h49v-76q22 34 62 59t105 25zM146 590v45l192 64v-50z" />
    <glyph glyph-name="Ncommaaccent" unicode="&#x145;" horiz-adv-x="601" 
d="M101 603v-603h-51v685h56l394 -603v603h51v-685h-56zM308 -193h-27l17 72h-21v58h50v-54z" />
    <glyph glyph-name="ncommaaccent" unicode="&#x146;" 
d="M256 508q44 0 79.5 -14.5t61 -40.5t39.5 -63.5t14 -83.5v-306h-49v300q0 76 -39.5 118.5t-110.5 42.5q-74 0 -118 -46.5t-44 -128.5v-286h-49v500h49v-76q22 34 62 59t105 25zM251 -193h-27l17 72h-21v58h50v-54z" />
    <glyph glyph-name="Ncaron" unicode="&#x147;" horiz-adv-x="601" 
d="M101 603v-603h-51v685h56l394 -603v603h51v-685h-56zM302 744l-126 80v50l126 -77l126 77v-50z" />
    <glyph glyph-name="ncaron" unicode="&#x148;" 
d="M256 508q44 0 79.5 -14.5t61 -40.5t39.5 -63.5t14 -83.5v-306h-49v300q0 76 -39.5 118.5t-110.5 42.5q-74 0 -118 -46.5t-44 -128.5v-286h-49v500h49v-76q22 34 62 59t105 25zM245 559l-126 80v50l126 -77l126 77v-50z" />
    <glyph glyph-name="napostrophe" unicode="&#x149;" 
d="M256 508q44 0 79.5 -14.5t61 -40.5t39.5 -63.5t14 -83.5v-306h-49v300q0 76 -39.5 118.5t-110.5 42.5q-74 0 -118 -46.5t-44 -128.5v-286h-49v500h49v-76q22 34 62 59t105 25z" />
    <glyph glyph-name="Eng" unicode="&#x14a;" horiz-adv-x="609" 
d="M412 -126q16 0 33 5.5t30.5 19t21 35.5t5.5 56l-401 612v-602h-51v685h56l394 -602v602h51v-706q0 -43 -12.5 -72t-32.5 -47t-45 -25.5t-49 -7.5v47z" />
    <glyph glyph-name="eng" unicode="&#x14b;" 
d="M89 424q14 24 37 42q20 16 51.5 29t78.5 13q44 0 79.5 -14.5t61 -40.5t39.5 -63.5t14 -83.5v-327q0 -43 -12.5 -72t-32.5 -47t-45 -25.5t-49 -7.5v47q16 0 32 4.5t29 16.5t21 32t8 52v321q0 76 -39.5 118.5t-110.5 42.5q-74 0 -118 -46.5t-44 -128.5v-286h-49v500h49v-76
z" />
    <glyph glyph-name="Omacron" unicode="&#x14c;" horiz-adv-x="758" 
d="M379 -8q-72 0 -135.5 26.5t-111 73t-75 111t-27.5 140.5t27.5 140.5t75 111t111 72.5t135.5 26t135.5 -26t111 -72.5t75 -111t27.5 -140.5t-27.5 -140.5t-75 -111t-111 -73t-135.5 -26.5zM379 42q62 0 116 23t94 63t63 95t23 120q0 64 -23 119t-63 95t-94 62.5t-116 22.5
t-116 -22.5t-94 -62.5t-63 -95t-23 -119q0 -65 23 -120t63 -95t94 -63t116 -23zM253 802v44h252v-44h-252z" />
    <glyph glyph-name="omacron" unicode="&#x14d;" horiz-adv-x="565" 
d="M283 508q54 0 101 -20t81.5 -54.5t54.5 -81.5t20 -101q0 -55 -20 -102t-54.5 -81.5t-81.5 -54.5t-101 -20q-55 0 -102 20t-81.5 54.5t-54.5 81.5t-20 102q0 54 20 101t54.5 81.5t81.5 54.5t102 20zM283 461q-45 0 -83.5 -16t-66 -44.5t-43.5 -67t-16 -83.5
q0 -44 16 -82.5t43.5 -67t66 -44.5t83.5 -16t83 16t65.5 44.5t43.5 67t16 82.5q0 45 -16 83.5t-43.5 67t-65.5 44.5t-83 16zM157 617v44h252v-44h-252z" />
    <glyph glyph-name="Obreve" unicode="&#x14e;" horiz-adv-x="758" 
d="M379 -8q-72 0 -135.5 26.5t-111 73t-75 111t-27.5 140.5t27.5 140.5t75 111t111 72.5t135.5 26t135.5 -26t111 -72.5t75 -111t27.5 -140.5t-27.5 -140.5t-75 -111t-111 -73t-135.5 -26.5zM379 42q62 0 116 23t94 63t63 95t23 120q0 64 -23 119t-63 95t-94 62.5t-116 22.5
t-116 -22.5t-94 -62.5t-63 -95t-23 -119q0 -65 23 -120t63 -95t94 -63t116 -23zM379 810q45 0 78 18.5t55 41.5v-46q-7 -9 -18.5 -19.5t-28 -19.5t-38 -15t-48.5 -6t-48.5 6t-38 15t-28 19.5t-18.5 19.5v46q22 -23 55 -41.5t78 -18.5z" />
    <glyph glyph-name="obreve" unicode="&#x14f;" horiz-adv-x="565" 
d="M283 508q54 0 101 -20t81.5 -54.5t54.5 -81.5t20 -101q0 -55 -20 -102t-54.5 -81.5t-81.5 -54.5t-101 -20q-55 0 -102 20t-81.5 54.5t-54.5 81.5t-20 102q0 54 20 101t54.5 81.5t81.5 54.5t102 20zM283 461q-45 0 -83.5 -16t-66 -44.5t-43.5 -67t-16 -83.5
q0 -44 16 -82.5t43.5 -67t66 -44.5t83.5 -16t83 16t65.5 44.5t43.5 67t16 82.5q0 45 -16 83.5t-43.5 67t-65.5 44.5t-83 16zM283 625q45 0 78 18.5t55 41.5v-46q-7 -9 -18.5 -19.5t-28 -19.5t-38 -15t-48.5 -6t-48.5 6t-38 15t-28 19.5t-18.5 19.5v46q22 -23 55 -41.5
t78 -18.5z" />
    <glyph glyph-name="Ohungarumlaut" unicode="&#x150;" horiz-adv-x="758" 
d="M379 -8q-72 0 -135.5 26.5t-111 73t-75 111t-27.5 140.5t27.5 140.5t75 111t111 72.5t135.5 26t135.5 -26t111 -72.5t75 -111t27.5 -140.5t-27.5 -140.5t-75 -111t-111 -73t-135.5 -26.5zM379 42q62 0 116 23t94 63t63 95t23 120q0 64 -23 119t-63 95t-94 62.5t-116 22.5
t-116 -22.5t-94 -62.5t-63 -95t-23 -119q0 -65 23 -120t63 -95t94 -63t116 -23zM304 743l47 147h49l-51 -147h-45zM406 743l54 147h47l-58 -147h-43z" />
    <glyph glyph-name="ohungarumlaut" unicode="&#x151;" horiz-adv-x="565" 
d="M283 508q54 0 101 -20t81.5 -54.5t54.5 -81.5t20 -101q0 -55 -20 -102t-54.5 -81.5t-81.5 -54.5t-101 -20q-55 0 -102 20t-81.5 54.5t-54.5 81.5t-20 102q0 54 20 101t54.5 81.5t81.5 54.5t102 20zM283 461q-45 0 -83.5 -16t-66 -44.5t-43.5 -67t-16 -83.5
q0 -44 16 -82.5t43.5 -67t66 -44.5t83.5 -16t83 16t65.5 44.5t43.5 67t16 82.5q0 45 -16 83.5t-43.5 67t-65.5 44.5t-83 16zM208 558l47 147h49l-51 -147h-45zM310 558l54 147h47l-58 -147h-43z" />
    <glyph glyph-name="OE" unicode="&#x152;" horiz-adv-x="983" 
d="M377 0q-72 0 -135 25.5t-110 71t-74.5 108.5t-27.5 137t27.5 137t74.5 108.5t110 71.5t135 26h569v-49h-358v-265h333v-49h-333v-273h378v-49h-589zM535 49v587h-156q-62 0 -116 -22t-94 -61.5t-63 -93.5t-23 -117t23 -117t63 -93t94 -61t116 -22h156z" />
    <glyph glyph-name="oe" unicode="&#x153;" horiz-adv-x="1025" 
d="M982 118q-35 -57 -90.5 -91t-140.5 -34q-83 0 -145 40.5t-91 107.5q-30 -67 -91.5 -107.5t-140.5 -40.5q-55 0 -102 20t-81.5 54.5t-54.5 81.5t-20 102q0 54 20 101t54.5 81.5t81.5 54.5t102 20q79 0 140.5 -41t91.5 -107q29 66 90.5 107t141.5 41q56 0 102.5 -20t80 -53
t52 -77t18.5 -92q0 -6 -0.5 -12t-0.5 -11q-1 -5 -1 -10h-456q3 -41 19 -76.5t43.5 -61t64.5 -40t82 -14.5q74 0 119 27.5t74 75.5zM949 278q-3 38 -19 71.5t-43 58t-62.5 39t-77.5 14.5q-41 0 -76.5 -14t-62.5 -38.5t-44 -58t-21 -72.5h406zM283 40q45 0 83 16t65.5 44.5
t43.5 67t16 82.5q0 45 -16 83.5t-43.5 67t-65.5 44.5t-83 16t-83.5 -16t-66 -44.5t-43.5 -67t-16 -83.5q0 -44 16 -82.5t43.5 -67t66 -44.5t83.5 -16z" />
    <glyph glyph-name="Racute" unicode="&#x154;" horiz-adv-x="520" 
d="M103 636v-318h155q49 0 85.5 12.5t61 33.5t36.5 50t12 62q0 34 -12 63t-36 50.5t-59.5 34t-82.5 12.5h-160zM103 0h-53v685h225q54 0 97 -16t72.5 -43.5t45.5 -65.5t16 -83q0 -43 -16.5 -80.5t-46.5 -65.5t-72 -44t-93 -16h-100l340 -271h-79l-336 271v-271zM185 775v45
l192 64v-50z" />
    <glyph glyph-name="racute" unicode="&#x155;" horiz-adv-x="281" 
d="M256 454q-36 0 -66.5 -13t-53 -37t-35 -57.5t-12.5 -74.5v-272h-49v500h49v-93q7 14 21 31.5t34.5 33t48.5 26t63 10.5v-54zM43 590v45l192 64v-50z" />
    <glyph glyph-name="Rcommaaccent" unicode="&#x156;" horiz-adv-x="520" 
d="M103 636v-318h155q49 0 85.5 12.5t61 33.5t36.5 50t12 62q0 34 -12 63t-36 50.5t-59.5 34t-82.5 12.5h-160zM103 0h-53v685h225q54 0 97 -16t72.5 -43.5t45.5 -65.5t16 -83q0 -43 -16.5 -80.5t-46.5 -65.5t-72 -44t-93 -16h-100l340 -271h-79l-336 271v-271zM276 -193
h-27l17 72h-21v58h50v-54z" />
    <glyph glyph-name="rcommaaccent" unicode="&#x157;" horiz-adv-x="281" 
d="M256 454q-36 0 -66.5 -13t-53 -37t-35 -57.5t-12.5 -74.5v-272h-49v500h49v-93q7 14 21 31.5t34.5 33t48.5 26t63 10.5v-54zM71 -193h-27l17 72h-21v58h50v-54z" />
    <glyph glyph-name="Rcaron" unicode="&#x158;" horiz-adv-x="520" 
d="M103 636v-318h155q49 0 85.5 12.5t61 33.5t36.5 50t12 62q0 34 -12 63t-36 50.5t-59.5 34t-82.5 12.5h-160zM103 0h-53v685h225q54 0 97 -16t72.5 -43.5t45.5 -65.5t16 -83q0 -43 -16.5 -80.5t-46.5 -65.5t-72 -44t-93 -16h-100l340 -271h-79l-336 271v-271zM284 744
l-126 80v50l126 -77l126 77v-50z" />
    <glyph glyph-name="rcaron" unicode="&#x159;" horiz-adv-x="281" 
d="M256 454q-36 0 -66.5 -13t-53 -37t-35 -57.5t-12.5 -74.5v-272h-49v500h49v-93q7 14 21 31.5t34.5 33t48.5 26t63 10.5v-54zM142 559l-126 80v50l126 -77l126 77v-50z" />
    <glyph glyph-name="Sacute" unicode="&#x15a;" horiz-adv-x="577" 
d="M294 -10q-121 0 -191.5 53t-83.5 162h53q10 -81 67.5 -124t154.5 -42q97 0 146.5 39t49.5 108q0 38 -17.5 62t-46.5 38.5t-66.5 22.5t-77.5 16q-43 8 -84.5 18t-74.5 29.5t-53.5 52t-20.5 84.5q0 41 16 74.5t46 57.5t72 37t93 13q55 0 99 -14t76 -39.5t50.5 -62
t21.5 -81.5h-52q-3 29 -16.5 55.5t-37.5 47t-60 33t-84 12.5q-83 0 -128 -37.5t-45 -96.5q0 -37 17 -59.5t44.5 -37t63.5 -22.5t75 -15q44 -8 87.5 -18.5t78 -30.5t56 -53.5t21.5 -87.5q0 -40 -15 -75.5t-45.5 -61.5t-77.5 -41.5t-111 -15.5zM182 775v45l192 64v-50z" />
    <glyph glyph-name="sacute" unicode="&#x15b;" horiz-adv-x="448" 
d="M75 152q7 -54 47 -83.5t112 -29.5q69 0 104.5 26.5t35.5 71.5q0 27 -13 43.5t-34 27t-48.5 16.5t-56.5 11q-33 6 -64.5 13t-57 21.5t-41 38t-15.5 62.5q0 62 47.5 100t128.5 38q84 0 133.5 -40t54.5 -108h-49q-2 19 -11 37.5t-26 33t-42.5 23t-60.5 8.5
q-60 0 -92.5 -24.5t-32.5 -65.5q0 -24 10.5 -39t28.5 -25t41.5 -16t49.5 -11q34 -6 69.5 -13.5t64.5 -21.5t47 -39.5t18 -67.5q0 -64 -49.5 -105.5t-140.5 -41.5t-145 40.5t-63 119.5h50zM125 590v45l192 64v-50z" />
    <glyph glyph-name="Scircumflex" unicode="&#x15c;" horiz-adv-x="577" 
d="M294 -10q-121 0 -191.5 53t-83.5 162h53q10 -81 67.5 -124t154.5 -42q97 0 146.5 39t49.5 108q0 38 -17.5 62t-46.5 38.5t-66.5 22.5t-77.5 16q-43 8 -84.5 18t-74.5 29.5t-53.5 52t-20.5 84.5q0 41 16 74.5t46 57.5t72 37t93 13q55 0 99 -14t76 -39.5t50.5 -62
t21.5 -81.5h-52q-3 29 -16.5 55.5t-37.5 47t-60 33t-84 12.5q-83 0 -128 -37.5t-45 -96.5q0 -37 17 -59.5t44.5 -37t63.5 -22.5t75 -15q44 -8 87.5 -18.5t78 -30.5t56 -53.5t21.5 -87.5q0 -40 -15 -75.5t-45.5 -61.5t-77.5 -41.5t-111 -15.5zM407 750l-126 77l-126 -77v50
l126 80l126 -80v-50z" />
    <glyph glyph-name="scircumflex" unicode="&#x15d;" horiz-adv-x="448" 
d="M75 152q7 -54 47 -83.5t112 -29.5q69 0 104.5 26.5t35.5 71.5q0 27 -13 43.5t-34 27t-48.5 16.5t-56.5 11q-33 6 -64.5 13t-57 21.5t-41 38t-15.5 62.5q0 62 47.5 100t128.5 38q84 0 133.5 -40t54.5 -108h-49q-2 19 -11 37.5t-26 33t-42.5 23t-60.5 8.5
q-60 0 -92.5 -24.5t-32.5 -65.5q0 -24 10.5 -39t28.5 -25t41.5 -16t49.5 -11q34 -6 69.5 -13.5t64.5 -21.5t47 -39.5t18 -67.5q0 -64 -49.5 -105.5t-140.5 -41.5t-145 40.5t-63 119.5h50zM350 565l-126 77l-126 -77v50l126 80l126 -80v-50z" />
    <glyph glyph-name="Scedilla" unicode="&#x15e;" horiz-adv-x="577" 
d="M290 -209q-37 0 -61.5 20t-28.5 58h45q3 -20 15 -28.5t30 -8.5q19 0 31 11.5t12 29.5q0 17 -12.5 28t-33.5 11h-66l43 79q-107 6 -170 59t-75 155h53q10 -81 67.5 -124t154.5 -42q97 0 146.5 39t49.5 108q0 38 -17.5 62t-46.5 38.5t-66.5 22.5t-77.5 16q-43 8 -84.5 18
t-74.5 29.5t-53.5 52t-20.5 84.5q0 41 16 74.5t46 57.5t72 37t93 13q55 0 99 -14t76 -39.5t50.5 -62t21.5 -81.5h-52q-3 29 -16.5 55.5t-37.5 47t-60 33t-84 12.5q-83 0 -128 -37.5t-45 -96.5q0 -37 17 -59.5t44.5 -37t63.5 -22.5t75 -15q44 -8 87.5 -18.5t78 -30.5
t56 -53.5t21.5 -87.5q0 -39 -14 -73t-42.5 -60.5t-72 -42.5t-103.5 -18l-21 -38q36 0 60.5 -22t24.5 -57t-24.5 -58.5t-60.5 -23.5z" />
    <glyph glyph-name="scedilla" unicode="&#x15f;" horiz-adv-x="448" 
d="M228 -209q-37 0 -61.5 20t-28.5 58h45q3 -20 15 -28.5t30 -8.5q19 0 31 11.5t12 29.5q0 17 -12.5 28t-33.5 11h-66l44 81q-78 7 -124 47t-54 112h50q7 -54 47 -83.5t112 -29.5q69 0 104.5 26.5t35.5 71.5q0 27 -13 43.5t-34 27t-48.5 16.5t-56.5 11q-33 6 -64.5 13
t-57 21.5t-41 38t-15.5 62.5q0 62 47.5 100t128.5 38q84 0 133.5 -40t54.5 -108h-49q-2 19 -11 37.5t-26 33t-42.5 23t-60.5 8.5q-60 0 -92.5 -24.5t-32.5 -65.5q0 -24 10.5 -39t28.5 -25t41.5 -16t49.5 -11q34 -6 69.5 -13.5t64.5 -21.5t47 -39.5t18 -67.5
q0 -61 -45 -101.5t-128 -45.5l-22 -40q36 0 60.5 -22t24.5 -57t-24.5 -58.5t-60.5 -23.5z" />
    <glyph glyph-name="Scaron" unicode="&#x160;" horiz-adv-x="577" 
d="M294 -10q-121 0 -191.5 53t-83.5 162h53q10 -81 67.5 -124t154.5 -42q97 0 146.5 39t49.5 108q0 38 -17.5 62t-46.5 38.5t-66.5 22.5t-77.5 16q-43 8 -84.5 18t-74.5 29.5t-53.5 52t-20.5 84.5q0 41 16 74.5t46 57.5t72 37t93 13q55 0 99 -14t76 -39.5t50.5 -62
t21.5 -81.5h-52q-3 29 -16.5 55.5t-37.5 47t-60 33t-84 12.5q-83 0 -128 -37.5t-45 -96.5q0 -37 17 -59.5t44.5 -37t63.5 -22.5t75 -15q44 -8 87.5 -18.5t78 -30.5t56 -53.5t21.5 -87.5q0 -40 -15 -75.5t-45.5 -61.5t-77.5 -41.5t-111 -15.5zM281 744l-126 80v50l126 -77
l126 77v-50z" />
    <glyph glyph-name="scaron" unicode="&#x161;" horiz-adv-x="448" 
d="M75 152q7 -54 47 -83.5t112 -29.5q69 0 104.5 26.5t35.5 71.5q0 27 -13 43.5t-34 27t-48.5 16.5t-56.5 11q-33 6 -64.5 13t-57 21.5t-41 38t-15.5 62.5q0 62 47.5 100t128.5 38q84 0 133.5 -40t54.5 -108h-49q-2 19 -11 37.5t-26 33t-42.5 23t-60.5 8.5
q-60 0 -92.5 -24.5t-32.5 -65.5q0 -24 10.5 -39t28.5 -25t41.5 -16t49.5 -11q34 -6 69.5 -13.5t64.5 -21.5t47 -39.5t18 -67.5q0 -64 -49.5 -105.5t-140.5 -41.5t-145 40.5t-63 119.5h50zM224 559l-126 80v50l126 -77l126 77v-50z" />
    <glyph glyph-name="Tcedilla" unicode="&#x162;" horiz-adv-x="529" 
d="M259 -209q-37 0 -61.5 20t-28.5 58h45q3 -20 15 -28.5t30 -8.5q19 0 31 11.5t12 29.5q0 17 -12.5 28t-33.5 11h-66l48 88v636h-223v49h499v-49h-223v-636h-6l-26 -48q36 0 60.5 -22t24.5 -57t-24.5 -58.5t-60.5 -23.5z" />
    <glyph glyph-name="tcedilla" unicode="&#x163;" horiz-adv-x="307" 
d="M208 -209q-37 0 -61.5 20t-28.5 58h45q3 -20 15 -28.5t30 -8.5q19 0 31 11.5t12 29.5q0 17 -12.5 28t-33.5 11h-66l52 95q-19 6 -36.5 17.5t-30.5 29t-21 42t-8 56.5v304h-75v44h75v145h48v-145h139v-44h-139v-304q0 -32 9.5 -52t24 -32t32 -16.5t34.5 -4.5h38v-47h-39
h-8l-26 -48q36 0 60.5 -22t24.5 -57t-24.5 -58.5t-60.5 -23.5z" />
    <glyph glyph-name="Tcaron" unicode="&#x164;" horiz-adv-x="529" 
d="M238 0v636h-223v49h499v-49h-223v-636h-53zM265 744l-126 80v50l126 -77l126 77v-50z" />
    <glyph glyph-name="tcaron" unicode="&#x165;" horiz-adv-x="307" 
d="M265 647l-19 -76h-27l17 72h-21v58h50v-54v0zM282 500v-44h-139v-304q0 -32 9.5 -52t24 -32t32 -16.5t34.5 -4.5h38v-47h-39q-26 0 -52 7.5t-47 25.5t-34.5 47t-13.5 72v304h-75v44h75v145h48v-145h139z" />
    <glyph glyph-name="Tbar" unicode="&#x166;" horiz-adv-x="529" 
d="M291 318v-318h-53v318h-168v46h168v272h-223v49h499v-49h-223v-272h168v-46h-168z" />
    <glyph glyph-name="tbar" unicode="&#x167;" horiz-adv-x="307" 
d="M143 310h139v-46h-139v-112q0 -32 9.5 -52t24 -32t32 -16.5t34.5 -4.5h38v-47h-39q-26 0 -52 7.5t-47 25.5t-34.5 47t-13.5 72v112h-75v46h75v146h-75v44h75v145h48v-145h139v-44h-139v-146z" />
    <glyph glyph-name="Utilde" unicode="&#x168;" horiz-adv-x="628" 
d="M314 -10q-60 0 -108.5 19t-83 55t-53 86.5t-18.5 113.5v421h53v-416q0 -109 55 -169t155 -60t155 60t55 169v416h53v-421q0 -63 -18.5 -113.5t-53 -86.5t-83 -55t-108.5 -19zM252 849q20 0 36.5 -6t31.5 -12.5t30 -12.5t32 -6q21 0 39.5 10.5t32.5 27.5v-42
q-11 -15 -30.5 -29.5t-47.5 -14.5q-20 0 -36.5 6t-31.5 13t-30 13t-32 6q-21 0 -39.5 -10.5t-32.5 -27.5v42q11 15 30.5 29t47.5 14z" />
    <glyph glyph-name="utilde" unicode="&#x169;" 
d="M401 0v76q-9 -15 -23 -30t-35 -27t-48 -19.5t-61 -7.5q-44 0 -79.5 14.5t-61 40.5t-39.5 63.5t-14 83.5v306h49v-300q0 -76 39.5 -118.5t110.5 -42.5q74 0 118 46.5t44 128.5v286h49v-500h-49zM183 664q20 0 36.5 -6t31.5 -12.5t30 -12.5t32 -6q21 0 39.5 10.5t32.5 27.5
v-42q-11 -15 -30.5 -29.5t-47.5 -14.5q-20 0 -36.5 6t-31.5 13t-30 13t-32 6q-21 0 -39.5 -10.5t-32.5 -27.5v42q11 15 30.5 29t47.5 14z" />
    <glyph glyph-name="Umacron" unicode="&#x16a;" horiz-adv-x="628" 
d="M314 -10q-60 0 -108.5 19t-83 55t-53 86.5t-18.5 113.5v421h53v-416q0 -109 55 -169t155 -60t155 60t55 169v416h53v-421q0 -63 -18.5 -113.5t-53 -86.5t-83 -55t-108.5 -19zM188 802v44h252v-44h-252z" />
    <glyph glyph-name="umacron" unicode="&#x16b;" 
d="M401 0v76q-9 -15 -23 -30t-35 -27t-48 -19.5t-61 -7.5q-44 0 -79.5 14.5t-61 40.5t-39.5 63.5t-14 83.5v306h49v-300q0 -76 39.5 -118.5t110.5 -42.5q74 0 118 46.5t44 128.5v286h49v-500h-49zM119 617v44h252v-44h-252z" />
    <glyph glyph-name="Ubreve" unicode="&#x16c;" horiz-adv-x="628" 
d="M314 -10q-60 0 -108.5 19t-83 55t-53 86.5t-18.5 113.5v421h53v-416q0 -109 55 -169t155 -60t155 60t55 169v416h53v-421q0 -63 -18.5 -113.5t-53 -86.5t-83 -55t-108.5 -19zM314 810q45 0 78 18.5t55 41.5v-46q-7 -9 -18.5 -19.5t-28 -19.5t-38 -15t-48.5 -6t-48.5 6
t-38 15t-28 19.5t-18.5 19.5v46q22 -23 55 -41.5t78 -18.5z" />
    <glyph glyph-name="ubreve" unicode="&#x16d;" 
d="M401 0v76q-9 -15 -23 -30t-35 -27t-48 -19.5t-61 -7.5q-44 0 -79.5 14.5t-61 40.5t-39.5 63.5t-14 83.5v306h49v-300q0 -76 39.5 -118.5t110.5 -42.5q74 0 118 46.5t44 128.5v286h49v-500h-49zM245 625q45 0 78 18.5t55 41.5v-46q-7 -9 -18.5 -19.5t-28 -19.5t-38 -15
t-48.5 -6t-48.5 6t-38 15t-28 19.5t-18.5 19.5v46q22 -23 55 -41.5t78 -18.5z" />
    <glyph glyph-name="Uring" unicode="&#x16e;" horiz-adv-x="628" 
d="M314 -10q-60 0 -108.5 19t-83 55t-53 86.5t-18.5 113.5v421h53v-416q0 -109 55 -169t155 -60t155 60t55 169v416h53v-421q0 -63 -18.5 -113.5t-53 -86.5t-83 -55t-108.5 -19zM313 915q38 0 62.5 -24.5t24.5 -60.5t-24.5 -61t-62.5 -25t-62.5 25t-24.5 61t24.5 60.5
t62.5 24.5zM313 879q-22 0 -35.5 -14t-13.5 -35t13.5 -35.5t35.5 -14.5t35.5 14.5t13.5 35.5t-13.5 35t-35.5 14z" />
    <glyph glyph-name="uring" unicode="&#x16f;" 
d="M401 0v76q-9 -15 -23 -30t-35 -27t-48 -19.5t-61 -7.5q-44 0 -79.5 14.5t-61 40.5t-39.5 63.5t-14 83.5v306h49v-300q0 -76 39.5 -118.5t110.5 -42.5q74 0 118 46.5t44 128.5v286h49v-500h-49zM244 730q38 0 62.5 -24.5t24.5 -60.5t-24.5 -61t-62.5 -25t-62.5 25
t-24.5 61t24.5 60.5t62.5 24.5zM244 694q-22 0 -35.5 -14t-13.5 -35t13.5 -35.5t35.5 -14.5t35.5 14.5t13.5 35.5t-13.5 35t-35.5 14z" />
    <glyph glyph-name="Uhungarumlaut" unicode="&#x170;" horiz-adv-x="628" 
d="M314 -10q-60 0 -108.5 19t-83 55t-53 86.5t-18.5 113.5v421h53v-416q0 -109 55 -169t155 -60t155 60t55 169v416h53v-421q0 -63 -18.5 -113.5t-53 -86.5t-83 -55t-108.5 -19zM239 743l47 147h49l-51 -147h-45zM341 743l54 147h47l-58 -147h-43z" />
    <glyph glyph-name="uhungarumlaut" unicode="&#x171;" 
d="M401 0v76q-9 -15 -23 -30t-35 -27t-48 -19.5t-61 -7.5q-44 0 -79.5 14.5t-61 40.5t-39.5 63.5t-14 83.5v306h49v-300q0 -76 39.5 -118.5t110.5 -42.5q74 0 118 46.5t44 128.5v286h49v-500h-49zM170 558l47 147h49l-51 -147h-45zM272 558l54 147h47l-58 -147h-43z" />
    <glyph glyph-name="Uogonek" unicode="&#x172;" horiz-adv-x="628" 
d="M357 -176q-44 0 -71.5 21t-27.5 59q0 29 15 51t38 35q-59 0 -107 19.5t-82 55t-52.5 86t-18.5 113.5v421h53v-416q0 -109 55 -169t155 -60t155 60t55 169v416h53v-421q0 -108 -52.5 -177.5t-143.5 -89.5q-35 -15 -53 -38t-18 -49q0 -20 14.5 -31.5t39.5 -11.5
q14 0 26 2.5t20 5.5q10 4 17 8v-40q-7 -6 -18 -10q-9 -4 -22 -6.5t-30 -2.5z" />
    <glyph glyph-name="uogonek" unicode="&#x173;" 
d="M462 -157q-7 -6 -17 -10q-8 -4 -20 -6.5t-28 -2.5q-42 0 -68 21t-26 59q0 39 24.5 70t73.5 45v57q-9 -15 -23 -30t-35 -27t-48 -19.5t-61 -7.5q-44 0 -79.5 14.5t-61 40.5t-39.5 63.5t-14 83.5v306h49v-300q0 -76 39.5 -118.5t110.5 -42.5q74 0 118 46.5t44 128.5v286h49
v-500h-26q-35 -13 -52 -37.5t-17 -52.5q0 -20 13 -31.5t36 -11.5q13 0 23.5 2.5t18.5 5.5q9 4 16 8v-40v0z" />
    <glyph glyph-name="Wcircumflex" unicode="&#x174;" horiz-adv-x="894" 
d="M445 603l-175 -603h-57l-193 685h54l170 -611l176 611h55l176 -610l170 610h53l-196 -685h-57zM573 750l-126 77l-126 -77v50l126 80l126 -80v-50z" />
    <glyph glyph-name="wcircumflex" unicode="&#x175;" horiz-adv-x="749" 
d="M374 434l-149 -434h-62l-143 500h55l121 -439l149 439h62l134 -440l135 440h53l-160 -500h-62zM501 565l-126 77l-126 -77v50l126 80l126 -80v-50z" />
    <glyph glyph-name="Ycircumflex" unicode="&#x176;" horiz-adv-x="583" 
d="M265 0v305l-245 380h63l209 -332l209 332h62l-245 -378v-307h-53zM418 750l-126 77l-126 -77v50l126 80l126 -80v-50z" />
    <glyph glyph-name="ycircumflex" unicode="&#x177;" horiz-adv-x="473" 
d="M275 12q-35 -99 -85.5 -142.5t-128.5 -43.5h-19v47h18q57 0 95 31.5t67 107.5l-207 488h55l180 -424l155 424h53zM370 565l-126 77l-126 -77v50l126 80l126 -80v-50z" />
    <glyph glyph-name="Ydieresis" unicode="&#x178;" horiz-adv-x="583" 
d="M265 0v305l-245 380h63l209 -332l209 332h62l-245 -378v-307h-53zM197 818v52h48v-52h-48zM339 818v52h48v-52h-48z" />
    <glyph glyph-name="Zacute" unicode="&#x179;" horiz-adv-x="580" 
d="M83 49h482v-49h-549v48l459 588h-439v49h505v-48zM191 775v45l192 64v-50z" />
    <glyph glyph-name="zacute" unicode="&#x17a;" horiz-adv-x="471" 
d="M94 44h347v-44h-411v44l332 412h-319v44h382v-44zM137 590v45l192 64v-50z" />
    <glyph glyph-name="Zdotaccent" unicode="&#x17b;" horiz-adv-x="580" 
d="M83 49h482v-49h-549v48l459 588h-439v49h505v-48zM266 818v52h48v-52h-48z" />
    <glyph glyph-name="zdotaccent" unicode="&#x17c;" horiz-adv-x="471" 
d="M94 44h347v-44h-411v44l332 412h-319v44h382v-44zM212 633v52h48v-52h-48z" />
    <glyph glyph-name="Zcaron" unicode="&#x17d;" horiz-adv-x="580" 
d="M83 49h482v-49h-549v48l459 588h-439v49h505v-48zM290 744l-126 80v50l126 -77l126 77v-50z" />
    <glyph glyph-name="zcaron" unicode="&#x17e;" horiz-adv-x="471" 
d="M94 44h347v-44h-411v44l332 412h-319v44h382v-44zM236 559l-126 80v50l126 -77l126 77v-50z" />
    <glyph glyph-name="florin" unicode="&#x192;" horiz-adv-x="302" 
d="M244 638q-17 0 -34 -4.5t-31 -16.5t-22.5 -32.5t-8.5 -51.5v-33h129v-44h-129v-475q0 -42 -12.5 -71.5t-32.5 -48t-44.5 -27.5t-48.5 -9v49q16 0 32.5 4.5t29 16.5t20.5 32.5t8 53.5v475h-75v44h75v33q0 43 13 72t33 47t45.5 25.5t51.5 7.5h33v-47h-32z" />
    <glyph glyph-name="Scommaaccent" unicode="&#x218;" horiz-adv-x="577" 
d="M294 -10q-121 0 -191.5 53t-83.5 162h53q10 -81 67.5 -124t154.5 -42q97 0 146.5 39t49.5 108q0 38 -17.5 62t-46.5 38.5t-66.5 22.5t-77.5 16q-43 8 -84.5 18t-74.5 29.5t-53.5 52t-20.5 84.5q0 41 16 74.5t46 57.5t72 37t93 13q55 0 99 -14t76 -39.5t50.5 -62
t21.5 -81.5h-52q-3 29 -16.5 55.5t-37.5 47t-60 33t-84 12.5q-83 0 -128 -37.5t-45 -96.5q0 -37 17 -59.5t44.5 -37t63.5 -22.5t75 -15q44 -8 87.5 -18.5t78 -30.5t56 -53.5t21.5 -87.5q0 -40 -15 -75.5t-45.5 -61.5t-77.5 -41.5t-111 -15.5zM300 -193h-27l17 72h-21v58h50
v-54z" />
    <glyph glyph-name="scommaaccent" unicode="&#x219;" horiz-adv-x="448" 
d="M75 152q7 -54 47 -83.5t112 -29.5q69 0 104.5 26.5t35.5 71.5q0 27 -13 43.5t-34 27t-48.5 16.5t-56.5 11q-33 6 -64.5 13t-57 21.5t-41 38t-15.5 62.5q0 62 47.5 100t128.5 38q84 0 133.5 -40t54.5 -108h-49q-2 19 -11 37.5t-26 33t-42.5 23t-60.5 8.5
q-60 0 -92.5 -24.5t-32.5 -65.5q0 -24 10.5 -39t28.5 -25t41.5 -16t49.5 -11q34 -6 69.5 -13.5t64.5 -21.5t47 -39.5t18 -67.5q0 -64 -49.5 -105.5t-140.5 -41.5t-145 40.5t-63 119.5h50zM238 -193h-27l17 72h-21v58h50v-54z" />
    <glyph glyph-name="uni021A" unicode="&#x21a;" horiz-adv-x="529" 
d="M238 0v636h-223v49h499v-49h-223v-636h-53zM271 -193h-27l17 72h-21v58h50v-54z" />
    <glyph glyph-name="uni021B" unicode="&#x21b;" horiz-adv-x="307" 
d="M282 500v-44h-139v-304q0 -32 9.5 -52t24 -32t32 -16.5t34.5 -4.5h38v-47h-39q-26 0 -52 7.5t-47 25.5t-34.5 47t-13.5 72v304h-75v44h75v145h48v-145h139zM197 -193h-27l17 72h-21v58h50v-54z" />
    <glyph glyph-name="dotlessj" unicode="&#x237;" horiz-adv-x="129" 
d="M89 -21q0 -43 -12.5 -72t-32.5 -47t-45 -25.5t-49 -7.5v47q16 0 32 4.5t29 16.5t21 32t8 52v521h49v-521z" />
    <glyph glyph-name="schwa" unicode="&#x259;" horiz-adv-x="559" 
d="M43 383q35 57 90.5 91t140.5 34q57 0 104.5 -20t82 -54.5t54 -81.5t19.5 -102q0 -54 -19.5 -101t-54 -81.5t-81 -54.5t-101.5 -20q-56 0 -102.5 20t-80 53t-52 77t-18.5 92v11.5t1 10.5q0 5 1 11h455q-3 46 -20.5 81.5t-46 60t-65 37.5t-76.5 13q-74 0 -119 -27.5
t-74 -75.5zM278 40q38 0 73 13t62.5 36.5t45.5 57.5t23 76h-406q4 -42 21.5 -76t44.5 -58t62 -36.5t74 -12.5z" />
    <glyph glyph-name="circumflex" unicode="&#x2c6;" horiz-adv-x="400" 
d="M326 565l-126 77l-126 -77v50l126 80l126 -80v-50z" />
    <glyph glyph-name="caron" unicode="&#x2c7;" horiz-adv-x="400" 
d="M200 559l-126 80v50l126 -77l126 77v-50z" />
    <glyph glyph-name="breve" unicode="&#x2d8;" horiz-adv-x="400" 
d="M200 625q45 0 78 18.5t55 41.5v-46q-7 -9 -18.5 -19.5t-28 -19.5t-38 -15t-48.5 -6t-48.5 6t-38 15t-28 19.5t-18.5 19.5v46q22 -23 55 -41.5t78 -18.5z" />
    <glyph glyph-name="dotaccent" unicode="&#x2d9;" horiz-adv-x="400" 
d="M176 633v52h48v-52h-48z" />
    <glyph glyph-name="ring" unicode="&#x2da;" horiz-adv-x="400" 
d="M199 730q38 0 62.5 -24.5t24.5 -60.5t-24.5 -61t-62.5 -25t-62.5 25t-24.5 61t24.5 60.5t62.5 24.5zM199 694q-22 0 -35.5 -14t-13.5 -35t13.5 -35.5t35.5 -14.5t35.5 14.5t13.5 35.5t-13.5 35t-35.5 14z" />
    <glyph glyph-name="ogonek" unicode="&#x2db;" horiz-adv-x="400" 
d="M251 0q-39 -14 -59 -38t-20 -52q0 -20 14.5 -31.5t39.5 -11.5q14 0 26 2.5t20 5.5q10 4 17 8v-40q-7 -6 -18 -10q-9 -4 -22 -6.5t-30 -2.5q-44 0 -71.5 21t-27.5 59q0 36 23.5 62t55.5 35l45 13z" />
    <glyph glyph-name="tilde" unicode="&#x2dc;" horiz-adv-x="400" 
d="M138 664q20 0 36.5 -6t31.5 -12.5t30 -12.5t32 -6q21 0 39.5 10.5t32.5 27.5v-42q-11 -15 -30.5 -29.5t-47.5 -14.5q-20 0 -36.5 6t-31.5 13t-30 13t-32 6q-21 0 -39.5 -10.5t-32.5 -27.5v42q11 15 30.5 29t47.5 14z" />
    <glyph glyph-name="hungarumlaut" unicode="&#x2dd;" horiz-adv-x="400" 
d="M153 558l47 147h49l-51 -147h-45zM255 558l54 147h47l-58 -147h-43z" />
    <glyph glyph-name="afii10023" unicode="&#x401;" horiz-adv-x="498" 
d="M50 685h411v-49h-358v-265h333v-49h-333v-273h378v-49h-431v685zM172 818v52h48v-52h-48zM314 818v52h48v-52h-48z" />
    <glyph glyph-name="afii10051" unicode="&#x402;" horiz-adv-x="729" 
d="M501 -10q-68 0 -117 27l25 44q38 -23 91 -23q32 0 60 12t48.5 33.5t32.5 51.5t12 66q0 35 -11.5 65.5t-33.5 53t-54.5 35.5t-73.5 13q-40 0 -74.5 -14.5t-60 -42t-40 -67t-14.5 -89.5v-155h-53v636h-223v49h499v-49h-223v-326q13 21 32 40t43 34t53.5 23.5t64.5 8.5
q52 0 93 -16.5t69 -46t43 -68.5t15 -84q0 -43 -14.5 -81t-41.5 -67t-64.5 -46t-82.5 -17z" />
    <glyph glyph-name="afii10052" unicode="&#x403;" horiz-adv-x="473" 
d="M103 636v-636h-53v685h396v-49h-343zM166 777v45l192 64v-50z" />
    <glyph glyph-name="afii10053" unicode="&#x404;" horiz-adv-x="708" 
d="M680 160q-46 -78 -118.5 -123t-177.5 -45q-73 0 -137.5 26.5t-112.5 73t-76 111t-28 140.5t28 140.5t76 111t112.5 72.5t137.5 26q105 0 179 -45.5t119 -123.5l-43 -28q-41 69 -104 107.5t-151 38.5q-60 0 -113 -20.5t-93 -57t-65 -87t-29 -111.5h395v-49h-395
q5 -61 30.5 -111.5t66 -87t92.5 -56.5t111 -20q91 0 153 38t103 106z" />
    <glyph glyph-name="afii10054" unicode="&#x405;" horiz-adv-x="577" 
d="M294 -10q-121 0 -191.5 53t-83.5 162h53q10 -81 67.5 -124t154.5 -42q97 0 146.5 39t49.5 108q0 38 -17.5 62t-46.5 38.5t-66.5 22.5t-77.5 16q-43 8 -84.5 18t-74.5 29.5t-53.5 52t-20.5 84.5q0 41 16 74.5t46 57.5t72 37t93 13q55 0 99 -14t76 -39.5t50.5 -62
t21.5 -81.5h-52q-3 29 -16.5 55.5t-37.5 47t-60 33t-84 12.5q-83 0 -128 -37.5t-45 -96.5q0 -37 17 -59.5t44.5 -37t63.5 -22.5t75 -15q44 -8 87.5 -18.5t78 -30.5t56 -53.5t21.5 -87.5q0 -40 -15 -75.5t-45.5 -61.5t-77.5 -41.5t-111 -15.5z" />
    <glyph glyph-name="afii10055" unicode="&#x406;" horiz-adv-x="153" 
d="M50 0v685h53v-685h-53z" />
    <glyph glyph-name="afii10056" unicode="&#x407;" horiz-adv-x="153" 
d="M50 0v685h53v-685h-53zM-17 818v52h48v-52h-48zM125 818v52h48v-52h-48z" />
    <glyph glyph-name="afii10057" unicode="&#x408;" 
d="M71 215q0 -82 42 -128t118 -46t118 52t42 146v446h53v-451q0 -56 -15 -101.5t-43 -77t-67 -48.5t-88 -17t-88.5 16t-67 45.5t-42.5 71t-15 92.5h53z" />
    <glyph glyph-name="afii10058" unicode="&#x409;" horiz-adv-x="929" 
d="M529 0l-232 614l-233 -614h-54l261 685h53l99 -260h221q56 0 101 -16t76 -44.5t47.5 -67t16.5 -83.5t-17 -84t-48.5 -68t-75 -45.5t-96.5 -16.5h-119zM645 376h-203l125 -327h68q48 0 85 13t61.5 35t37.5 51.5t13 63.5t-13 64t-37 52t-58.5 35t-78.5 13z" />
    <glyph glyph-name="afii10059" unicode="&#x40a;" horiz-adv-x="999" 
d="M504 366v319h53v-260h152q57 0 103 -16t77.5 -44.5t48.5 -67t17 -83.5t-17 -84t-48 -68t-74.5 -45.5t-95.5 -16.5h-216v317h-401v-317h-53v685h53v-319h401zM705 49q48 0 85 13t61.5 35t37.5 51.5t13 63.5t-13 64t-37 52t-58.5 35t-78.5 13h-158v-327h148z" />
    <glyph glyph-name="afii10060" unicode="&#x40b;" horiz-adv-x="764" 
d="M291 159v-159h-53v636h-223v49h499v-49h-223v-314q13 21 31.5 39.5t43 32.5t56 22.5t70.5 8.5q52 0 95 -16.5t73.5 -48t47 -76.5t16.5 -101v-183h-53v182q0 92 -49.5 143.5t-135.5 51.5q-87 0 -141 -56.5t-54 -161.5z" />
    <glyph glyph-name="afii10061" unicode="&#x40c;" horiz-adv-x="527" 
d="M441 685h67l-348 -341l360 -344h-74l-343 328v-328h-53v685h53v-333zM187 757v45l192 64v-50z" />
    <glyph glyph-name="afii10062" unicode="&#x40e;" horiz-adv-x="580" 
d="M225 0h-57l103 211l-251 474h60l221 -413l202 413h57zM304 806q45 0 79 20.5t54 43.5v-57q-12 -16 -45.5 -32.5t-87.5 -16.5t-87.5 16.5t-45.5 32.5v57q20 -23 54 -43.5t79 -20.5z" />
    <glyph glyph-name="afii10145" unicode="&#x40f;" horiz-adv-x="587" 
d="M267 0h-217v685h53v-636h381v636h53v-685h-217v-136l-53 -5v141z" />
    <glyph glyph-name="afii10017" unicode="&#x410;" horiz-adv-x="616" 
d="M307 616l-152 -385h303zM478 181h-343l-71 -181h-54l271 685h53l272 -685h-57z" />
    <glyph glyph-name="afii10018" unicode="&#x411;" horiz-adv-x="541" 
d="M501 209q0 -44 -16.5 -82t-46.5 -66.5t-71.5 -44.5t-92.5 -16h-224v685h398v-49h-345v-221h164q55 0 98.5 -15.5t73.5 -43.5t46 -65.5t16 -81.5zM261 49q46 0 81 12.5t58.5 33.5t35.5 50t12 62t-12 62t-35 50.5t-55.5 34t-74.5 12.5h-168v-317h158z" />
    <glyph glyph-name="afii10019" unicode="&#x412;" horiz-adv-x="579" 
d="M50 685h236q49 0 86.5 -14t63 -38t39 -56t13.5 -69q0 -45 -24 -86.5t-68 -63.5q34 -6 60 -20.5t43.5 -36t26.5 -48.5t9 -56q0 -42 -14.5 -78t-41 -62.5t-63 -41.5t-79.5 -15h-287v685zM103 636v-262h182q38 0 66.5 10.5t47 28.5t27.5 41.5t9 50.5t-9.5 50.5t-27.5 41.5
t-45.5 28.5t-63.5 10.5h-186zM103 325v-276h227q39 0 68 11.5t47.5 31.5t27.5 46t9 55q0 27 -9 51t-27.5 42t-46.5 28.5t-65 10.5h-231z" />
    <glyph glyph-name="afii10020" unicode="&#x413;" horiz-adv-x="473" 
d="M103 636v-636h-53v685h396v-49h-343z" />
    <glyph glyph-name="afii10021" unicode="&#x414;" horiz-adv-x="669" 
d="M609 -141v141h-549v-136l-50 -5v190h55l242 636h53l243 -636h56v-185zM119 49h427l-213 565z" />
    <glyph glyph-name="afii10022" unicode="&#x415;" horiz-adv-x="498" 
d="M50 685h411v-49h-358v-265h333v-49h-333v-273h378v-49h-431v685z" />
    <glyph glyph-name="afii10024" unicode="&#x416;" horiz-adv-x="861" 
d="M404 352v333h53v-333l318 333h67l-329 -341l341 -344h-74l-323 328v-328h-53v328l-326 -328h-71l341 340l-330 345h68z" />
    <glyph glyph-name="afii10025" unicode="&#x417;" horiz-adv-x="498" 
d="M248 -6q-66 0 -116 28.5t-92 86.5l43 27q35 -49 73 -71t92 -22q38 0 67 11t49 30.5t30.5 46.5t10.5 58t-10 57.5t-29 46t-46.5 31t-63.5 11.5h-95v49h83q32 0 57.5 10.5t43 28.5t26.5 42t9 51t-9.5 50.5t-27.5 41t-44.5 27.5t-59.5 10q-47 0 -83 -21.5t-62 -63.5l-39 27
q36 55 80 81t104 26q44 0 80 -13t61.5 -37t39 -56.5t13.5 -71.5q0 -38 -20 -78t-73 -73q34 -14 57 -35t36.5 -45t19 -49t5.5 -48q0 -40 -14.5 -75.5t-41.5 -61.5t-66 -41.5t-88 -15.5z" />
    <glyph glyph-name="afii10026" unicode="&#x418;" horiz-adv-x="617" 
d="M514 0v601l-410 -601h-54v685h53v-601l410 601h54v-685h-53z" />
    <glyph glyph-name="afii10027" unicode="&#x419;" horiz-adv-x="617" 
d="M514 0v601l-410 -601h-54v685h53v-601l410 601h54v-685h-53zM306 806q45 0 79 20.5t54 43.5v-57q-12 -16 -45.5 -32.5t-87.5 -16.5t-87.5 16.5t-45.5 32.5v57q20 -23 54 -43.5t79 -20.5z" />
    <glyph glyph-name="afii10028" unicode="&#x41a;" horiz-adv-x="527" 
d="M441 685h67l-348 -341l360 -344h-74l-343 328v-328h-53v685h53v-333z" />
    <glyph glyph-name="afii10029" unicode="&#x41b;" horiz-adv-x="596" 
d="M529 0l-232 614l-233 -614h-54l261 685h53l262 -685h-57z" />
    <glyph glyph-name="afii10030" unicode="&#x41c;" horiz-adv-x="743" 
d="M100 579v-579h-50v685h60l262 -604l261 604h60v-685h-51v581l-256 -581h-30z" />
    <glyph glyph-name="afii10031" unicode="&#x41d;" horiz-adv-x="607" 
d="M504 317h-401v-317h-53v685h53v-319h401v319h53v-685h-53v317z" />
    <glyph glyph-name="afii10032" unicode="&#x41e;" horiz-adv-x="758" 
d="M379 -8q-72 0 -135.5 26.5t-111 73t-75 111t-27.5 140.5t27.5 140.5t75 111t111 72.5t135.5 26t135.5 -26t111 -72.5t75 -111t27.5 -140.5t-27.5 -140.5t-75 -111t-111 -73t-135.5 -26.5zM379 42q62 0 116 23t94 63t63 95t23 120q0 64 -23 119t-63 95t-94 62.5t-116 22.5
t-116 -22.5t-94 -62.5t-63 -95t-23 -119q0 -65 23 -120t63 -95t94 -63t116 -23z" />
    <glyph glyph-name="afii10033" unicode="&#x41f;" horiz-adv-x="597" 
d="M494 0v636h-391v-636h-53v685h497v-685h-53z" />
    <glyph glyph-name="afii10034" unicode="&#x420;" horiz-adv-x="565" 
d="M103 240v-240h-53v685h236q52 0 95.5 -17.5t74.5 -47.5t48 -70.5t17 -86.5q0 -48 -17 -89t-48.5 -70.5t-77.5 -46.5t-103 -17h-172zM103 636v-347h178q44 0 78.5 13.5t58.5 37t37 55.5t13 69q0 36 -13 67t-37.5 54.5t-61.5 37t-85 13.5h-168z" />
    <glyph glyph-name="afii10035" unicode="&#x421;" horiz-adv-x="708" 
d="M384 642q-63 0 -118 -22.5t-95.5 -62.5t-64 -95t-23.5 -119q0 -65 23.5 -120t64 -95t95.5 -63t118 -23q91 0 152.5 38.5t102.5 106.5l41 -27q-46 -78 -118.5 -123t-177.5 -45q-73 0 -137.5 26.5t-112.5 73t-76 111t-28 140.5t28 140.5t76 111t112.5 72.5t137.5 26
q105 0 179 -45.5t119 -123.5l-43 -28q-41 69 -104 107.5t-151 38.5z" />
    <glyph glyph-name="afii10036" unicode="&#x422;" horiz-adv-x="529" 
d="M238 0v636h-223v49h499v-49h-223v-636h-53z" />
    <glyph glyph-name="afii10037" unicode="&#x423;" horiz-adv-x="580" 
d="M225 0h-57l103 211l-251 474h60l221 -413l202 413h57z" />
    <glyph glyph-name="afii10038" unicode="&#x424;" horiz-adv-x="731" 
d="M339 -10v81q-64 1 -120.5 20t-98.5 54t-66 85t-24 112t24 112t66 85.5t98.5 54.5t120.5 20v81h53v-81q64 -1 120 -20t98 -54t66.5 -85t24.5 -112t-24.5 -112t-66.5 -85.5t-98 -54.5t-120 -20v-81h-53zM83 343q0 -51 19.5 -91.5t54 -69.5t81.5 -45t101 -17v445
q-54 -1 -101 -16.5t-81.5 -44t-54 -69.5t-19.5 -92zM648 342q0 51 -19.5 91.5t-54 69.5t-81.5 45t-101 17v-445q54 1 101 16.5t81.5 44t54 69.5t19.5 92z" />
    <glyph glyph-name="afii10039" unicode="&#x425;" horiz-adv-x="627" 
d="M312 312l-229 -312h-61l257 351l-237 334h63l211 -293l208 293h61l-237 -333l257 -352h-63z" />
    <glyph glyph-name="afii10040" unicode="&#x426;" horiz-adv-x="648" 
d="M578 -141v141h-528v685h53v-636h381v636h53v-636h91v-185z" />
    <glyph glyph-name="afii10041" unicode="&#x427;" horiz-adv-x="576" 
d="M526 0h-53v358q-31 -48 -80.5 -75t-116.5 -27q-54 0 -97.5 17t-74.5 48.5t-47.5 76.5t-16.5 100v187h53v-186q0 -92 49 -143t134 -51q44 0 80 14.5t62 41.5t40.5 66t14.5 89v169h53v-685z" />
    <glyph glyph-name="afii10042" unicode="&#x428;" horiz-adv-x="861" 
d="M50 0v685h53v-636h301v636h53v-636h301v636h53v-685h-761z" />
    <glyph glyph-name="afii10043" unicode="&#x429;" horiz-adv-x="922" 
d="M852 -141v141h-802v685h53v-636h301v636h53v-636h301v636h53v-636h91v-185z" />
    <glyph glyph-name="afii10044" unicode="&#x42a;" horiz-adv-x="685" 
d="M405 0h-215v636h-175v49h228v-260h154q57 0 102 -16t76.5 -44.5t48.5 -66.5t17 -83t-17 -84.5t-47.5 -68.5t-74 -45.5t-97.5 -16.5zM391 49q48 0 85 13t61.5 35t37.5 51.5t13 63.5t-13 64t-37 52t-58.5 35t-78.5 13h-158v-327h148z" />
    <glyph glyph-name="afii10045" unicode="&#x42b;" horiz-adv-x="703" 
d="M257 425q57 0 102 -16t76.5 -44.5t48.5 -66.5t17 -83t-17 -84.5t-47.5 -68.5t-74 -45.5t-97.5 -16.5h-215v685h53v-260h154zM251 49q48 0 85 13t61.5 35t37.5 51.5t13 63.5t-13 64t-37 52t-58.5 35t-78.5 13h-158v-327h148zM600 0v685h53v-685h-53z" />
    <glyph glyph-name="afii10046" unicode="&#x42c;" horiz-adv-x="545" 
d="M257 425q57 0 102 -16t76.5 -44.5t48.5 -66.5t17 -83t-17 -84.5t-47.5 -68.5t-74 -45.5t-97.5 -16.5h-215v685h53v-260h154zM251 49q48 0 85 13t61.5 35t37.5 51.5t13 63.5t-13 64t-37 52t-58.5 35t-78.5 13h-158v-327h148z" />
    <glyph glyph-name="afii10047" unicode="&#x42d;" horiz-adv-x="708" 
d="M328 -8q-106 0 -180 45t-120 123l41 26q41 -68 104 -106t155 -38q59 0 111 20t91.5 56.5t64 87t29.5 111.5h-395v49h395q-4 61 -28.5 111.5t-63.5 87t-91 57t-112 20.5q-90 0 -154.5 -38.5t-105.5 -107.5l-42 27q45 78 120.5 124t181.5 46q72 0 135.5 -26t111 -72.5
t75 -111t27.5 -140.5t-27.5 -140.5t-75 -111t-111.5 -73t-136 -26.5z" />
    <glyph glyph-name="afii10048" unicode="&#x42e;" horiz-adv-x="945" 
d="M576 -8q-67 0 -126.5 24t-105 67t-74 103t-32.5 131h-128v-317h-53v685h53v-319h128q4 72 32 132t74 103.5t105.5 67.5t126.5 24q70 0 131.5 -26t107.5 -72.5t73 -111t27 -140.5t-27 -140.5t-73 -111t-107.5 -73t-131.5 -26.5zM576 42q60 0 112 23t91 63t61 95t22 120
q0 64 -22 119t-61 95t-91 62.5t-112 22.5t-112 -22.5t-91 -62.5t-61 -95t-22 -119q0 -65 22 -120t61 -95t91 -63t112 -23z" />
    <glyph glyph-name="afii10049" unicode="&#x42f;" horiz-adv-x="528" 
d="M265 636q-47 0 -82.5 -12.5t-59.5 -33.5t-36 -50t-12 -62q0 -34 12 -63t36.5 -50.5t61 -34t85.5 -12.5h155v318h-160zM425 271l-337 -271h-78l343 271h-103q-51 0 -93 16t-72 44t-46.5 66.5t-16.5 82.5q0 43 16 80.5t45.5 65.5t72.5 43.5t97 15.5h225v-685h-53v271z" />
    <glyph glyph-name="afii10065" unicode="&#x430;" horiz-adv-x="578" 
d="M283 461q-45 0 -83.5 -16t-66 -44.5t-43.5 -67t-16 -83.5q0 -44 16 -82.5t43.5 -67t66 -44.5t83.5 -16q44 0 82.5 16t66.5 44.5t44 66.5t16 83t-16 83.5t-44 67t-66.5 44.5t-82.5 16zM489 99q-31 -47 -84 -76.5t-125 -29.5q-54 0 -100.5 20t-81 54.5t-54 81.5t-19.5 102
q0 54 19.5 101t54 81.5t81 54.5t100.5 20q72 0 124.5 -29t84.5 -74v95h49v-500h-49v99z" />
    <glyph glyph-name="afii10066" unicode="&#x431;" horiz-adv-x="549" 
d="M274 -7q-56 0 -103 22t-82 59q-29 31 -46.5 74.5t-17.5 114.5v40q0 88 10 156.5t39 115.5t80.5 73t134.5 29l71 3q49 2 81 6t55 11v-45q-22 -8 -54.5 -12.5t-80.5 -6.5l-66 -2q-59 -2 -99.5 -16.5t-66.5 -45t-39 -77.5t-17 -113q14 22 33.5 42t45 35t57.5 24t72 9
q50 0 94.5 -19t77.5 -52t52 -78.5t19 -98.5t-19 -98t-53 -78.5t-79.5 -52.5t-98.5 -19zM275 441q-43 0 -79.5 -15.5t-63.5 -42.5t-42 -63.5t-15 -79.5q0 -42 15 -78.5t42 -63.5t63.5 -42.5t79.5 -15.5t79.5 15.5t63 42.5t41.5 63.5t15 78.5q0 43 -15 79.5t-41.5 63.5
t-63 42.5t-79.5 15.5z" />
    <glyph glyph-name="afii10067" unicode="&#x432;" horiz-adv-x="444" 
d="M266 0h-226v500h191q36 0 63.5 -10t46.5 -27.5t29 -40.5t10 -49q0 -35 -16.5 -64t-42.5 -47q51 -16 72 -49.5t21 -71.5q0 -30 -11 -55.5t-30.5 -44.5t-47 -30t-59.5 -11zM233 456h-144v-179h142q51 0 75.5 27t24.5 63q0 37 -24.5 63t-73.5 26zM260 233h-171v-189h171
q55 0 80 28.5t25 66.5q0 39 -25.5 66.5t-79.5 27.5z" />
    <glyph glyph-name="afii10068" unicode="&#x433;" horiz-adv-x="373" 
d="M353 456h-264v-456h-49v500h313v-44z" />
    <glyph glyph-name="afii10069" unicode="&#x434;" horiz-adv-x="562" 
d="M503 -141v141h-444v-136l-49 -5v185h51l189 456h62l189 -456h51v-180zM114 44h331l-166 403z" />
    <glyph glyph-name="afii10070" unicode="&#x435;" horiz-adv-x="559" 
d="M516 118q-35 -57 -90.5 -91t-140.5 -34q-57 0 -104.5 20t-82 54.5t-54 81.5t-19.5 102q0 54 19.5 101t54 81.5t81 54.5t101.5 20q56 0 102.5 -20t80 -53t52 -77t18.5 -92q0 -12 -0.5 -20t-1.5 -13h-455q3 -46 20.5 -81.5t46 -60t64.5 -37.5t77 -13q74 0 119 27.5t74 75.5
zM281 461q-38 0 -73 -13t-62.5 -36.5t-46 -57.5t-22.5 -76h406q-4 42 -21.5 76t-44.5 58t-62 36.5t-74 12.5z" />
    <glyph glyph-name="afii10072" unicode="&#x436;" horiz-adv-x="707" 
d="M329 256v244h49v-244l220 244h58l-229 -251l260 -249h-69l-240 234v-234h-49v234l-244 -234h-65l260 245l-231 255h60z" />
    <glyph glyph-name="afii10073" unicode="&#x437;" horiz-adv-x="389" 
d="M194 -6q-53 0 -94 23t-75 72l36 26q29 -41 60.5 -59t73.5 -18q52 0 83 27t31 75q0 42 -28 68t-85 26h-65v44h60q50 0 75.5 28.5t25.5 65.5q0 38 -26 63.5t-73 25.5q-46 0 -71.5 -17.5t-42.5 -38.5l-33 26q21 29 56 51.5t91 22.5q33 0 60 -10t46.5 -28t30 -42.5
t10.5 -52.5q0 -32 -14.5 -61.5t-49.5 -49.5q37 -15 59 -44.5t22 -75.5q0 -35 -12.5 -62t-34 -46t-51.5 -29t-65 -10z" />
    <glyph glyph-name="afii10074" unicode="&#x438;" 
d="M89 0h-49v500h49v-427l312 427h49v-500h-49v427z" />
    <glyph glyph-name="afii10075" unicode="&#x439;" 
d="M89 0h-49v500h49v-427l312 427h49v-500h-49v427zM246 619q45 0 79 21t54 45v-54q-13 -17 -46 -34.5t-87 -17.5t-87 17.5t-46 34.5v54q20 -24 54 -45t79 -21z" />
    <glyph glyph-name="afii10076" unicode="&#x43a;" horiz-adv-x="438" 
d="M89 234v-234h-49v500h49v-244l240 244h58l-246 -251l277 -249h-69z" />
    <glyph glyph-name="afii10077" unicode="&#x43b;" horiz-adv-x="474" 
d="M403 0l-168 445l-167 -445h-53l191 500h62l191 -500h-56z" />
    <glyph glyph-name="afii10078" unicode="&#x43c;" horiz-adv-x="601" 
d="M271 0l-186 397v-397h-45v500h50l210 -450l208 450h53v-500h-49v397l-186 -397h-55z" />
    <glyph glyph-name="afii10079" unicode="&#x43d;" horiz-adv-x="480" 
d="M391 0v231h-302v-231h-49v500h49v-225h302v225h49v-500h-49z" />
    <glyph glyph-name="afii10080" unicode="&#x43e;" horiz-adv-x="565" 
d="M283 508q54 0 101 -20t81.5 -54.5t54.5 -81.5t20 -101q0 -55 -20 -102t-54.5 -81.5t-81.5 -54.5t-101 -20q-55 0 -102 20t-81.5 54.5t-54.5 81.5t-20 102q0 54 20 101t54.5 81.5t81.5 54.5t102 20zM283 461q-45 0 -83.5 -16t-66 -44.5t-43.5 -67t-16 -83.5
q0 -44 16 -82.5t43.5 -67t66 -44.5t83.5 -16t83 16t65.5 44.5t43.5 67t16 82.5q0 45 -16 83.5t-43.5 67t-65.5 44.5t-83 16z" />
    <glyph glyph-name="afii10081" unicode="&#x43f;" horiz-adv-x="470" 
d="M381 0v456h-292v-456h-49v500h390v-500h-49z" />
    <glyph glyph-name="afii10082" unicode="&#x440;" horiz-adv-x="578" 
d="M295 461q-44 0 -82.5 -16t-66.5 -44.5t-44 -67t-16 -83.5t16 -83t44 -66.5t66.5 -44.5t82.5 -16q45 0 83.5 16t66 44.5t43.5 67t16 82.5q0 45 -16 83.5t-43.5 67t-66 44.5t-83.5 16zM298 -7q-72 0 -125 29.5t-84 76.5v-273h-49v674h49v-98q31 47 84 76.5t125 29.5
q54 0 100.5 -20t81 -54.5t54 -81.5t19.5 -101q0 -55 -19.5 -102t-54 -81.5t-81 -54.5t-100.5 -20z" />
    <glyph glyph-name="afii10083" unicode="&#x441;" horiz-adv-x="527" 
d="M507 118q-35 -57 -91 -91t-139 -34q-55 0 -101.5 20t-80 55t-52 82t-18.5 102q0 54 18.5 100.5t52 81t80 54.5t101.5 20q87 0 141.5 -34.5t88.5 -91.5l-38 -26q-29 48 -74 76t-118 28q-45 0 -82.5 -16t-64.5 -44t-41.5 -66.5t-14.5 -82.5t15 -82.5t42 -67t64.5 -44.5
t82.5 -16q73 0 117.5 27.5t73.5 75.5z" />
    <glyph glyph-name="afii10084" unicode="&#x442;" horiz-adv-x="447" 
d="M432 456h-184v-456h-49v456h-184v44h417v-44z" />
    <glyph glyph-name="afii10085" unicode="&#x443;" horiz-adv-x="473" 
d="M275 12q-35 -99 -85.5 -142.5t-128.5 -43.5h-19v47h18q57 0 95 31.5t67 107.5l-207 488h55l180 -424l155 424h53z" />
    <glyph glyph-name="afii10086" unicode="&#x444;" horiz-adv-x="655" 
d="M303 -174v167q-59 1 -110 21.5t-88.5 55t-58.5 81t-21 100.5t21 100t58.5 80.5t88.5 55t110 21.5v177h49v-177q59 -1 110 -21.5t88.5 -55t58.5 -81t21 -100.5t-21 -100.5t-58.5 -81t-88.5 -54.5t-110 -21v-167h-49zM74 250q0 -44 17.5 -82t48 -66.5t72.5 -45t91 -17.5
v423q-49 -1 -91 -17.5t-72.5 -45t-48 -67t-17.5 -82.5zM581 251q0 44 -17.5 82t-48 66.5t-72.5 45t-91 17.5v-423q49 1 91 17.5t72.5 45t48 67t17.5 82.5z" />
    <glyph glyph-name="afii10087" unicode="&#x445;" horiz-adv-x="479" 
d="M464 0h-62l-163 222l-164 -222h-60l191 258l-176 242h62l148 -205l149 205h61l-178 -241z" />
    <glyph glyph-name="afii10088" unicode="&#x446;" horiz-adv-x="519" 
d="M460 -141v141h-420v500h49v-456h292v456h49v-456h79v-180z" />
    <glyph glyph-name="afii10089" unicode="&#x447;" horiz-adv-x="460" 
d="M371 391v109h49v-500h-49v253q-14 -24 -35 -42q-19 -16 -48 -29t-73 -13q-42 0 -76 14.5t-58.5 40.5t-37.5 63.5t-13 83.5v129h49v-123q0 -76 37 -118.5t103 -42.5q69 0 110.5 46.5t41.5 128.5z" />
    <glyph glyph-name="afii10090" unicode="&#x448;" horiz-adv-x="691" 
d="M40 0v500h49v-456h232v456h49v-456h232v456h49v-500h-611z" />
    <glyph glyph-name="afii10091" unicode="&#x449;" horiz-adv-x="740" 
d="M681 -141v141h-641v500h49v-456h232v456h49v-456h232v456h49v-456h79v-180z" />
    <glyph glyph-name="afii10092" unicode="&#x44a;" horiz-adv-x="538" 
d="M331 0h-176v456h-140v44h189v-175h130q39 0 71.5 -12t55 -34t35 -51.5t12.5 -64.5t-12.5 -65t-36 -51.5t-56 -34t-72.5 -12.5zM331 281h-127v-237h127q30 0 53.5 10t39.5 26.5t24.5 38t8.5 44.5q0 24 -8.5 45.5t-25 37.5t-40 25.5t-52.5 9.5z" />
    <glyph glyph-name="afii10093" unicode="&#x44b;" horiz-adv-x="560" 
d="M520 0h-49v500h49v-500zM216 281h-127v-237h127q30 0 53.5 10t39.5 26.5t24.5 38t8.5 44.5q0 24 -8.5 45.5t-25 37.5t-40 25.5t-52.5 9.5zM40 0v500h49v-175h130q39 0 71.5 -12t55 -34t35 -51.5t12.5 -64.5t-12.5 -65t-36 -51.5t-56 -34t-72.5 -12.5h-176z" />
    <glyph glyph-name="afii10094" unicode="&#x44c;" horiz-adv-x="423" 
d="M216 281h-127v-237h127q30 0 53.5 10t39.5 26.5t24.5 38t8.5 44.5q0 24 -8.5 45.5t-25 37.5t-40 25.5t-52.5 9.5zM40 0v500h49v-175h130q39 0 71.5 -12t55 -34t35 -51.5t12.5 -64.5t-12.5 -65t-36 -51.5t-56 -34t-72.5 -12.5h-176z" />
    <glyph glyph-name="afii10095" unicode="&#x44d;" horiz-adv-x="527" 
d="M258 -7q-87 0 -143 34.5t-90 91.5l38 26q29 -48 75 -76t120 -28q42 0 77.5 14.5t61.5 40t41.5 60t18.5 75.5h-278v44h278q-4 40 -20 73.5t-43 58.5t-63.5 39t-79.5 14q-64 0 -111.5 -27.5t-76.5 -75.5l-38 26q35 57 91.5 91t134.5 34q57 0 104 -20t81 -55t52.5 -82
t18.5 -102q0 -54 -18.5 -101t-51.5 -81.5t-79 -54t-100 -19.5z" />
    <glyph glyph-name="afii10096" unicode="&#x44e;" horiz-adv-x="705" 
d="M433 -7q-50 0 -93.5 18t-76.5 50t-53.5 75.5t-23.5 94.5h-97v-231h-49v500h49v-225h97q4 50 24.5 92.5t53.5 74t76 49t93 17.5q52 0 97 -20t78.5 -54.5t52.5 -81.5t19 -101q0 -55 -19 -102t-52.5 -81.5t-78.5 -54.5t-97 -20zM433 461q-43 0 -79.5 -16t-63 -44.5
t-41.5 -67t-15 -83.5q0 -44 15 -82.5t41.5 -67t63 -44.5t79.5 -16q42 0 78.5 16t63 44.5t41.5 67t15 82.5q0 45 -15 83.5t-41.5 67t-63 44.5t-78.5 16z" />
    <glyph glyph-name="afii10097" unicode="&#x44f;" horiz-adv-x="435" 
d="M219 239h127v217h-127q-61 0 -93.5 -31.5t-32.5 -78.5q0 -48 32.5 -77.5t93.5 -29.5zM346 0v195l-255 -195h-71l259 195h-60q-40 0 -72.5 10.5t-56 30t-36 47t-12.5 62.5q0 71 48 113t129 42h176v-500h-49z" />
    <glyph glyph-name="afii10071" unicode="&#x451;" horiz-adv-x="559" 
d="M516 118q-35 -57 -90.5 -91t-140.5 -34q-57 0 -104.5 20t-82 54.5t-54 81.5t-19.5 102q0 54 19.5 101t54 81.5t81 54.5t101.5 20q56 0 102.5 -20t80 -53t52 -77t18.5 -92q0 -12 -0.5 -20t-1.5 -13h-455q3 -46 20.5 -81.5t46 -60t64.5 -37.5t77 -13q74 0 119 27.5t74 75.5
zM281 461q-38 0 -73 -13t-62.5 -36.5t-46 -57.5t-22.5 -76h406q-4 42 -21.5 76t-44.5 58t-62 36.5t-74 12.5zM185 633v52h48v-52h-48zM327 633v52h48v-52h-48z" />
    <glyph glyph-name="afii10099" unicode="&#x452;" 
d="M450 -21q0 -43 -12.5 -72t-32.5 -47t-45 -25.5t-49 -7.5v47q16 0 32 4.5t29 16.5t21 32t8 52v321q0 76 -39.5 118.5t-110.5 42.5q-74 0 -118 -46.5t-44 -128.5v-286h-49v554h-40v46h40v85h49v-85h183v-46h-183v-130q14 24 37 42q20 16 51.5 29t78.5 13q44 0 79.5 -14.5
t61 -40.5t39.5 -63.5t14 -83.5v-327z" />
    <glyph glyph-name="afii10100" unicode="&#x453;" horiz-adv-x="373" 
d="M353 456h-264v-456h-49v500h313v-44zM109 590v45l192 64v-50z" />
    <glyph glyph-name="afii10101" unicode="&#x454;" horiz-adv-x="527" 
d="M507 118q-35 -57 -90.5 -91t-137.5 -34q-56 0 -102.5 20t-80 55t-52.5 82t-19 102q0 54 19 100.5t52.5 81t80.5 54.5t103 20q86 0 139.5 -34.5t87.5 -91.5l-38 -26q-29 48 -73.5 76t-115.5 28q-43 0 -79 -14t-63 -39t-43.5 -59t-19.5 -73h278v-44h-278q3 -40 19 -75
t43 -60.5t63.5 -40t79.5 -14.5q72 0 116 27.5t73 75.5z" />
    <glyph glyph-name="afii10102" unicode="&#x455;" horiz-adv-x="448" 
d="M75 152q7 -54 47 -83.5t112 -29.5q69 0 104.5 26.5t35.5 71.5q0 27 -13 43.5t-34 27t-48.5 16.5t-56.5 11q-33 6 -64.5 13t-57 21.5t-41 38t-15.5 62.5q0 62 47.5 100t128.5 38q84 0 133.5 -40t54.5 -108h-49q-2 19 -11 37.5t-26 33t-42.5 23t-60.5 8.5
q-60 0 -92.5 -24.5t-32.5 -65.5q0 -24 10.5 -39t28.5 -25t41.5 -16t49.5 -11q34 -6 69.5 -13.5t64.5 -21.5t47 -39.5t18 -67.5q0 -64 -49.5 -105.5t-140.5 -41.5t-145 40.5t-63 119.5h50z" />
    <glyph glyph-name="afii10103" unicode="&#x456;" horiz-adv-x="129" 
d="M40 632v53h49v-53h-49zM40 0v500h49v-500h-49z" />
    <glyph glyph-name="afii10104" unicode="&#x457;" horiz-adv-x="129" 
d="M40 0v500h49v-500h-49zM-29 633v52h48v-52h-48zM113 633v52h48v-52h-48z" />
    <glyph glyph-name="afii10105" unicode="&#x458;" horiz-adv-x="129" 
d="M40 632v53h49v-53h-49zM89 -21q0 -43 -12.5 -72t-32.5 -47t-45 -25.5t-49 -7.5v47q16 0 32 4.5t29 16.5t21 32t8 52v521h49v-521z" />
    <glyph glyph-name="afii10106" unicode="&#x459;" horiz-adv-x="714" 
d="M403 0l-168 445l-167 -445h-53l191 500h62l67 -175h173q40 0 72.5 -12t55.5 -34t35.5 -51.5t12.5 -63.5q0 -35 -12.5 -65t-36 -52t-56 -34.5t-72.5 -12.5h-104zM507 280h-155l90 -235h65q31 0 55 10t40 26.5t24.5 37.5t8.5 44q0 48 -32.5 82.5t-95.5 34.5z" />
    <glyph glyph-name="afii10107" unicode="&#x45a;" horiz-adv-x="744" 
d="M537 280h-117v-235h117q31 0 55 10t40 26.5t24.5 37.5t8.5 44q0 48 -32.5 82.5t-95.5 34.5zM371 0v231h-282v-231h-49v500h49v-225h282v225h49v-175h118q40 0 72.5 -12t55.5 -34t35.5 -51.5t12.5 -63.5q0 -35 -12.5 -65t-36 -52t-56 -34.5t-72.5 -12.5h-166z" />
    <glyph glyph-name="afii10108" unicode="&#x45b;" 
d="M89 424q14 24 37 42q20 16 51.5 29t78.5 13q44 0 79.5 -14.5t61 -40.5t39.5 -63.5t14 -83.5v-306h-49v300q0 76 -39.5 118.5t-110.5 42.5q-74 0 -118 -46.5t-44 -128.5v-286h-49v554h-40v46h40v85h49v-85h183v-46h-183v-130z" />
    <glyph glyph-name="afii10109" unicode="&#x45c;" horiz-adv-x="438" 
d="M89 234v-234h-49v500h49v-244l240 244h58l-246 -251l277 -249h-69zM129 590v45l192 64v-50z" />
    <glyph glyph-name="afii10110" unicode="&#x45e;" horiz-adv-x="473" 
d="M275 12q-35 -99 -85.5 -142.5t-128.5 -43.5h-19v47h18q57 0 95 31.5t67 107.5l-207 488h55l180 -424l155 424h53zM246 619q45 0 79 21t54 45v-54q-13 -17 -46 -34.5t-87 -17.5t-87 17.5t-46 34.5v54q20 -24 54 -45t79 -21z" />
    <glyph glyph-name="afii10193" unicode="&#x45f;" horiz-adv-x="470" 
d="M40 0v500h49v-456h292v456h49v-500h-390zM210 -141v141h49v-136z" />
    <glyph glyph-name="afii10050" unicode="&#x490;" horiz-adv-x="473" 
d="M396 685v136l50 5v-190h-343v-636h-53v685h346z" />
    <glyph glyph-name="afii10098" unicode="&#x491;" horiz-adv-x="363" 
d="M295 500v136l48 5v-185h-254v-456h-49v500h255z" />
    <glyph glyph-name="Wgrave" unicode="&#x1e80;" horiz-adv-x="894" 
d="M445 603l-175 -603h-57l-193 685h54l170 -611l176 611h55l176 -610l170 610h53l-196 -685h-57zM541 775l-192 59v50l192 -64v-45z" />
    <glyph glyph-name="wgrave" unicode="&#x1e81;" horiz-adv-x="749" 
d="M374 434l-149 -434h-62l-143 500h55l121 -439l149 439h62l134 -440l135 440h53l-160 -500h-62zM469 590l-192 59v50l192 -64v-45z" />
    <glyph glyph-name="Wacute" unicode="&#x1e82;" horiz-adv-x="894" 
d="M445 603l-175 -603h-57l-193 685h54l170 -611l176 611h55l176 -610l170 610h53l-196 -685h-57zM348 775v45l192 64v-50z" />
    <glyph glyph-name="wacute" unicode="&#x1e83;" horiz-adv-x="749" 
d="M374 434l-149 -434h-62l-143 500h55l121 -439l149 439h62l134 -440l135 440h53l-160 -500h-62zM276 590v45l192 64v-50z" />
    <glyph glyph-name="Wdieresis" unicode="&#x1e84;" horiz-adv-x="894" 
d="M445 603l-175 -603h-57l-193 685h54l170 -611l176 611h55l176 -610l170 610h53l-196 -685h-57zM352 818v52h48v-52h-48zM494 818v52h48v-52h-48z" />
    <glyph glyph-name="wdieresis" unicode="&#x1e85;" horiz-adv-x="749" 
d="M374 434l-149 -434h-62l-143 500h55l121 -439l149 439h62l134 -440l135 440h53l-160 -500h-62zM280 633v52h48v-52h-48zM422 633v52h48v-52h-48z" />
    <glyph glyph-name="Ygrave" unicode="&#x1ef2;" horiz-adv-x="583" 
d="M265 0v305l-245 380h63l209 -332l209 332h62l-245 -378v-307h-53zM386 775l-192 59v50l192 -64v-45z" />
    <glyph glyph-name="ygrave" unicode="&#x1ef3;" horiz-adv-x="473" 
d="M275 12q-35 -99 -85.5 -142.5t-128.5 -43.5h-19v47h18q57 0 95 31.5t67 107.5l-207 488h55l180 -424l155 424h53zM338 590l-192 59v50l192 -64v-45z" />
    <glyph glyph-name="figuredash" unicode="&#x2012;" horiz-adv-x="440" 
d="M30 263v46h380v-46h-380z" />
    <glyph glyph-name="endash" unicode="&#x2013;" horiz-adv-x="440" 
d="M30 263v46h380v-46h-380z" />
    <glyph glyph-name="emdash" unicode="&#x2014;" horiz-adv-x="825" 
d="M30 263v46h765v-46h-765z" />
    <glyph glyph-name="quoteleft" unicode="&#x2018;" horiz-adv-x="130" 
d="M59 685h27l-17 -72h21v-58h-50v54z" />
    <glyph glyph-name="quoteright" unicode="&#x2019;" horiz-adv-x="130" 
d="M71 555h-27l17 72h-21v58h50v-54z" />
    <glyph glyph-name="quotesinglbase" unicode="&#x201a;" horiz-adv-x="130" 
d="M71 -72h-27l17 72h-21v58h50v-54z" />
    <glyph glyph-name="quotedblleft" unicode="&#x201c;" horiz-adv-x="218" 
d="M59 685h27l-17 -72h21v-58h-50v54zM147 685h27l-17 -72h21v-58h-50v54z" />
    <glyph glyph-name="quotedblright" unicode="&#x201d;" horiz-adv-x="218" 
d="M71 555h-27l17 72h-21v58h50v-54zM159 555h-27l17 72h-21v58h50v-54z" />
    <glyph glyph-name="quotedblbase" unicode="&#x201e;" horiz-adv-x="218" 
d="M71 -72h-27l17 72h-21v58h50v-54zM159 -72h-27l17 72h-21v58h50v-54z" />
    <glyph glyph-name="dagger" unicode="&#x2020;" horiz-adv-x="420" 
d="M390 437v-46h-156v-534h-48v534h-156v46h156v193h48v-193h156z" />
    <glyph glyph-name="daggerdbl" unicode="&#x2021;" horiz-adv-x="420" 
d="M390 434v-46h-156v-280h156v-46h-156v-205h-48v205h-156v46h156v280h-156v46h156v196h48v-196h156z" />
    <glyph glyph-name="bullet" unicode="&#x2022;" horiz-adv-x="286" 
d="M143 398q24 0 44.5 -8.5t36 -23.5t24 -35.5t8.5 -44.5t-8.5 -44.5t-24 -35.5t-36 -23.5t-44.5 -8.5t-44.5 8.5t-36 23.5t-24 35.5t-8.5 44.5t8.5 44.5t24 35.5t36 23.5t44.5 8.5z" />
    <glyph glyph-name="ellipsis" unicode="&#x2026;" horiz-adv-x="390" 
d="M40 0v58h50v-58h-50zM170 0v58h50v-58h-50zM300 0v58h50v-58h-50z" />
    <glyph glyph-name="guilsinglleft" unicode="&#x2039;" horiz-adv-x="254" 
d="M214 82h-51l-123 204l123 204h51l-123 -204z" />
    <glyph glyph-name="guilsinglright" unicode="&#x203a;" horiz-adv-x="254" 
d="M40 490h51l123 -204l-123 -204h-51l123 204z" />
    <glyph glyph-name="fraction" unicode="&#x2044;" horiz-adv-x="20" 
d="M-156 0l303 685h53l-303 -685h-53z" />
    <glyph glyph-name="zero.sups" unicode="&#x2070;" horiz-adv-x="319" 
d="M20 560q0 28 10.5 51.5t29.5 41t45 27t56 9.5t55 -9.5t43.5 -27t29 -41t10.5 -51.5v-124q0 -28 -10.5 -52t-29 -41t-43.5 -27t-55 -10t-56 10t-45 27t-29.5 41t-10.5 52v124zM254 560q0 38 -26.5 62.5t-66.5 24.5q-42 0 -68 -24.5t-26 -62.5v-124q0 -38 26 -63t68 -25
q40 0 66.5 25t26.5 63v124z" />
    <glyph glyph-name="four.sups" unicode="&#x2074;" horiz-adv-x="324" 
d="M304 438v-42h-51v-84h-45v84h-188v36l191 255h42v-249h51zM208 438v173l-131 -173h131z" />
    <glyph glyph-name="five.sups" unicode="&#x2075;" horiz-adv-x="322" 
d="M116 644l-23 -103q16 9 36 14.5t39 5.5q64 0 99 -33t35 -90q0 -28 -10 -51.5t-28.5 -41t-44.5 -27.5t-58 -10q-50 0 -84 22t-57 59l37 22q18 -29 42 -44.5t62 -15.5q45 0 70 24.5t25 62.5q0 39 -23.5 60t-67.5 21q-30 0 -51.5 -13.5t-35.5 -30.5l-41 11l42 200h201v-42
h-164z" />
    <glyph glyph-name="six.sups" unicode="&#x2076;" horiz-adv-x="326" 
d="M130 568q8 2 16 3.5t19 1.5q31 0 57 -10.5t44.5 -28.5t29 -42.5t10.5 -52.5t-11 -52t-30.5 -42t-45 -28t-55.5 -10q-31 0 -57.5 10t-45.5 28t-30 42t-11 52q0 23 7 44t18 37l113 166h54zM164 530q-43 0 -70 -26t-27 -65q0 -38 27 -64t70 -26q42 0 69.5 26t27.5 64
q0 39 -27.5 65t-69.5 26z" />
    <glyph glyph-name="seven.sups" unicode="&#x2077;" horiz-adv-x="296" 
d="M113 312h-50l160 331h-203v42h256v-34z" />
    <glyph glyph-name="eight.sups" unicode="&#x2078;" horiz-adv-x="304" 
d="M152 689q22 0 42 -7t35 -20t24 -30.5t9 -38.5q0 -23 -11.5 -42t-29.5 -31q28 -14 45.5 -39.5t17.5 -57.5q0 -25 -10.5 -46.5t-28.5 -37t-42 -24.5t-51 -9t-51 9t-42 24.5t-28.5 37t-10.5 46.5q0 32 17.5 57.5t45.5 39.5q-19 12 -30 31t-11 42q0 21 9 38.5t24 30.5t35 20
t42 7zM152 649q-26 0 -44.5 -16t-18.5 -40q0 -23 18.5 -39t44.5 -16q27 0 45.5 16t18.5 39q0 24 -18.5 40t-45.5 16zM152 498q-37 0 -61.5 -21.5t-24.5 -53.5t24.5 -53.5t61.5 -21.5q36 0 61 21.5t25 53.5t-25 53.5t-61 21.5z" />
    <glyph glyph-name="nine.sups" unicode="&#x2079;" horiz-adv-x="326" 
d="M196 429q-13 -4 -35 -4q-31 0 -57 10t-44.5 28t-29 42.5t-10.5 53.5q0 28 11 52t30.5 42t46 28t56.5 10t56 -10t45 -28t30 -42t11 -52q0 -23 -7 -44.5t-18 -37.5l-113 -165h-53zM164 649q-43 0 -70.5 -26t-27.5 -64q0 -39 27.5 -65t70.5 -26q42 0 69 26t27 65
q0 38 -27 64t-69 26z" />
    <glyph glyph-name="Euro" unicode="&#x20ac;" horiz-adv-x="583" 
d="M194 245q-1 -55 9.5 -93.5t30 -62.5t48.5 -35t65 -11q47 0 81.5 18t58.5 51l43 -30q-31 -42 -76 -66t-106 -24q-101 0 -155.5 63t-52.5 190h-99v49h99v96h-99v49h99q-2 121 52.5 187.5t155.5 66.5q61 0 106 -24t76 -66l-43 -30q-24 33 -58.5 51t-81.5 18q-73 0 -114 -50
t-39 -153h204v-49h-204v-96h204v-49h-204v0z" />
    <glyph glyph-name="uni20B4" unicode="&#x20b4;" horiz-adv-x="559" 
d="M282 438q42 0 69 10t43 25.5t22 35t6 38.5q0 18 -7 36t-23 31.5t-40.5 22t-59.5 8.5q-44 0 -73 -10.5t-47 -28.5t-27 -43t-12 -54h-53q6 90 61 138t152 48q46 0 80.5 -12t57 -32t34 -45.5t11.5 -52.5q0 -48 -18.5 -76t-41.5 -39h123v-48h-519v48h262zM124 253h-104v48
h519v-48h-285q-42 0 -69 -10.5t-43 -27t-22 -36.5t-6 -40q0 -19 8 -37t24.5 -32.5t43 -23t64.5 -8.5q49 0 82 10.5t53.5 28.5t30.5 43t13 54h53q-6 -90 -66.5 -138t-166.5 -48q-49 0 -85 12.5t-60 33t-36 47.5t-12 57q0 38 17.5 69.5t46.5 45.5z" />
    <glyph glyph-name="uni20B8" unicode="&#x20b8;" horiz-adv-x="529" 
d="M504 637h-479v48h479v-48zM291 0h-53v499h-213v49h479v-49h-213v-499z" />
    <glyph glyph-name="uni20BD" unicode="&#x20bd;" horiz-adv-x="630" 
d="M346 636h-168v-307h178q42 0 74.5 12t55.5 33t35 49t12 61q0 31 -12 59t-35.5 48.5t-58.5 32.5t-81 12zM446 143h-268v-143h-53v143h-100v48h100v89h-100v48h100v357h236q50 0 91.5 -15.5t71 -43t46 -64.5t16.5 -79q0 -44 -16 -81t-46.5 -64t-74.5 -42.5t-99 -15.5h-172
v-89h268v-48z" />
    <glyph glyph-name="afii61352" unicode="&#x2116;" horiz-adv-x="1018" 
d="M810 696q40 0 76 -15t63 -41t43 -61t16 -75q0 -41 -16 -76.5t-43 -61.5t-63 -40.5t-76 -14.5q-41 0 -77 14.5t-63 40.5t-43 61.5t-16 76.5q0 40 16 75t43 61t63 41t77 15zM810 647q-30 0 -56 -11t-45.5 -30.5t-31 -46t-11.5 -57.5t11.5 -57.5t31 -46t45.5 -30.5t56 -11
t56.5 11t46 30.5t30.5 46t11 57.5t-11 57.5t-30.5 46t-46 30.5t-56.5 11zM621 204v48h377v-48h-377zM495 0l-394 603v-603h-51v685h56l394 -603v603h51v-685h-56z" />
    <glyph glyph-name="trademark" unicode="&#x2122;" horiz-adv-x="859" 
d="M226 582v-39h-100v-209q0 -23 6.5 -36t17 -20.5t23.5 -9.5t25 -2h27v-41h-36q-18 0 -37 5.5t-34 18t-24.5 33.5t-9.5 52v209h-54v39h54v103h42v-103h100zM333 530q13 23 39 40.5t70 17.5q42 0 72 -19t45 -53q14 29 45.5 50.5t80.5 21.5q29 0 53.5 -10t42.5 -28t28 -44
t10 -57v-224h-43v217q0 51 -25 77.5t-70 26.5q-46 0 -75.5 -27t-29.5 -81v-213h-43v217q0 51 -25 77.5t-70 26.5q-50 0 -77.5 -28.5t-27.5 -84.5v-208h-43v357h43v-52z" />
    <glyph glyph-name="uni2153" unicode="&#x2153;" horiz-adv-x="672" 
d="M66 312v332h-46v41h91v-373h-45zM533 246q55 -6 87 -38t32 -83q0 -56 -38.5 -92.5t-102.5 -36.5q-50 0 -84 22t-57 59l38 22q18 -28 41.5 -44t61.5 -16q45 0 70 24t25 61q0 39 -24 60t-69 21q-17 0 -32 -6t-25 -12l-22 29l132 117h-172v41h242v-36zM74 0l303 685h53
l-303 -685h-53z" />
    <glyph glyph-name="uni2154" unicode="&#x2154;" horiz-adv-x="832" 
d="M20 609q23 37 56 58.5t84 21.5q28 0 52 -8.5t40.5 -23.5t26 -35.5t9.5 -43.5q0 -42 -22.5 -70.5t-53.5 -54.5l-118 -100h197v-41h-266v36l157 135q26 22 41.5 42.5t15.5 52.5q0 29 -21.5 49t-57.5 20q-38 0 -60.5 -15.5t-39.5 -43.5zM693 246q55 -6 87 -38t32 -83
q0 -56 -38.5 -92.5t-102.5 -36.5q-50 0 -84 22t-57 59l38 22q18 -28 41.5 -44t61.5 -16q45 0 70 24t25 61q0 39 -24 60t-69 21q-17 0 -32 -6t-25 -12l-22 29l132 117h-172v41h242v-36zM234 0l303 685h53l-303 -685h-53z" />
    <glyph glyph-name="minus" unicode="&#x2212;" horiz-adv-x="440" 
d="M30 263v46h380v-46h-380z" />
    <glyph glyph-name="approxequal" unicode="&#x2248;" horiz-adv-x="440" 
d="M136 407q27 0 49 -7t42 -15t40.5 -15t44.5 -7q18 0 33.5 5.5t28 13t22 16t14.5 14.5v-50q-5 -7 -14.5 -16t-23 -17t-30.5 -13.5t-37 -5.5q-27 0 -49 7t-42 15t-40.5 15t-44.5 7q-18 0 -33.5 -5.5t-28 -13t-22 -16t-14.5 -14.5v50q5 7 14.5 16t23 17t30.5 13.5t37 5.5z
M136 258q27 0 49 -7t42 -15t40.5 -15t44.5 -7q18 0 33.5 5.5t28 13t22 16t14.5 14.5v-50q-5 -7 -14.5 -16t-23 -17t-30.5 -13.5t-37 -5.5q-27 0 -49 7t-42 15t-40.5 15t-44.5 7q-18 0 -33.5 -5.5t-28 -13t-22 -16t-14.5 -14.5v50q5 7 14.5 16t23 17t30.5 13.5t37 5.5z" />
    <glyph glyph-name="notequal" unicode="&#x2260;" horiz-adv-x="440" 
d="M410 381v-46h-151l-27 -103h178v-46h-190l-34 -127h-48l34 127h-142v46h154l27 103h-181v46h193l35 130h48l-35 -130h139z" />
    <glyph glyph-name="lessequal" unicode="&#x2264;" horiz-adv-x="440" 
d="M76 353l334 -137v-52l-380 163v52l380 163v-52zM30 0v46h380v-46h-380z" />
    <glyph glyph-name="greaterequal" unicode="&#x2265;" horiz-adv-x="440" 
d="M410 327l-380 -163v52l334 137l-334 137v52l380 -163v-52zM30 0v46h380v-46h-380z" />
    <glyph glyph-name="commaaccent" unicode="&#xf6c3;" horiz-adv-x="396" 
d="M204 -193h-27l17 72h-21v58h50v-54z" />
    <glyph glyph-name="uniF8FF" unicode="&#xf8ff;" horiz-adv-x="5000" 
d="M3288 559h-123v122h123v-122zM4915 624q21 0 36 -15t15 -37t-15 -37t-36 -15t-36 15t-15 37t15 37t36 15zM4915 617q-18 0 -30.5 -13t-12.5 -32t12.5 -32t30.5 -13t30.5 13t12.5 32t-12.5 32t-30.5 13zM4907 590v-15h10q11 0 11 8q0 7 -9 7h-12zM4920 597q16 0 16 -14
q0 -11 -13 -13l14 -25h-9l-14 24h-7v-24h-8v52h21zM1803 402h-1803v109h1803v-109zM3288 0h-123v511h123v-511zM2242 399q-28 0 -54 -12t-45.5 -32t-31.5 -46.5t-12 -56.5t12 -56.5t31.5 -47t45.5 -32t54 -11.5q31 0 58 11.5t47.5 32t32.5 47t12 56.5t-12 56.5t-32.5 46.5
t-47.5 32t-58 12zM2829 399q-31 0 -57.5 -12t-46 -32t-30.5 -46.5t-11 -56.5t11 -56.5t30.5 -47t46 -32t57.5 -11.5q30 0 56.5 11.5t46.5 32t32 47t12 56.5t-12 56.5t-32 46.5t-46.5 32t-56.5 12zM3609 399q-30 0 -56.5 -12t-46.5 -32t-31.5 -46.5t-11.5 -56.5t11.5 -56.5
t31.5 -47t46.5 -32t56.5 -11.5t56.5 11.5t46 32t30.5 47t11 56.5t-11 56.5t-30.5 46.5t-46 32t-56.5 12zM4193 399q-30 0 -57 -12t-47 -32t-32 -46.5t-12 -56.5t12 -56.5t32 -47t47 -32t57 -11.5q28 0 53.5 11.5t44.5 32t30.5 47t11.5 56.5t-11.5 56.5t-30.5 46.5t-44.5 32
t-53.5 12zM1803 198h-1803v109h1803v-109zM4643 162q0 -12 4.5 -25.5t16 -24.5t31.5 -19t51 -8q44 0 64 17t20 37q0 24 -23 34.5t-57 16.5t-74.5 12t-74.5 21.5t-57 45t-23 83.5q0 34 14.5 64t42 52t66 35t86.5 13q96 0 153.5 -46.5t63.5 -121.5h-128q-1 10 -3.5 22.5
t-10.5 23t-24.5 17.5t-44.5 7q-35 0 -58 -10t-26 -36q0 -22 23.5 -33t58.5 -18t76 -15t76 -23.5t58.5 -44t23.5 -76.5q0 -46 -18 -78.5t-49.5 -53t-73.5 -30t-89 -9.5q-51 0 -92.5 13t-71 35.5t-46 54t-17.5 68.5h132zM1803 0h-1803v104h1803v-104zM3103 0h-127v36
q-34 -22 -71.5 -33.5t-79.5 -11.5q-54 0 -102 20t-84 55.5t-57 83t-21 102.5t21 103t57 84t84 56.5t102 20.5q42 0 79.5 -11.5t71.5 -33.5v210h127v-681zM3879 0h-126v36q-28 -22 -66.5 -33.5t-81.5 -11.5q-54 0 -102.5 20t-85 55.5t-57.5 83t-21 102.5t21 103t57.5 84
t85 56.5t102.5 20.5q43 0 81 -11.5t67 -33.5v210h126v-681zM2392 36q-32 -22 -70.5 -33.5t-83.5 -11.5q-53 0 -100 20t-82.5 55.5t-56.5 83t-21 102.5t21 103t56.5 84t82.5 56.5t100 20.5q86 0 154 -45v40h126v-511h-126v36zM4333 36q-31 -22 -68.5 -33.5t-76.5 -11.5
q-55 0 -103.5 20t-85 55.5t-57.5 83t-21 102.5t21 103t57.5 84t85 56.5t103.5 20.5q38 0 76 -11.5t69 -33.5v40h127v-511h-127v36z" />
    <glyph glyph-name="f_i" unicode="&#xfb01;" horiz-adv-x="421" 
d="M239 638q-17 0 -34 -4.5t-31 -16.5t-22.5 -32.5t-8.5 -51.5v-33h129v-44h-129v-456h-48v456h-75v44h75v33q0 43 13 72t33 47t45.5 25.5t51.5 7.5h33v-47h-32zM332 632v53h49v-53h-49zM332 0v500h49v-500h-49z" />
    <glyph glyph-name="f_l" unicode="&#xfb02;" horiz-adv-x="421" 
d="M239 638q-17 0 -34 -4.5t-31 -16.5t-22.5 -32.5t-8.5 -51.5v-33h129v-44h-129v-456h-48v456h-75v44h75v33q0 43 13 72t33 47t45.5 25.5t51.5 7.5h33v-47h-32zM332 0v685h49v-685h-49z" />
    <glyph glyph-name="A.left" horiz-adv-x="563" 
d="M460 614l-249 -383h249v383zM460 181h-281l-118 -181h-61l449 685h64v-685h-53v181z" />
    <glyph glyph-name="A.right" horiz-adv-x="563" 
d="M102 613v-382h249zM383 181h-281v-181h-52v685h64l449 -685h-62z" />
    <glyph glyph-name="M.left" horiz-adv-x="900" 
d="M406 597l-348 -597h-58l403 685h55v-576l335 576h57v-685h-53v597l-344 -597h-47v597z" />
    <glyph glyph-name="M.right" horiz-adv-x="900" 
d="M102 598v-598h-52v685h58l336 -578v578h53l403 -685h-58l-348 594v-594h-47z" />
    <glyph glyph-name="V.left" horiz-adv-x="563" 
d="M0 685h61l400 -613v613h52v-685h-64z" />
    <glyph glyph-name="V.right" horiz-adv-x="563" 
d="M50 685h53v-614l399 614h61l-449 -685h-64v685z" />
    <glyph glyph-name="W.left" horiz-adv-x="900" 
d="M456 576v-576h-53l-403 685h58l348 -594v594h47l345 -598v598h52v-685h-59z" />
    <glyph glyph-name="W.right" horiz-adv-x="900" 
d="M442 576l-335 -576h-57v685h53v-597l344 597h47v-597l348 597h58l-403 -685h-55v576z" />
    <glyph glyph-name="Napostrophe" horiz-adv-x="601" 
d="M101 603v-603h-51v685h56l394 -603v603h51v-685h-56zM82 738h-27l17 72h-21v58h50v-54z" />
    <glyph glyph-name="k.alt" horiz-adv-x="438" 
d="M40 685h49v-466l255 281h63l-181 -199l187 -301h-57l-166 263l-101 -108v-155h-49v685z" />
    <glyph glyph-name="zero.slash" horiz-adv-x="540" 
d="M38 460q0 50 18 92.5t49 73.5t73.5 48.5t92.5 17.5q49 0 91 -17.5t73 -48.5t49 -73.5t18 -92.5v-238q0 -50 -18 -93t-49 -74t-73 -48.5t-91 -17.5q-50 0 -92.5 17.5t-73.5 48.5t-49 74t-18 93v238zM90 222q0 -38 12 -71t35 -57l227 526q-20 11 -43.5 17.5t-49.5 6.5
q-39 0 -72.5 -13.5t-57.5 -38t-37.5 -58.5t-13.5 -74v-238zM271 37q39 0 71.5 14t56.5 38.5t37.5 58.5t13.5 74v238q0 38 -12.5 71t-34.5 57l-227 -526q42 -25 95 -25z" />
    <glyph glyph-name="four.alt" horiz-adv-x="523" 
d="M84 211h272v225h50v-225h91v-48h-91v-163h-50v163h-331v48l331 476h55z" />
    <glyph glyph-name="zero.dnom" horiz-adv-x="319" 
d="M20 248q0 28 10.5 51.5t29.5 41t45 27t56 9.5t55 -9.5t43.5 -27t29 -41t10.5 -51.5v-124q0 -28 -10.5 -52t-29 -41t-43.5 -27t-55 -10t-56 10t-45 27t-29.5 41t-10.5 52v124zM254 248q0 38 -26.5 62.5t-66.5 24.5q-42 0 -68 -24.5t-26 -62.5v-124q0 -38 26 -63t68 -25
q40 0 66.5 25t26.5 63v124z" />
    <glyph glyph-name="one.dnom" horiz-adv-x="131" 
d="M66 0v332h-46v41h91v-373h-45z" />
    <glyph glyph-name="two.dnom" horiz-adv-x="311" 
d="M20 297q23 37 56 58.5t84 21.5q28 0 52 -8.5t40.5 -23.5t26 -35.5t9.5 -43.5q0 -42 -22.5 -70.5t-53.5 -54.5l-118 -100h197v-41h-266v36l157 135q26 22 41.5 42.5t15.5 52.5q0 29 -21.5 49t-57.5 20q-38 0 -60.5 -15.5t-39.5 -43.5z" />
    <glyph glyph-name="three.dnom" horiz-adv-x="322" 
d="M183 246q55 -6 87 -38t32 -83q0 -56 -38.5 -92.5t-102.5 -36.5q-50 0 -84 22t-57 59l38 22q18 -28 41.5 -44t61.5 -16q45 0 70 24t25 61q0 39 -24 60t-69 21q-17 0 -32 -6t-25 -12l-22 29l132 117h-172v41h242v-36z" />
    <glyph glyph-name="four.dnom" horiz-adv-x="324" 
d="M304 126v-42h-51v-84h-45v84h-188v36l191 255h42v-249h51zM208 126v173l-131 -173h131z" />
    <glyph glyph-name="five.dnom" horiz-adv-x="322" 
d="M116 332l-23 -103q16 9 36 14.5t39 5.5q64 0 99 -33t35 -90q0 -28 -10 -51.5t-28.5 -41t-44.5 -27.5t-58 -10q-50 0 -84 22t-57 59l37 22q18 -29 42 -44.5t62 -15.5q45 0 70 24.5t25 62.5q0 39 -23.5 60t-67.5 21q-30 0 -51.5 -13.5t-35.5 -30.5l-41 11l42 200h201v-42
h-164z" />
    <glyph glyph-name="six.dnom" horiz-adv-x="326" 
d="M130 256q8 2 16 3.5t19 1.5q31 0 57 -10.5t44.5 -28.5t29 -42.5t10.5 -52.5t-11 -52t-30.5 -42t-45 -28t-55.5 -10q-31 0 -57.5 10t-45.5 28t-30 42t-11 52q0 23 7 44t18 37l113 166h54zM164 218q-43 0 -70 -26t-27 -65q0 -38 27 -64t70 -26q42 0 69.5 26t27.5 64
q0 39 -27.5 65t-69.5 26z" />
    <glyph glyph-name="seven.dnom" horiz-adv-x="296" 
d="M113 0h-50l160 331h-203v42h256v-34z" />
    <glyph glyph-name="eight.dnom" horiz-adv-x="304" 
d="M152 377q22 0 42 -7t35 -20t24 -30.5t9 -38.5q0 -23 -11.5 -42t-29.5 -31q28 -14 45.5 -39.5t17.5 -57.5q0 -25 -10.5 -46.5t-28.5 -37t-42 -24.5t-51 -9t-51 9t-42 24.5t-28.5 37t-10.5 46.5q0 32 17.5 57.5t45.5 39.5q-19 12 -30 31t-11 42q0 21 9 38.5t24 30.5t35 20
t42 7zM152 337q-26 0 -44.5 -16t-18.5 -40q0 -23 18.5 -39t44.5 -16q27 0 45.5 16t18.5 39q0 24 -18.5 40t-45.5 16zM152 186q-37 0 -61.5 -21.5t-24.5 -53.5t24.5 -53.5t61.5 -21.5q36 0 61 21.5t25 53.5t-25 53.5t-61 21.5z" />
    <glyph glyph-name="nine.dnom" horiz-adv-x="326" 
d="M196 117q-13 -4 -35 -4q-31 0 -57 10t-44.5 28t-29 42.5t-10.5 53.5q0 28 11 52t30.5 42t46 28t56.5 10t56 -10t45 -28t30 -42t11 -52q0 -23 -7 -44.5t-18 -37.5l-113 -165h-53zM164 337q-43 0 -70.5 -26t-27.5 -64q0 -39 27.5 -65t70.5 -26q42 0 69 26t27 65
q0 38 -27 64t-69 26z" />
    <glyph glyph-name="space.em" horiz-adv-x="1000" 
 />
    <glyph glyph-name="space.en" horiz-adv-x="500" 
 />
    <glyph glyph-name="space.thin" horiz-adv-x="0" 
 />
    <glyph glyph-name="space.half" horiz-adv-x="150" 
 />
    <glyph glyph-name="space.quarter" horiz-adv-x="100" 
 />
    <glyph glyph-name="afii10067.bgr" horiz-adv-x="460" 
d="M234 -8q-44 0 -80.5 15.5t-63 44t-41 69.5t-14.5 92v271q0 47 15 85.5t41.5 65.5t61.5 42t74 15q44 0 78 -13.5t57 -37.5t35 -56t12 -68q0 -47 -26 -88.5t-69 -61.5q26 -9 48.5 -26.5t38.5 -41t25 -52t9 -59.5q0 -38 -12.5 -73.5t-37.5 -62.5t-62.5 -43.5t-88.5 -16.5z
M84 481v-94h142q31 0 56 10t42.5 27.5t26.5 41t9 49.5q0 62 -35.5 96.5t-96.5 34.5q-64 0 -104 -42.5t-40 -122.5zM234 38q34 0 62.5 11t48 31t30.5 47t11 59q0 37 -12.5 66t-35 49t-53 30.5t-66.5 10.5h-135v-130q0 -39 10.5 -71t30 -55t47.5 -35.5t62 -12.5z" />
    <glyph glyph-name="afii10068.bgr" horiz-adv-x="447" 
d="M422 152q-9 -79 -63 -119.5t-145 -40.5t-140 38t-49 102q0 47 24 73.5t57.5 39.5t66 20.5t56.5 12.5q23 6 48.5 14t49.5 27.5t24 57.5q0 41 -31.5 63t-91.5 22q-35 0 -60.5 -8.5t-42.5 -23t-26 -33t-11 -37.5h-49q5 68 54.5 108t133.5 40q81 0 128 -34.5t47 -96.5
q0 -49 -24 -76t-61 -42q-34 -14 -76 -23q-47 -9 -82 -19.5t-59 -29.5t-24 -55q0 -45 34 -69t103 -24q72 0 112 29.5t47 83.5h50z" />
    <glyph glyph-name="afii10069.bgr" horiz-adv-x="572" 
d="M280 461q-44 0 -82 -16t-65.5 -43.5t-43 -65.5t-15.5 -81t15.5 -80.5t43 -65t65.5 -43.5t82 -16q43 0 81 15.5t65.5 42.5t43.5 64.5t16 82.5t-16 83t-43.5 65t-65.5 42.5t-81 15.5zM285 -186q-85 0 -140.5 34t-90.5 91l38 26q29 -48 74 -75.5t119 -27.5q92 0 145 44.5
t53 132.5v70q-13 -20 -32.5 -39t-45 -34t-57.5 -24t-71 -9q-53 0 -99 19.5t-80 53.5t-53.5 80t-19.5 100q0 53 19.5 99t53.5 80t80 53.5t99 19.5q74 0 125.5 -30t80.5 -75v97h49v-461q0 -47 -16.5 -88t-48 -71.5t-77.5 -48t-105 -17.5z" />
    <glyph glyph-name="afii10072.bgr" horiz-adv-x="707" 
d="M329 256v429h49v-429l220 244h58l-229 -251l260 -249h-69l-240 234v-234h-49v234l-244 -234h-65l260 245l-231 255h60z" />
    <glyph glyph-name="afii10073.bgr" horiz-adv-x="434" 
d="M205 -186q-64 0 -113 24.5t-90 77.5l35 32q31 -42 72 -64.5t96 -22.5q72 0 110 42.5t38 109.5q0 30 -10 56.5t-29 46.5t-46.5 31.5t-63.5 11.5h-71v44h71q30 0 54 10.5t40 28.5t24.5 41.5t8.5 50.5q0 54 -35 90.5t-98 36.5q-44 0 -76 -17t-58 -53l-33 28q59 88 172 88
q40 0 72.5 -12.5t56 -35.5t36 -55t12.5 -71q0 -48 -24.5 -87.5t-60.5 -59.5q25 -11 45 -29t34 -41t21 -49.5t7 -54.5q0 -42 -13.5 -78t-38.5 -62.5t-62 -42t-83 -15.5z" />
    <glyph glyph-name="afii10074.bgr" 
d="M401 0v76q-9 -15 -23 -30t-35 -27t-48 -19.5t-61 -7.5q-44 0 -79.5 14.5t-61 40.5t-39.5 63.5t-14 83.5v306h49v-300q0 -76 39.5 -118.5t110.5 -42.5q74 0 118 46.5t44 128.5v286h49v-500h-49z" />
    <glyph glyph-name="afii10075.bgr" 
d="M401 0v76q-9 -15 -23 -30t-35 -27t-48 -19.5t-61 -7.5q-44 0 -79.5 14.5t-61 40.5t-39.5 63.5t-14 83.5v306h49v-300q0 -76 39.5 -118.5t110.5 -42.5q74 0 118 46.5t44 128.5v286h49v-500h-49zM246 619q45 0 79 21t54 45v-54q-13 -17 -46 -34.5t-87 -17.5t-87 17.5
t-46 34.5v54q20 -24 54 -45t79 -21z" />
    <glyph glyph-name="afii10076.bgr" horiz-adv-x="438" 
d="M329 500h61l-249 -251l262 -249h-68l-246 234v-234h-49v685h49v-429z" />
    <glyph glyph-name="afii10077.bgr" horiz-adv-x="474" 
d="M403 0l-168 445l-167 -445h-53l191 500h62l191 -500h-56z" />
    <glyph glyph-name="afii10079.bgr" horiz-adv-x="480" 
d="M391 0v231h-302v-231h-49v500h49v-225h302v225h49v-500h-49z" />
    <glyph glyph-name="afii10081.bgr" 
d="M256 508q44 0 79.5 -14.5t61 -40.5t39.5 -63.5t14 -83.5v-306h-49v300q0 76 -39.5 118.5t-110.5 42.5q-74 0 -118 -46.5t-44 -128.5v-286h-49v500h49v-76q22 34 62 59t105 25z" />
    <glyph glyph-name="afii10084.bgr" horiz-adv-x="807" 
d="M89 427q18 31 56.5 56t100.5 25q58 0 100.5 -26.5t63.5 -74.5q10 19 25.5 37t37 32.5t49.5 23t63 8.5q83 0 132.5 -52.5t49.5 -141.5v-314h-49v310q0 72 -36.5 111.5t-101.5 39.5q-68 0 -110 -41t-42 -116v-304h-49v310q0 72 -36.5 111.5t-101.5 39.5q-69 0 -110.5 -43
t-41.5 -121v-297h-49v500h49v-73z" />
    <glyph glyph-name="afii10088.bgr" horiz-adv-x="539" 
d="M480 -141v141h-79v76q-9 -15 -23 -30t-35 -27t-48 -19.5t-61 -7.5q-44 0 -79.5 14.5t-61 40.5t-39.5 63.5t-14 83.5v306h49v-300q0 -76 39.5 -118.5t110.5 -42.5q74 0 118 46.5t44 128.5v286h49v-456h79v-180z" />
    <glyph glyph-name="afii10089.bgr" horiz-adv-x="460" 
d="M371 391v109h49v-500h-49v253q-14 -24 -35 -42q-19 -16 -48 -29t-73 -13q-42 0 -76 14.5t-58.5 40.5t-37.5 63.5t-13 83.5v129h49v-123q0 -76 37 -118.5t103 -42.5q69 0 110.5 46.5t41.5 128.5z" />
    <glyph glyph-name="afii10090.bgr" horiz-adv-x="795" 
d="M706 0v73q-18 -31 -56 -56t-98 -25q-57 0 -98.5 26.5t-62.5 74.5q-10 -19 -25.5 -37t-36.5 -32.5t-48.5 -23t-61.5 -8.5q-41 0 -74 13.5t-56 39t-36 61.5t-13 80v314h49v-310q0 -72 36 -111.5t99 -39.5q66 0 107.5 41t41.5 116v304h49v-310q0 -72 36 -111.5t99 -39.5
q68 0 108.5 43t40.5 121v297h49v-500h-49z" />
    <glyph glyph-name="afii10091.bgr" horiz-adv-x="844" 
d="M785 -141v141h-79v73q-18 -31 -56 -56t-98 -25q-57 0 -98.5 26.5t-62.5 74.5q-10 -19 -25.5 -37t-36.5 -32.5t-48.5 -23t-61.5 -8.5q-41 0 -74 13.5t-56 39t-36 61.5t-13 80v314h49v-310q0 -72 36 -111.5t99 -39.5q66 0 107.5 41t41.5 116v304h49v-310q0 -72 36 -111.5
t99 -39.5q68 0 108.5 43t40.5 121v297h49v-456h79v-180z" />
    <glyph glyph-name="afii10092.bgr" horiz-adv-x="514" 
d="M312 -10q-36 0 -67.5 12.5t-54.5 35.5t-36.5 56.5t-13.5 74.5v287h-125v44h174v-175h116q86 0 132.5 -46t46.5 -120q0 -36 -13 -67t-36 -53.5t-54.5 -35.5t-68.5 -13zM312 36q28 0 51 9.5t39 26t24.5 39t8.5 47.5q0 56 -35 88.5t-103 32.5h-108v-113q0 -30 10 -54.5
t27 -41t39 -25.5t47 -9z" />
    <glyph glyph-name="afii10094.bgr" horiz-adv-x="414" 
d="M212 -10q-36 0 -67.5 12.5t-54.5 35.5t-36.5 56.5t-13.5 74.5v331h49v-175h116q86 0 132.5 -46t46.5 -120q0 -36 -13 -67t-36 -53.5t-54.5 -35.5t-68.5 -13zM212 36q28 0 51 9.5t39 26t24.5 39t8.5 47.5q0 56 -35 88.5t-103 32.5h-108v-113q0 -30 10 -54.5t27 -41
t39 -25.5t47 -9z" />
    <glyph glyph-name="afii10096.bgr" horiz-adv-x="705" 
d="M433 -7q-50 0 -93.5 18t-76.5 50t-53.5 75.5t-23.5 94.5h-97v-231h-49v685h49v-410h97q4 50 24.5 92.5t53.5 74t76 49t93 17.5q52 0 97 -20t78.5 -54.5t52.5 -81.5t19 -101q0 -55 -19 -102t-52.5 -81.5t-78.5 -54.5t-97 -20zM433 461q-43 0 -79.5 -16t-63 -44.5
t-41.5 -67t-15 -83.5q0 -44 15 -82.5t41.5 -67t63 -44.5t79.5 -16q42 0 78.5 16t63 44.5t41.5 67t15 82.5q0 45 -15 83.5t-41.5 67t-63 44.5t-78.5 16z" />
    <glyph glyph-name="afii10066.locl" horiz-adv-x="548" 
d="M273 -7q-53 0 -98 19t-78.5 52.5t-52.5 78.5t-19 98q0 44 15 83t41.5 70t63.5 51.5t81 28.5q-46 12 -77 23.5t-50 24.5t-27.5 29t-8.5 38q0 42 27 69t76 27h157q59 0 97 1.5t61 6.5v-45q-23 -6 -62 -8.5t-96 -2.5h-158q-27 0 -40 -13.5t-13 -34.5q0 -13 10 -26.5
t39 -22.5l102 -33q52 -17 99.5 -37.5t83 -50.5t56.5 -73t21 -104q0 -53 -19 -98.5t-53 -79t-79.5 -52.5t-98.5 -19zM274 40q41 0 77.5 16t64 43t43.5 63.5t16 77.5t-16 77.5t-43.5 63.5t-64 43t-77.5 16t-77.5 -16t-63.5 -43t-43 -63.5t-16 -77.5t16 -77.5t43 -63.5
t63.5 -43t77.5 -16z" />
    <glyph glyph-name="afii10068.locl" horiz-adv-x="373" 
d="M353 456h-264v-456h-49v500h313v-44z" />
    <glyph glyph-name="afii10069.locl" horiz-adv-x="572" 
d="M280 461q-44 0 -82 -16t-65.5 -43.5t-43 -65.5t-15.5 -81t15.5 -80.5t43 -65t65.5 -43.5t82 -16q43 0 81 15.5t65.5 42.5t43.5 64.5t16 82.5t-16 83t-43.5 65t-65.5 42.5t-81 15.5zM285 -186q-85 0 -140.5 34t-90.5 91l38 26q29 -48 74 -75.5t119 -27.5q92 0 145 44.5
t53 132.5v70q-13 -20 -32.5 -39t-45 -34t-57.5 -24t-71 -9q-53 0 -99 19.5t-80 53.5t-53.5 80t-19.5 100q0 53 19.5 99t53.5 80t80 53.5t99 19.5q74 0 125.5 -30t80.5 -75v97h49v-461q0 -47 -16.5 -88t-48 -71.5t-77.5 -48t-105 -17.5z" />
    <glyph glyph-name="afii10081.locl" horiz-adv-x="470" 
d="M381 0v456h-292v-456h-49v500h390v-500h-49z" />
    <glyph glyph-name="afii10084.locl" horiz-adv-x="447" 
d="M432 456h-184v-456h-49v456h-184v44h417v-44z" />
    <glyph glyph-name="cyr_breve" horiz-adv-x="400" 
d="M200 619q45 0 79 21t54 45v-54q-13 -17 -46 -34.5t-87 -17.5t-87 17.5t-46 34.5v54q20 -24 54 -45t79 -21z" />
    <glyph glyph-name="cyr_breve.uc" horiz-adv-x="400" 
d="M200 806q45 0 79 20.5t54 43.5v-57q-12 -16 -45.5 -32.5t-87.5 -16.5t-87.5 16.5t-45.5 32.5v57q20 -23 54 -43.5t79 -20.5z" />
    <glyph glyph-name="glyph527" horiz-adv-x="0" 
d="M423 152q-9 -79 -63 -119.5t-145 -40.5t-140.5 41.5t-49.5 105.5q0 42 18 67.5t47 39.5t64.5 21.5t69.5 13.5q26 5 49.5 11t41.5 16t28.5 25t10.5 39q0 41 -32.5 65.5t-92.5 24.5q-35 0 -60.5 -8.5t-42.5 -23t-26 -33t-11 -37.5h-49q5 68 54.5 108t133.5 40
q81 0 128.5 -38t47.5 -100q0 -39 -15.5 -62.5t-41 -38t-57 -21.5t-64.5 -13q-29 -5 -56.5 -11t-48.5 -16.5t-34 -27t-13 -43.5q0 -45 35.5 -71.5t104.5 -26.5q72 0 112 29.5t47 83.5h50z" />
    </font>
</defs>
</svg>
